<svg width="100" height="100" viewBox="0 0 100 100" fill="none" xmlns="http://www.w3.org/2000/svg">
<rect width="100" height="100" rx="24" fill="white"/>
<path d="M57.1211 37.5839C57.8095 38.8346 58.9957 39.7311 60.3823 40.0489L66.1105 41.3614C69.766 42.199 71.2352 46.6343 68.8086 49.5069L64.6417 54.4397C63.768 55.4741 63.3479 56.8197 63.4772 58.1703L64.0819 64.4894C64.4516 68.3518 60.5086 71.1581 57.0062 69.5253L52.1034 67.2397C50.7702 66.6182 49.2323 66.6181 47.899 67.2396L42.9934 69.5261C39.4911 71.1586 35.5484 68.3523 35.918 64.4901L36.5228 58.1703C36.6521 56.8197 36.232 55.4741 35.3583 54.4397L31.1914 49.5069C28.7648 46.6343 30.234 42.199 33.8895 41.3614L39.6181 40.0488C41.0044 39.7311 42.1905 38.8348 42.879 37.5844L45.6291 32.59C47.5307 29.1364 52.4712 29.1367 54.3724 32.5906L57.1211 37.5839Z" fill="#56AFDF"/>
</svg>
