<svg width="410" height="560" viewBox="0 0 410 560" fill="none" xmlns="http://www.w3.org/2000/svg">
<rect width="410" height="560" rx="40" fill="#56AFDF"/>
<path d="M60.0156 76.5V78.5625H51.625V80.1562H57.6016V85.3594H45.5547V86.9062H58.1875V88.8984H43V83.4844H55.0469V82.125H42.9766V80.1562H49.0234V78.5625H40.7031V76.5H60.0156ZM57.5312 68.5547V75.1641H43.1406V68.5547H57.5312ZM45.6953 70.5938V73.125H54.9297V70.5938H45.6953ZM79.5737 67.8984V89.1094H76.9956V67.8984H79.5737ZM73.0581 69.75V77.6953H65.7691V81.9609C69.1089 81.9375 71.9917 81.7734 75.2847 81.2109L75.5191 83.3438C71.9097 83.9766 68.7456 84.0938 64.9487 84.0938H63.0972V75.6328H70.4097V71.8594H63.0737V69.75H73.0581ZM90.9287 71.5312C90.9287 74.1094 92.6397 76.7109 95.9209 77.8125L94.6084 79.8281C92.2412 79.0547 90.5655 77.4492 89.6397 75.4688C88.7139 77.6836 86.9444 79.4648 84.4366 80.2969L83.1006 78.2344C86.4756 77.1328 88.2803 74.3203 88.2803 71.5547V71.2734H83.8741V69.1875H95.3116V71.2734H90.9287V71.5312ZM100.89 81.5391V89.0859H98.2881V83.625H86.4522V81.5391H100.89ZM100.89 67.8984V80.5312H98.2881V75.2812H94.6787V73.1484H98.2881V67.8984H100.89ZM129.881 78.4922V80.5781H121.701V84.4688H119.123V80.5781H110.522V78.4922H129.881ZM127.397 68.8594V76.5234H112.982V68.8594H127.397ZM115.514 70.8984V74.4844H124.818V70.8984H115.514ZM127.748 86.5547V88.6641H112.865V82.5234H115.467V86.5547H127.748ZM150.002 67.8984V89.0859H147.517V67.8984H150.002ZM145.689 68.2969V88.0547H143.228V77.3906H140.181V75.2812H143.228V68.2969H145.689ZM138.306 73.6875C138.306 77.2734 139.595 80.8594 142.619 82.5938L141.072 84.5156C139.115 83.3438 137.814 81.3281 137.088 78.9141C136.338 81.5273 134.99 83.7539 132.986 85.0078L131.392 83.0625C134.463 81.2109 135.798 77.3672 135.798 73.6875V72.2812H132.119V70.1719H141.728V72.2812H138.306V73.6875Z" fill="white" fill-opacity="0.4"/>
<path d="M57.6172 169.805C65 169.805 69.6094 172.344 69.6094 176.68C69.6094 181.094 65 183.633 57.6172 183.633C50.0781 183.633 45.4297 181.094 45.4297 176.68C45.4297 172.344 50.0781 169.805 57.6172 169.805ZM57.6172 173.672C52.9297 173.672 50.3906 174.648 50.4297 176.68C50.3906 178.711 52.9297 179.766 57.6172 179.766C62.2266 179.766 64.6875 178.711 64.6875 176.68C64.6875 174.648 62.2266 173.672 57.6172 173.672ZM69.2578 148.047V156.289H74.0625V160.469H69.2578V169.023H64.2578V148.047H69.2578ZM47.0703 150.273V154.766H54.3359V150.273H59.3359V166.992H42.1094V150.273H47.0703ZM47.0703 163.047H54.3359V158.633H47.0703V163.047ZM106.152 148.047V183.594H101.152V148.047H106.152ZM90.3312 159.18C90.3312 164.336 93.2609 170.156 99.1594 172.578L96.4641 176.406C92.4211 174.746 89.5305 171.348 87.9094 167.266C86.3273 171.602 83.4172 175.234 79.2766 176.953L76.6203 173.125C82.4797 170.586 85.3703 164.609 85.3703 159.18V157.812H77.7922V153.828H85.3312V148.828H90.2922V153.828H97.7141V157.812H90.3312V159.18ZM132.537 158.945V162.93H126.17V166.523C128.983 166.387 131.776 166.211 134.412 165.938L134.764 169.492C127.225 170.547 119.178 170.742 112.616 170.742L111.952 166.797C114.803 166.777 117.948 166.758 121.17 166.68V162.93H114.959V150.195H132.225V154.18H119.959V158.945H132.537ZM141.678 148.008V174.805H136.6V148.008H141.678ZM142.616 178.984V182.969H117.459V172.773H122.498V178.984H142.616ZM173.2 170.195C180.973 170.195 185.856 172.656 185.895 176.914C185.856 181.094 180.973 183.594 173.2 183.594C165.505 183.594 160.544 181.094 160.544 176.914C160.544 172.656 165.505 170.195 173.2 170.195ZM173.2 173.906C168.317 173.906 165.505 174.922 165.505 176.914C165.505 178.828 168.317 179.805 173.2 179.805C178.083 179.805 180.934 178.828 180.934 176.914C180.934 174.922 178.083 173.906 173.2 173.906ZM185.7 149.648V152.539C185.7 155.352 185.7 158.398 184.684 162.07L179.802 161.602C180.583 158.379 180.68 155.977 180.739 153.555H160.895V149.648H185.7ZM189.528 163.906V167.93H157.262V163.906H169.372V157.695H174.294V163.906H189.528ZM220.758 148.047V158.008H225.562V162.109H220.758V173.516H215.719V148.047H220.758ZM211.07 150.703C211.07 160.312 205.055 167.031 194.391 170.039L192.32 166.094C200.27 163.867 204.781 159.746 205.602 154.766H193.883V150.703H211.07ZM221.969 178.984V182.969H197.633V170.898H202.672V178.984H221.969ZM247.925 151.602V154.453C247.886 157.812 247.886 162.188 246.948 168.086L242.027 167.695C242.827 162.539 242.905 158.73 242.964 155.586H229.488V151.602H247.925ZM239.058 161.797V172.109C242.554 171.973 246.109 171.719 249.37 171.289L249.683 175C242.378 176.25 234.292 176.367 228.081 176.328L227.613 172.344C229.605 172.324 231.831 172.324 234.136 172.266V161.797H239.058ZM256.089 148.047V162.344H260.933V166.484H256.089V183.594H251.05V148.047H256.089ZM70.8203 208.086V233.633H65.8203V208.086H70.8203ZM71.7578 238.984V242.969H46.9922V231.055H52.0312V238.984H71.7578ZM51.3281 210.352C56.7969 210.352 61.0547 214.102 61.0547 219.297C61.0547 224.609 56.7969 228.32 51.3281 228.32C45.8594 228.32 41.6016 224.609 41.6016 219.297C41.6016 214.102 45.8594 210.352 51.3281 210.352ZM51.3281 214.688C48.5547 214.648 46.4453 216.406 46.4844 219.297C46.4453 222.266 48.5547 223.984 51.3281 223.984C54.0234 223.984 56.1328 222.266 56.1328 219.297C56.1328 216.406 54.0234 214.648 51.3281 214.688ZM108.964 235.312V239.453H76.425V235.312H108.964ZM106.23 211.172V215.156H101.23V225.938H106.073V229.844H79.1203V225.938H83.8859V215.156H78.9641V211.172H106.23ZM88.8859 225.938H96.3078V215.156H88.8859V225.938ZM139.842 208.047V221.484H145.077V225.586H139.842V243.672H134.92V208.047H139.842ZM129.686 211.016V224.805H118.241V231.25C123.416 231.23 127.694 230.996 132.42 230.195L132.85 234.18C127.42 235.156 122.537 235.391 116.287 235.391H113.28V220.859H124.725V215.039H113.241V211.016H129.686ZM189.723 235.352V239.336H157.184V235.352H170.778V227.305H175.739V235.352H189.723ZM175.895 212.617C175.895 217.695 180.466 223.047 188.591 224.297L186.481 228.438C180.231 227.305 175.583 223.965 173.239 219.531C170.895 223.945 166.286 227.324 160.075 228.438L157.966 224.297C166.012 223.047 170.544 217.656 170.583 212.617V210.078H175.895V212.617ZM211.031 209.688V212.148H217.555V208.047H222.516V225.859H217.555V222.383H211.031V224.727H194V209.688H211.031ZM198.922 213.555V220.781H206.07V213.555H198.922ZM222.516 227.383V236.992H203.883V239.297H223.57V243.203H198.883V233.32H217.555V231.211H198.844V227.383H222.516ZM211.031 218.594H217.555V215.859H211.031V218.594Z" fill="white"/>
<path d="M45.8125 406.562V410.844H52.5312V406.562H56V420.719H42.375V406.562H45.8125ZM45.8125 417.969H52.5312V413.531H45.8125V417.969ZM64.4688 404.562V425.344H60.9688V404.562H64.4688ZM65.125 429.406V432.219H45.6562V423.219H49.1562V429.406H65.125ZM85.89 406.219V409H79.9525C79.9994 412.312 82.4369 415.484 86.89 416.75L85.14 419.469C81.8744 418.5 79.515 416.453 78.2337 413.844C76.9681 416.656 74.5462 418.875 71.1712 419.938L69.4212 417.219C73.9369 415.891 76.3744 412.5 76.4525 409H70.3587V406.219H85.89ZM92.765 404.531V419.844H89.265V404.531H92.765ZM77.515 421.094V424H89.2962V421.094H92.765V432.438H74.0775V421.094H77.515ZM77.515 429.625H89.2962V426.688H77.515V429.625ZM131.545 418.656V421.438H120.639V426.625H117.201V421.438H105.732V418.656H131.545ZM128.232 405.812V416.031H109.014V405.812H128.232ZM112.389 408.531V413.312H124.795V408.531H112.389ZM128.701 429.406V432.219H108.857V424.031H112.326V429.406H128.701ZM158.372 404.531V432.781H155.06V404.531H158.372ZM152.622 405.062V431.406H149.341V417.188H145.279V414.375H149.341V405.062H152.622ZM142.779 412.25C142.779 417.031 144.497 421.812 148.529 424.125L146.466 426.688C143.857 425.125 142.122 422.438 141.154 419.219C140.154 422.703 138.357 425.672 135.685 427.344L133.56 424.75C137.654 422.281 139.435 417.156 139.435 412.25V410.375H134.529V407.562H147.341V410.375H142.779V412.25ZM171.512 406.5C175.981 406.469 179.262 409.312 179.294 413.312C179.262 417.344 175.981 420.156 171.512 420.156C167.075 420.156 163.762 417.344 163.762 413.312C163.762 409.312 167.075 406.469 171.512 406.5ZM171.512 409.5C169.044 409.5 167.2 410.969 167.2 413.312C167.2 415.688 169.044 417.125 171.512 417.125C174.012 417.125 175.887 415.688 175.887 413.312C175.887 410.969 174.012 409.5 171.512 409.5ZM185.887 404.531V432.812H182.419V404.531H185.887ZM162.481 424.062C167.575 424.062 174.637 424 180.731 423.125L181.012 425.656C174.669 426.875 167.887 426.906 162.919 426.906L162.481 424.062ZM206.824 406.156C211.167 406.125 214.417 408.969 214.449 412.938C214.417 416.969 211.167 419.781 206.824 419.781C202.449 419.781 199.167 416.969 199.199 412.938C199.167 408.969 202.449 406.125 206.824 406.156ZM206.824 409.094C204.386 409.125 202.574 410.594 202.605 412.938C202.574 415.344 204.386 416.844 206.824 416.812C209.23 416.844 211.042 415.344 211.042 412.938C211.042 410.594 209.23 409.125 206.824 409.094ZM221.167 404.531V411.406H225.105V414.25H221.167V421.094H217.699V404.531H221.167ZM221.167 422.375V432.812H217.699V425.188H202.355V422.375H221.167ZM241.839 406.344C241.839 409.688 245.745 413.125 251.526 413.938L250.214 416.688C245.573 415.969 241.87 413.719 240.089 410.688C238.261 413.766 234.542 416.031 229.901 416.75L228.589 414.031C234.339 413.156 238.245 409.781 238.276 406.344V405.25H241.839V406.344ZM252.964 418.562V421.375H242.057V426.531H238.62V421.375H227.151V418.562H252.964ZM250.12 429.406V432.219H230.276V424H233.745V429.406H250.12ZM277.854 404.531V414H281.666V416.875H277.854V426.594H274.385V404.531H277.854ZM278.854 429.406V432.219H259.291V425.125H262.76V429.406H278.854ZM255.229 420.938C257.338 420.938 259.791 420.922 262.354 420.812V419.031C259.213 418.656 257.229 417.109 257.229 414.844C257.229 412.062 259.947 410.438 264.041 410.469C268.166 410.438 270.854 412.062 270.854 414.844C270.854 417.094 268.916 418.625 265.822 419.031V420.656C268.229 420.531 270.651 420.312 272.916 419.969L273.197 422.406C267.229 423.531 260.479 423.594 255.604 423.656L255.229 420.938ZM272.166 407V409.531H255.947V407H262.354V404.438H265.822V407H272.166ZM264.041 412.812C261.854 412.812 260.541 413.531 260.572 414.844C260.541 416.062 261.854 416.781 264.041 416.781C266.229 416.781 267.541 416.062 267.541 414.844C267.541 413.531 266.229 412.812 264.041 412.812ZM51.5938 466.562C51.5938 471.188 54.3125 476.062 58.875 477.969L56.9688 480.719C53.625 479.281 51.1875 476.312 49.9062 472.719C48.5938 476.594 46.125 479.844 42.8125 481.406L40.8125 478.688C45.2812 476.625 48.0625 471.375 48.0625 466.562V464.188H41.8438V461.312H57.7812V464.188H51.5938V466.562ZM64.4375 458.531V486.781H60.9375V458.531H64.4375ZM92.89 476.562V486.781H89.4212V479.312H73.64V476.562H92.89ZM92.89 458.531V475.219H89.4212V471.469H82.7962C81.4525 472.969 79.4212 473.875 77.0775 473.875C72.8275 473.875 69.6087 471 69.6087 466.938C69.6087 462.938 72.8275 460.062 77.0775 460.094C79.4056 460.078 81.4369 460.953 82.765 462.438H89.4212V458.531H92.89ZM77.0775 463.031C74.64 463.031 72.9212 464.594 72.9212 466.938C72.9212 469.375 74.64 470.906 77.0775 470.938C79.39 470.906 81.14 469.375 81.1712 466.938C81.14 464.594 79.39 463.031 77.0775 463.031ZM84.265 468.656H89.4212V465.281H84.2962C84.4056 465.812 84.4837 466.359 84.4837 466.938C84.4837 467.531 84.4056 468.109 84.265 468.656ZM129.295 458.562V478.969H125.795V458.562H129.295ZM130.076 483.406V486.219H110.607V476.906H114.107V483.406H130.076ZM113.889 460.406C118.17 460.406 121.482 463.375 121.482 467.469C121.482 471.656 118.17 474.562 113.889 474.562C109.576 474.562 106.264 471.656 106.264 467.469C106.264 463.375 109.576 460.406 113.889 460.406ZM113.889 463.438C111.482 463.438 109.639 465.031 109.67 467.469C109.639 469.969 111.482 471.531 113.889 471.531C116.232 471.531 118.076 469.969 118.076 467.469C118.076 465.031 116.232 463.438 113.889 463.438ZM159.872 480.469V483.375H134.06V480.469H159.872ZM157.622 461.156V463.938H153.497V472.938H157.529V475.688H136.279V472.938H140.247V463.938H136.185V461.156H157.622ZM143.716 472.938H150.06V463.938H143.716V472.938ZM184.481 458.531V469.375H188.825V472.281H184.481V486.812H181.044V458.531H184.481ZM176.481 461V471.656H166.981V477.281C171.45 477.25 174.934 477.062 178.887 476.375L179.2 479.188C174.856 479.969 170.981 480.156 165.856 480.156H163.544V468.875H173.012V463.812H163.481V461H176.481ZM224.699 480.469V483.281H198.886V480.469H209.949V473.938H213.386V480.469H224.699ZM213.48 462.312C213.48 466.594 217.761 470.812 223.699 471.75L222.199 474.625C217.417 473.719 213.511 470.984 211.636 467.281C209.761 470.969 205.886 473.75 201.136 474.625L199.636 471.75C205.542 470.812 209.761 466.562 209.792 462.312V460.25H213.48V462.312ZM241.776 459.906V461.969H247.37V458.531H250.839V472.812H247.37V469.75H241.776V471.719H228.401V459.906H241.776ZM231.839 462.656V468.969H238.339V462.656H231.839ZM250.839 474.094V481.406H235.714V483.688H251.745V486.438H232.245V478.844H247.37V476.781H232.214V474.094H250.839ZM241.776 467.062H247.37V464.594H241.776V467.062Z" fill="white"/>
</svg>
