<svg width="410" height="560" viewBox="0 0 410 560" fill="none" xmlns="http://www.w3.org/2000/svg">
<rect width="410" height="560" rx="40" fill="#EBF0F4"/>
<path d="M48.2734 71.4844C48.25 75.2578 50.1484 79.1016 53.4297 80.6719L51.8359 82.7578C49.5391 81.5977 47.8867 79.3594 46.9844 76.6641C46.0586 79.5469 44.3242 81.9375 41.8984 83.1562L40.3047 81.0703C43.7031 79.4531 45.6484 75.3984 45.6719 71.4844V68.1094H48.2734V71.4844ZM57.2969 66.3984V74.6953H60.5547V76.9219H57.2969V87.5859H54.6953V66.3984H57.2969ZM79.5737 66.3984V87.5859H76.9722V66.3984H79.5737ZM62.0191 81.7031C63.7066 81.6914 65.6167 81.6914 67.6206 81.6328V79.6875C65.23 79.3125 63.6831 77.8477 63.6831 75.8438C63.6831 73.4531 65.7925 71.8594 68.8862 71.8594C72.0034 71.8594 74.1597 73.4531 74.1597 75.8438C74.1597 77.8359 72.6011 79.2891 70.2222 79.6641V81.5391C72.0855 81.457 73.9605 81.3047 75.73 81.0703L75.9175 83.0156C71.2534 83.8125 66.2144 83.8594 62.3941 83.8594L62.0191 81.7031ZM75.355 68.8359V70.8984H62.4644V68.8359H67.6206V66.4688H70.2222V68.8359H75.355ZM68.8862 73.8516C67.2925 73.875 66.1441 74.6016 66.1675 75.8438C66.1441 77.0625 67.2925 77.7891 68.8862 77.7656C70.5503 77.7891 71.6519 77.0625 71.6519 75.8438C71.6519 74.6016 70.5503 73.875 68.8862 73.8516ZM90.9287 70.0312C90.9287 72.6094 92.6397 75.2109 95.9209 76.3125L94.6084 78.3281C92.2412 77.5547 90.5655 75.9492 89.6397 73.9688C88.7139 76.1836 86.9444 77.9648 84.4366 78.7969L83.1006 76.7344C86.4756 75.6328 88.2803 72.8203 88.2803 70.0547V69.7734H83.8741V67.6875H95.3116V69.7734H90.9287V70.0312ZM100.89 80.0391V87.5859H98.2881V82.125H86.4522V80.0391H100.89ZM100.89 66.3984V79.0312H98.2881V73.7812H94.6787V71.6484H98.2881V66.3984H100.89ZM129.881 76.9922V79.0781H121.701V82.9688H119.123V79.0781H110.522V76.9922H129.881ZM127.397 67.3594V75.0234H112.982V67.3594H127.397ZM115.514 69.3984V72.9844H124.818V69.3984H115.514ZM127.748 85.0547V87.1641H112.865V81.0234H115.467V85.0547H127.748ZM150.002 66.3984V87.5859H147.517V66.3984H150.002ZM145.689 66.7969V86.5547H143.228V75.8906H140.181V73.7812H143.228V66.7969H145.689ZM138.306 72.1875C138.306 75.7734 139.595 79.3594 142.619 81.0938L141.072 83.0156C139.115 81.8438 137.814 79.8281 137.088 77.4141C136.338 80.0273 134.99 82.2539 132.986 83.5078L131.392 81.5625C134.463 79.7109 135.798 75.8672 135.798 72.1875V70.7812H132.119V68.6719H141.728V70.7812H138.306V72.1875Z" fill="#8D92A2"/>
<path d="M70.3516 149.633V152.992C70.3516 157.445 70.3516 162.445 68.9062 169.984L63.9062 169.477C65.2539 162.758 65.3125 157.758 65.3516 153.578H44.4141V149.633H70.3516ZM73.4766 173.695V177.758H41.0547V173.695H52.6562V161.469H57.6172V173.695H73.4766ZM106.191 146.586V166.391H101.191V146.586H106.191ZM94.7453 148.148V158.734H83.1828V161.664C89.1203 161.645 93.3 161.547 98.1047 160.727L98.7297 164.711C93.2609 165.648 88.4953 165.766 81.425 165.766H78.3V154.945H89.7844V152.133H78.2609V148.148H94.7453ZM87.3625 167.875V170.922H101.23V167.875H106.191V181.703H82.4016V167.875H87.3625ZM87.3625 177.719H101.23V174.789H87.3625V177.719ZM131.795 150.102V152.953C131.756 156.312 131.756 160.688 130.819 166.586L125.897 166.195C126.698 161.039 126.776 157.23 126.834 154.086H113.358V150.102H131.795ZM122.928 160.297V170.609C126.424 170.473 129.979 170.219 133.241 169.789L133.553 173.5C126.248 174.75 118.162 174.867 111.952 174.828L111.483 170.844C113.475 170.824 115.702 170.824 118.006 170.766V160.297H122.928ZM139.959 146.547V160.844H144.803V164.984H139.959V182.094H134.92V146.547H139.959ZM185.387 146.547V156.234H190.192V160.336H185.387V172.25H180.387V146.547H185.387ZM174.606 149.398V153.383H163.552V162.367C169.977 162.328 173.512 162.133 177.497 161.273L178.005 165.258C173.552 166.195 169.45 166.391 161.559 166.391H158.552V149.398H174.606ZM186.677 177.484V181.469H162.341V169.516H167.302V177.484H186.677ZM212.867 147.914V151.898H205.797C205.934 155.453 208.512 159.164 213.922 160.727L211.617 164.672C207.613 163.52 204.859 161.156 203.297 158.188C201.676 161.469 198.785 164.164 194.664 165.414L192.242 161.547C197.809 159.77 200.582 155.668 200.797 151.898H193.609V147.914H212.867ZM222.516 146.547V164.633H217.555V157.797H211.969V153.852H217.555V146.547H222.516ZM222.516 166V175.609H203.883V177.875H223.57V181.742H198.883V171.977H217.555V169.945H198.844V166H222.516Z" fill="#525666"/>
<path d="M51.6562 411.781C51.6562 415.281 54.0625 418.719 58.5625 420.125L56.7812 422.844C53.5781 421.797 51.25 419.688 49.9688 417C48.6875 419.922 46.2969 422.25 42.9375 423.406L41.1562 420.656C45.6875 419.156 48.125 415.5 48.1562 411.781V410.969H42.0625V408.188H57.5938V410.969H51.6562V411.781ZM64.4688 406.062V426.562H60.9688V406.062H64.4688ZM65.25 430.906V433.719H45.7812V424.688H49.2812V430.906H65.25ZM92.89 406.031V422.812H89.4212V415.906H84.6087V413.062H89.4212V406.031H92.89ZM83.3275 423.531C89.3275 423.531 92.9837 425.5 92.9837 428.906C92.9837 432.312 89.3275 434.281 83.3275 434.281C77.3587 434.281 73.7025 432.312 73.7337 428.906C73.7025 425.5 77.3587 423.531 83.3275 423.531ZM83.3275 426.188C79.39 426.188 77.1712 427.125 77.1712 428.906C77.1712 430.656 79.39 431.594 83.3275 431.594C87.265 431.594 89.515 430.656 89.515 428.906C89.515 427.125 87.265 426.188 83.3275 426.188ZM79.6087 410.875C79.6087 414.312 81.89 417.781 86.265 419.25L84.515 422C81.3744 420.938 79.14 418.781 77.9212 416.125C76.6712 419.141 74.3119 421.547 70.9525 422.75L69.14 420C73.6712 418.438 76.0775 414.625 76.0775 410.906V410.688H70.2025V407.875H85.4525V410.688H79.6087V410.875ZM119.811 406.062V414.938H123.749V417.812H119.811V427.156H116.342V406.062H119.811ZM114.311 409.188V411.969H97.5612V409.188H104.217V406.031H107.686V409.188H114.311ZM105.936 413.125C109.999 413.125 112.811 415.281 112.842 418.531C112.811 421.75 109.999 423.875 105.936 423.875C101.842 423.875 98.9987 421.75 98.9987 418.531C98.9987 415.281 101.842 413.125 105.936 413.125ZM105.936 415.812C103.78 415.812 102.374 416.812 102.374 418.531C102.374 420.219 103.78 421.219 105.936 421.188C108.092 421.219 109.53 420.219 109.53 418.531C109.53 416.812 108.092 415.812 105.936 415.812ZM120.936 430.906V433.719H101.717V425.5H105.186V430.906H120.936ZM159.872 427.969V430.781H134.06V427.969H145.122V421.438H148.56V427.969H159.872ZM148.654 409.812C148.654 414.094 152.935 418.312 158.872 419.25L157.372 422.125C152.591 421.219 148.685 418.484 146.81 414.781C144.935 418.469 141.06 421.25 136.31 422.125L134.81 419.25C140.716 418.312 144.935 414.062 144.966 409.812V407.75H148.654V409.812ZM188.106 419.906V422.719H162.356V419.906H173.481V415.969H176.919V419.906H188.106ZM176.95 407.562C176.95 411 180.731 414.125 186.637 414.875L185.294 417.594C180.653 416.875 176.966 414.781 175.169 411.812C173.356 414.781 169.669 416.875 165.012 417.594L163.762 414.875C169.575 414.125 173.419 410.938 173.419 407.562V406.5H176.95V407.562ZM184.95 424.969V434.281H181.481V427.688H165.2V424.969H184.95ZM212.934 406.031V412.469H216.871V415.312H212.934V421.906H209.465V406.031H212.934ZM205.09 407.75C205.059 415.094 200.246 420.188 191.809 422.438L190.434 419.656C196.981 417.969 200.699 414.641 201.309 410.562H191.777V407.75H205.09ZM212.934 423.031V433.906H194.652V423.031H212.934ZM198.121 425.875V431.156H209.496V425.875H198.121ZM228.105 408C232.574 407.969 235.855 410.812 235.886 414.812C235.855 418.844 232.574 421.656 228.105 421.656C223.667 421.656 220.355 418.844 220.355 414.812C220.355 410.812 223.667 407.969 228.105 408ZM228.105 411C225.636 411 223.792 412.469 223.792 414.812C223.792 417.188 225.636 418.625 228.105 418.625C230.605 418.625 232.48 417.188 232.48 414.812C232.48 412.469 230.605 411 228.105 411ZM242.48 406.031V434.312H239.011V406.031H242.48ZM219.074 425.562C224.167 425.562 231.23 425.5 237.324 424.625L237.605 427.156C231.261 428.375 224.48 428.406 219.511 428.406L219.074 425.562ZM281.26 422.469V425.219H270.01V434.281H266.572V425.219H255.447V422.469H281.26ZM262.01 407.156V410.625H274.635V407.156H278.135V419.531H258.572V407.156H262.01ZM262.01 416.719H274.635V413.375H262.01V416.719ZM308.275 406.031V434.281H304.962V419.969H302.056V432.906H298.775V406.531H302.056V417.094H304.962V406.031H308.275ZM292.556 413.25C292.556 418.281 294.244 422.906 298.431 425.062L296.4 427.719C293.712 426.281 291.947 423.797 290.962 420.719C289.994 424.234 288.228 427.062 285.431 428.719L283.306 426.062C287.494 423.688 289.181 418.75 289.181 413.25V411.906H284.15V409.125H297.181V411.906H292.556V413.25ZM51.5938 468.062C51.5938 472.688 54.3125 477.562 58.875 479.469L56.9688 482.219C53.625 480.781 51.1875 477.812 49.9062 474.219C48.5938 478.094 46.125 481.344 42.8125 482.906L40.8125 480.188C45.2812 478.125 48.0625 472.875 48.0625 468.062V465.688H41.8438V462.812H57.7812V465.688H51.5938V468.062ZM64.4375 460.031V488.281H60.9375V460.031H64.4375ZM92.89 478.062V488.281H89.4212V480.812H73.64V478.062H92.89ZM92.89 460.031V476.719H89.4212V472.969H82.7962C81.4525 474.469 79.4212 475.375 77.0775 475.375C72.8275 475.375 69.6087 472.5 69.6087 468.438C69.6087 464.438 72.8275 461.562 77.0775 461.594C79.4056 461.578 81.4369 462.453 82.765 463.938H89.4212V460.031H92.89ZM77.0775 464.531C74.64 464.531 72.9212 466.094 72.9212 468.438C72.9212 470.875 74.64 472.406 77.0775 472.438C79.39 472.406 81.14 470.875 81.1712 468.438C81.14 466.094 79.39 464.531 77.0775 464.531ZM84.265 470.156H89.4212V466.781H84.2962C84.4056 467.312 84.4837 467.859 84.4837 468.438C84.4837 469.031 84.4056 469.609 84.265 470.156ZM120.201 462.812C120.17 471.344 117.67 478.656 107.545 483.875L105.639 481.219C110.326 478.797 113.248 475.984 114.92 472.625L106.264 473.438L105.764 470.469L116.014 469.844C116.389 468.516 116.623 467.109 116.732 465.625H107.232V462.812H120.201ZM129.42 460.031V488.281H125.951V473.906H120.139V471.062H125.951V460.031H129.42ZM159.841 475.969V478.781H153.779V488.375H150.31V478.781H143.716V488.375H140.216V478.781H134.029V475.969H159.841ZM156.685 461.469V472.688H137.185V461.469H156.685ZM140.591 464.219V469.906H153.216V464.219H140.591ZM185.919 460.031V488.281H182.481V460.031H185.919ZM167.419 462.781V478.219C171.387 478.156 175.606 477.797 179.95 476.938L180.387 479.844C175.419 480.875 170.794 481.188 166.419 481.188H163.981V462.781H167.419ZM206.434 462.469V465.312H195.715V470.344H205.309V473.094H195.715V478.906C200.34 478.891 203.871 478.734 207.934 478.062L208.277 480.875C203.84 481.562 199.871 481.719 194.652 481.719H192.277V462.469H206.434ZM214.246 460.031V488.281H210.746V460.031H214.246ZM228.105 462C232.574 461.969 235.855 464.812 235.886 468.812C235.855 472.844 232.574 475.656 228.105 475.656C223.667 475.656 220.355 472.844 220.355 468.812C220.355 464.812 223.667 461.969 228.105 462ZM228.105 465C225.636 465 223.792 466.469 223.792 468.812C223.792 471.188 225.636 472.625 228.105 472.625C230.605 472.625 232.48 471.188 232.48 468.812C232.48 466.469 230.605 465 228.105 465ZM242.48 460.031V488.312H239.011V460.031H242.48ZM219.074 479.562C224.167 479.562 231.23 479.5 237.324 478.625L237.605 481.156C231.261 482.375 224.48 482.406 219.511 482.406L219.074 479.562ZM263.916 461.781C268.26 461.781 271.572 464.594 271.604 468.594C271.572 472.047 269.135 474.594 265.697 475.25V479.406C268.041 479.297 270.401 479.109 272.604 478.812L272.854 481.406C266.947 482.469 260.479 482.5 255.635 482.438L255.135 479.594C257.26 479.594 259.697 479.594 262.229 479.531V475.25C258.682 474.656 256.229 472.094 256.26 468.594C256.229 464.594 259.479 461.781 263.916 461.781ZM263.916 464.719C261.447 464.75 259.635 466.219 259.635 468.594C259.635 470.969 261.447 472.469 263.916 472.438C266.354 472.469 268.166 470.969 268.166 468.594C268.166 466.219 266.354 464.75 263.916 464.719ZM277.697 460.031V471.312H281.791V474.25H277.697V488.281H274.229V460.031H277.697ZM297.556 464.531V467.312H283.712V464.531H288.962V460.844H292.4V464.531H297.556ZM290.681 468.812C294.275 468.812 296.837 471.531 296.837 475.375C296.837 479.281 294.275 482.031 290.681 482.031C287.119 482.031 284.494 479.281 284.525 475.375C284.494 471.531 287.119 468.812 290.681 468.812ZM290.681 471.688C288.837 471.688 287.556 473.156 287.587 475.375C287.556 477.656 288.837 479.094 290.681 479.062C292.494 479.094 293.775 477.656 293.775 475.375C293.775 473.156 292.494 471.688 290.681 471.688ZM308.056 460.031V488.281H304.744V474.469H301.994V487H298.744V460.625H301.994V471.656H304.744V460.031H308.056Z" fill="#8D92A2"/>
</svg>
