<svg width="410" height="560" viewBox="0 0 410 560" fill="none" xmlns="http://www.w3.org/2000/svg">
<rect width="410" height="560" rx="40" fill="#56AFDF"/>
<path d="M58.8906 67.8984V89.0859H56.3828V78.2109H54.1094V88.1016H51.6719V68.4609H54.1094V76.1016H56.3828V67.8984H58.8906ZM49.8672 70.5703C49.8672 76.2891 48.0625 81.2109 42.0391 84.6562L40.5391 82.8516C45.0508 80.2383 46.9609 76.8867 47.3359 72.6562H41.5234V70.5703H49.8672ZM79.5737 67.9219V83.2266H76.9487V67.9219H79.5737ZM80.1597 86.5547V88.6641H65.5581V81.6797H68.1831V86.5547H80.1597ZM68.0191 69.3047C71.23 69.3047 73.7144 71.5312 73.7144 74.6016C73.7144 77.7422 71.23 79.9219 68.0191 79.9219C64.7847 79.9219 62.3003 77.7422 62.3003 74.6016C62.3003 71.5312 64.7847 69.3047 68.0191 69.3047ZM68.0191 71.5781C66.2144 71.5781 64.8316 72.7734 64.855 74.6016C64.8316 76.4766 66.2144 77.6484 68.0191 77.6484C69.7769 77.6484 71.1597 76.4766 71.1597 74.6016C71.1597 72.7734 69.7769 71.5781 68.0191 71.5781ZM90.9287 71.5312C90.9287 74.1094 92.6397 76.7109 95.9209 77.8125L94.6084 79.8281C92.2412 79.0547 90.5655 77.4492 89.6397 75.4688C88.7139 77.6836 86.9444 79.4648 84.4366 80.2969L83.1006 78.2344C86.4756 77.1328 88.2803 74.3203 88.2803 71.5547V71.2734H83.8741V69.1875H95.3116V71.2734H90.9287V71.5312ZM100.89 81.5391V89.0859H98.2881V83.625H86.4522V81.5391H100.89ZM100.89 67.8984V80.5312H98.2881V75.2812H94.6787V73.1484H98.2881V67.8984H100.89ZM129.881 78.4922V80.5781H121.701V84.4688H119.123V80.5781H110.522V78.4922H129.881ZM127.397 68.8594V76.5234H112.982V68.8594H127.397ZM115.514 70.8984V74.4844H124.818V70.8984H115.514ZM127.748 86.5547V88.6641H112.865V82.5234H115.467V86.5547H127.748ZM150.002 67.8984V89.0859H147.517V67.8984H150.002ZM145.689 68.2969V88.0547H143.228V77.3906H140.181V75.2812H143.228V68.2969H145.689ZM138.306 73.6875C138.306 77.2734 139.595 80.8594 142.619 82.5938L141.072 84.5156C139.115 83.3438 137.814 81.3281 137.088 78.9141C136.338 81.5273 134.99 83.7539 132.986 85.0078L131.392 83.0625C134.463 81.2109 135.798 77.3672 135.798 73.6875V72.2812H132.119V70.1719H141.728V72.2812H138.306V73.6875Z" fill="white" fill-opacity="0.4"/>
<path d="M54.1016 151.68C54.0625 156.211 56.5625 160.273 62.3438 161.992L59.6875 165.859C55.8594 164.648 53.2031 162.246 51.6797 159.141C50.0977 162.695 47.2266 165.508 43.0078 166.875L40.4688 162.891C46.4453 161.055 49.0625 156.523 49.1016 151.797V149.414H54.1016V151.68ZM69.2578 148.047V155.117H74.0625V159.141H69.2578V166.914H64.2578V148.047H69.2578ZM55.5469 168.359V177.383H48.75V179.609C51.7383 179.609 53.7109 179.473 56.0938 179.023L56.5234 182.734C53.3984 183.359 50.8594 183.438 46.0156 183.398H43.8672V173.906H50.7422V171.992H43.8281V168.359H55.5469ZM69.2578 168.359V183.398H57.4219V168.359H69.2578ZM61.7188 171.992V179.805H64.9609V171.992H61.7188ZM87.9484 150.43C93.5734 150.391 97.7922 154.062 97.7922 159.141C97.7922 164.258 93.5734 167.891 87.9484 167.891C82.3234 167.891 78.0656 164.258 78.0656 159.141C78.0656 154.062 82.3234 150.391 87.9484 150.43ZM87.9484 154.727C85.1359 154.727 82.9875 156.367 83.0266 159.141C82.9875 161.953 85.1359 163.555 87.9484 163.555C90.7609 163.555 92.9094 161.953 92.9484 159.141C92.9094 156.367 90.8 154.727 87.9484 154.727ZM106.308 148.047V183.672H101.347V148.047H106.308ZM76.5812 172.344C82.9094 172.383 91.6984 172.266 99.3156 171.211L99.7062 174.805C91.8156 176.328 83.3781 176.406 77.1672 176.406L76.5812 172.344ZM138.377 169.805C145.759 169.805 150.369 172.344 150.369 176.68C150.369 181.094 145.759 183.633 138.377 183.633C130.838 183.633 126.189 181.094 126.189 176.68C126.189 172.344 130.838 169.805 138.377 169.805ZM138.377 173.672C133.689 173.672 131.15 174.648 131.189 176.68C131.15 178.711 133.689 179.766 138.377 179.766C142.986 179.766 145.447 178.711 145.447 176.68C145.447 174.648 142.986 173.672 138.377 173.672ZM150.017 148.047V156.289H154.822V160.469H150.017V169.023H145.017V148.047H150.017ZM127.83 150.273V154.766H135.095V150.273H140.095V166.992H122.869V150.273H127.83ZM127.83 163.047H135.095V158.633H127.83V163.047ZM170.817 153.086C170.778 157.539 173.317 161.836 179.177 163.594L176.677 167.5C172.634 166.211 169.841 163.691 168.239 160.43C166.637 163.945 163.747 166.699 159.567 168.047L157.067 164.141C163.005 162.227 165.622 157.617 165.622 153.086V149.688H170.817V153.086ZM186.95 170.781V183.594H181.95V174.766H162.497V170.781H186.95ZM186.95 148.047V169.258H181.95V148.047H186.95ZM223.375 148.047V183.594H218.609V148.047H223.375ZM215.953 148.555V181.953H211.266V165.156H208.414C207.945 172.148 204.977 176.367 200.602 176.367C195.914 176.367 192.867 171.445 192.867 163.438C192.867 155.469 195.914 150.586 200.602 150.586C204.879 150.586 207.809 154.57 208.375 161.211H211.266V148.555H215.953ZM200.602 155.273C198.609 155.273 197.438 158.008 197.477 163.438C197.438 168.906 198.609 171.602 200.602 171.562C202.633 171.602 203.844 168.906 203.844 163.438C203.844 158.008 202.633 155.273 200.602 155.273ZM71.7969 208.047V243.594H67.0703V225.742H63.6328V241.875H59.0625V208.633H63.6328V221.758H67.0703V208.047H71.7969ZM55.3125 212.148V216.172H47.0703V231.328C50.5078 231.309 53.5547 231.133 56.9922 230.508L57.3438 234.57C53.0078 235.391 49.2188 235.508 44.5312 235.547H42.0703V212.148H55.3125ZM104.628 208.086V218.984H109.433V223.047H104.628V234.609H99.6281V208.086H104.628ZM97.5187 211.797V215.742H76.425V211.797H84.5109V208.008H89.4719V211.797H97.5187ZM86.9719 216.992C92.1281 216.992 95.7219 219.766 95.7219 223.867C95.7219 227.969 92.1281 230.664 86.9719 230.664C81.7766 230.664 78.1437 227.969 78.1437 223.867C78.1437 219.766 81.7766 216.992 86.9719 216.992ZM86.9719 220.781C84.5891 220.82 82.9875 221.914 83.0266 223.867C82.9875 225.82 84.5891 226.875 86.9719 226.875C89.3547 226.875 90.9953 225.82 90.9953 223.867C90.9953 221.914 89.3547 220.82 86.9719 220.781ZM105.917 238.984V242.969H81.5812V232.578H86.5422V238.984H105.917ZM150.017 208.047V215.117H154.822V219.258H150.017V225.82H145.017V208.047H150.017ZM140.291 209.336C140.291 218.867 134.197 224.57 123.455 226.797L121.619 222.695C130.017 221.113 134.08 217.5 134.705 213.359H123.416V209.336H140.291ZM150.017 227.188V236.992H131.384V239.297H151.033V243.242H126.502V233.281H145.056V231.133H126.423V227.188H150.017ZM189.606 224.414V228.438H157.184V224.414H189.606ZM173.356 230.43C181.052 230.43 185.7 232.852 185.739 237.031C185.7 241.25 181.052 243.594 173.356 243.594C165.583 243.594 160.895 241.25 160.895 237.031C160.895 232.852 165.583 230.43 173.356 230.43ZM173.356 234.297C168.434 234.297 165.934 235.156 165.973 237.031C165.934 238.867 168.434 239.727 173.356 239.727C178.161 239.727 180.7 238.867 180.739 237.031C180.7 235.156 178.161 234.297 173.356 234.297ZM186.677 209.688V213.672H176.989C177.79 216.152 181.403 218.613 188.239 219.219L186.481 223.125C179.782 222.48 175.251 219.941 173.356 216.484C171.481 219.941 167.028 222.48 160.27 223.125L158.63 219.219C165.309 218.613 168.962 216.172 169.802 213.672H160.153V209.688H186.677Z" fill="white"/>
<path d="M58.6562 406.781V409.344H41.9375V406.781H48.5312V404.375H52V406.781H58.6562ZM50.3125 410.156C54.4375 410.125 57.25 411.781 57.25 414.406C57.25 416.625 55.1875 418.109 52 418.5V420C54.3906 419.891 56.7812 419.688 59.0312 419.406L59.2812 421.781C53.2188 422.812 46.5312 422.906 41.5312 422.906L41.0625 420.219C43.3125 420.234 45.875 420.219 48.5312 420.125V418.469C45.3281 418.094 43.3125 416.609 43.3438 414.406C43.3125 411.781 46.0938 410.125 50.3125 410.156ZM50.3125 412.5C48.0938 412.469 46.6562 413.156 46.6875 414.406C46.6562 415.562 48.0938 416.25 50.3125 416.219C52.4688 416.25 53.9062 415.562 53.9375 414.406C53.9062 413.156 52.4688 412.469 50.3125 412.5ZM64.5 404.594V423.594H61V404.594H64.5ZM64.5 424.75V432.781H61V427.469H45.0625V424.75H64.5ZM77.2337 405.438C81.515 405.438 84.7025 408.094 84.7337 411.812C84.7025 415.562 81.515 418.188 77.2337 418.188C72.9212 418.188 69.7337 415.562 69.7337 411.812C69.7337 408.094 72.9212 405.438 77.2337 405.438ZM77.2337 408.312C74.8587 408.312 73.1087 409.656 73.1087 411.812C73.1087 414 74.8587 415.375 77.2337 415.375C79.6087 415.375 81.3587 414 81.3587 411.812C81.3587 409.656 79.6087 408.312 77.2337 408.312ZM92.765 404.531V418.812H89.265V404.531H92.765ZM92.765 420.031V427.406H77.4837V429.688H93.6087V432.438H74.0775V424.844H89.2962V422.75H74.015V420.031H92.765ZM119.874 404.531V416.188H123.842V419.094H119.874V432.781H116.374V404.531H119.874ZM97.1862 424.938C99.3269 424.938 101.811 424.938 104.405 424.875V422.219C101.327 421.703 99.3112 419.766 99.3425 417.125C99.3112 413.938 102.124 411.812 106.186 411.812C110.186 411.812 113.03 413.938 113.061 417.125C113.03 419.781 110.983 421.719 107.905 422.219V424.75C110.28 424.625 112.655 424.438 114.874 424.125L115.092 426.656C109.03 427.75 102.499 427.812 97.6862 427.812L97.1862 424.938ZM114.561 407.781V410.531H97.7175V407.781H104.405V404.656H107.905V407.781H114.561ZM106.186 414.469C104.03 414.5 102.624 415.469 102.624 417.125C102.624 418.75 104.03 419.719 106.186 419.688C108.311 419.719 109.717 418.75 109.717 417.125C109.717 415.469 108.311 414.5 106.186 414.469ZM142.264 413.406V416.188H137.014V419.375C139.373 419.281 141.717 419.125 143.92 418.906L144.17 421.406C138.17 422.25 131.67 422.406 126.42 422.406L125.951 419.625C128.279 419.609 130.857 419.594 133.514 419.5V416.188H128.389V406.281H142.045V409.094H131.889V413.406H142.264ZM149.389 404.531V425.75H145.889V404.531H149.389ZM150.201 429.406V432.219H130.451V424.188H133.951V429.406H150.201ZM172.419 407.625C172.387 411.312 174.669 414.562 179.137 415.938L177.262 418.625C174.169 417.594 171.981 415.594 170.762 413C169.512 416 167.137 418.328 163.762 419.469L161.981 416.688C166.575 415.219 168.919 411.594 168.95 407.688V405.656H172.419V407.625ZM184.637 404.531V410.344H188.575V413.188H184.637V419.562H181.169V404.531H184.637ZM173.825 420.781V427.719H168.075V429.938C170.653 429.906 172.309 429.828 174.325 429.438L174.637 432.062C172.106 432.562 170.075 432.594 166.294 432.594H164.669V425.25H170.481V423.375H164.637V420.781H173.825ZM184.637 420.781V432.594H175.419V420.781H184.637ZM178.45 423.344V430.031H181.637V423.344H178.45ZM199.809 406.5C204.277 406.469 207.559 409.312 207.59 413.312C207.559 417.344 204.277 420.156 199.809 420.156C195.371 420.156 192.059 417.344 192.059 413.312C192.059 409.312 195.371 406.469 199.809 406.5ZM199.809 409.5C197.34 409.5 195.496 410.969 195.496 413.312C195.496 415.688 197.34 417.125 199.809 417.125C202.309 417.125 204.184 415.688 204.184 413.312C204.184 410.969 202.309 409.5 199.809 409.5ZM214.184 404.531V432.812H210.715V404.531H214.184ZM190.777 424.062C195.871 424.062 202.934 424 209.027 423.125L209.309 425.656C202.965 426.875 196.184 426.906 191.215 426.906L190.777 424.062ZM241.557 405.75V408.531H231.807V410.719H240.995V413.344H231.807V415.719C236.839 415.703 239.807 415.609 243.339 415.094L243.651 417.781C239.776 418.406 236.464 418.5 230.589 418.5H228.339V405.75H241.557ZM249.464 404.531V410.312H253.401V413.125H249.464V419.125H245.995V404.531H249.464ZM249.464 420.344V427.594H234.464V429.844H250.339V432.531H231.026V425.062H245.995V423.062H230.995V420.344H249.464ZM281.166 416.75V419.312H270.041V421.375H278.01V428H261.947V429.938H278.791V432.531H258.541V425.625H274.604V423.875H258.51V421.375H266.604V419.312H255.541V416.75H281.166ZM270.041 404.469V406.844H278.697V409.438H270.416C271.088 411.438 274.369 412.938 280.01 413.219L278.979 415.812C273.916 415.5 270.104 414.125 268.322 411.844C266.541 414.125 262.744 415.5 257.635 415.812L256.666 413.219C262.244 412.938 265.526 411.438 266.26 409.438H258.01V406.844H266.604V404.469H270.041ZM304.852 405.062C311.102 405.062 315.009 407.156 315.04 410.562C315.024 412.453 313.806 413.938 311.665 414.875V418.594H317.759V421.375H292.009V418.594H298.009V414.844C295.884 413.906 294.665 412.438 294.665 410.562C294.665 407.156 298.665 405.062 304.852 405.062ZM304.852 407.781C300.727 407.781 298.259 408.719 298.29 410.562C298.259 412.344 300.727 413.344 304.852 413.344C308.977 413.344 311.446 412.344 311.446 410.562C311.446 408.719 308.977 407.781 304.852 407.781ZM314.602 423.562V432.781H311.134V426.312H294.852V423.562H314.602ZM301.509 418.594H308.196V415.812C307.181 415.953 306.056 416.031 304.852 416.031C303.649 416.031 302.524 415.953 301.509 415.781V418.594ZM342.899 406.25V408.781C342.899 411.422 342.899 414.312 342.149 418.312H346.055V421.125H334.836V432.812H331.336V421.125H320.305V418.312H338.617C339.399 414.469 339.43 411.594 339.43 409.062H323.336V406.25H342.899ZM41.1875 470.125L43.8125 461.375H46.7812L45.1562 470.125H41.1875ZM73.2025 458.531V475.312H69.7338V468.406H64.9213V465.562H69.7338V458.531H73.2025ZM63.64 476.031C69.64 476.031 73.2963 478 73.2963 481.406C73.2963 484.812 69.64 486.781 63.64 486.781C57.6713 486.781 54.015 484.812 54.0463 481.406C54.015 478 57.6713 476.031 63.64 476.031ZM63.64 478.688C59.7025 478.688 57.4838 479.625 57.4838 481.406C57.4838 483.156 59.7025 484.094 63.64 484.094C67.5775 484.094 69.8275 483.156 69.8275 481.406C69.8275 479.625 67.5775 478.688 63.64 478.688ZM59.9213 463.375C59.9213 466.812 62.2025 470.281 66.5775 471.75L64.8275 474.5C61.6869 473.438 59.4525 471.281 58.2338 468.625C56.9838 471.641 54.6244 474.047 51.265 475.25L49.4525 472.5C53.9838 470.938 56.39 467.125 56.39 463.406V463.188H50.515V460.375H65.765V463.188H59.9213V463.375ZM88.28 465.312C88.28 470.562 90.78 475.719 95.28 477.688L93.1862 480.469C89.9831 478.906 87.7331 475.906 86.53 472.219C85.2956 476.109 82.9987 479.344 79.7487 481L77.5612 478.188C82.155 476.031 84.7175 470.594 84.7487 465.312V460.812H88.28V465.312ZM101.53 458.531V486.812H98.0925V470.469H92.155V467.656H98.0925V458.531H101.53ZM116.514 463.375C116.514 466.812 118.795 470.281 123.17 471.75L121.42 474.438C118.264 473.406 116.029 471.266 114.795 468.625C113.561 471.578 111.201 473.953 107.857 475.062L106.076 472.312C110.576 470.844 112.982 467.094 112.982 463.406V463.031H107.107V460.25H122.357V463.031H116.514V463.375ZM129.795 476.719V486.781H126.326V479.5H110.545V476.719H129.795ZM129.795 458.531V475.375H126.326V468.375H121.514V465.531H126.326V458.531H129.795ZM165.731 461.125V463.844C165.7 467.344 165.7 471.281 164.606 477.188L161.106 476.812C162.2 471.312 162.2 467.297 162.231 463.906H145.356V461.125H165.731ZM168.419 480.281V483.125H142.669V480.281H152.169V470.469H155.606V480.281H168.419ZM197.09 462.938V465.781H193.246V469H197.09V471.844H193.246V476.562H189.777V458.531H193.246V462.938H197.09ZM184.121 476.812C189.902 476.812 193.559 478.656 193.559 481.781C193.559 484.875 189.902 486.75 184.121 486.75C178.246 486.75 174.652 484.875 174.684 481.781C174.652 478.656 178.246 476.812 184.121 476.812ZM184.121 479.469C180.246 479.469 178.09 480.219 178.121 481.781C178.09 483.281 180.246 484.125 184.121 484.125C187.934 484.125 190.09 483.281 190.09 481.781C190.09 480.219 187.934 479.469 184.121 479.469ZM187.746 461.406V464.125H170.996V461.406H177.652V458.344H181.121V461.406H187.746ZM179.371 465.25C183.465 465.25 186.246 467.281 186.277 470.312C186.246 473.344 183.465 475.344 179.371 475.344C175.246 475.344 172.434 473.344 172.434 470.312C172.434 467.281 175.246 465.25 179.371 465.25ZM179.371 467.812C177.215 467.812 175.809 468.75 175.809 470.312C175.809 471.844 177.215 472.719 179.371 472.719C181.527 472.719 182.965 471.844 182.965 470.312C182.965 468.75 181.527 467.812 179.371 467.812ZM205.105 461.406L202.48 470.156H199.511L201.136 461.406H205.105ZM217.026 460.5C221.495 460.469 224.776 463.312 224.807 467.312C224.776 471.344 221.495 474.156 217.026 474.156C212.589 474.156 209.276 471.344 209.276 467.312C209.276 463.312 212.589 460.469 217.026 460.5ZM217.026 463.5C214.557 463.5 212.714 464.969 212.714 467.312C212.714 469.688 214.557 471.125 217.026 471.125C219.526 471.125 221.401 469.688 221.401 467.312C221.401 464.969 219.526 463.5 217.026 463.5ZM231.401 458.531V486.812H227.932V458.531H231.401ZM207.995 478.062C213.089 478.062 220.151 478 226.245 477.125L226.526 479.656C220.182 480.875 213.401 480.906 208.432 480.906L207.995 478.062ZM254.4 463.031C254.4 466.594 256.712 469.938 261.056 471.312L259.181 474.031C256.134 473 253.947 470.938 252.744 468.312C251.494 471.312 249.212 473.672 245.962 474.812L244.087 472.094C248.65 470.5 250.9 466.75 250.931 462.719V460.031H254.4V463.031ZM266.681 458.531V465.406H270.619V468.281H266.681V475.438H263.212V458.531H266.681ZM257.494 476.062C263.337 476.031 266.931 478.031 266.962 481.375C266.931 484.781 263.337 486.75 257.494 486.75C251.587 486.75 247.931 484.781 247.931 481.375C247.931 478.031 251.587 476.031 257.494 476.062ZM257.494 478.781C253.619 478.781 251.4 479.719 251.4 481.375C251.4 483.125 253.619 484 257.494 484C261.369 484 263.525 483.125 263.525 481.375C263.525 479.719 261.369 478.781 257.494 478.781ZM296.165 458.531V472.938H292.727V458.531H296.165ZM296.227 474.25V481.594H280.946V483.781H297.071V486.531H277.54V479H292.759V476.938H277.477V474.25H296.227ZM283.227 461.406C283.227 465 285.602 468.375 290.071 469.719L288.384 472.406C285.102 471.406 282.759 469.297 281.477 466.594C280.196 469.531 277.79 471.828 274.415 472.906L272.665 470.188C277.227 468.719 279.634 465.094 279.634 461.406V459.219H283.227V461.406Z" fill="white"/>
</svg>
