<svg width="1920" height="662" viewBox="0 0 1920 662" fill="none" xmlns="http://www.w3.org/2000/svg">
<g clip-path="url(#clip0_2604_286)">
<rect width="1920" height="662" fill="white"/>
<rect width="960" height="497" fill="#56AFDF"/>
<path d="M21.1562 469V457.688H25.1875C27.8125 457.688 29.1094 459.266 29.1094 461.359C29.1094 463.438 27.8125 465.031 25.1875 465.031H22.875V469H21.1562ZM22.875 463.562H25.0156C26.6875 463.562 27.375 462.625 27.375 461.359C27.375 460.078 26.6875 459.156 25.0156 459.156H22.875V463.562ZM31.1012 469V460.516H32.7106V461.859H32.8044C33.1169 460.953 33.9606 460.391 34.9606 460.391C35.1637 460.391 35.4919 460.406 35.6637 460.422V462.016C35.5231 461.984 35.1325 461.922 34.7887 461.922C33.6325 461.922 32.7731 462.719 32.7731 463.828V469H31.1012ZM40.5463 469.172C38.14 469.172 36.5775 467.422 36.5775 464.797C36.5775 462.156 38.14 460.406 40.5463 460.406C42.9369 460.406 44.4994 462.156 44.4994 464.797C44.4994 467.422 42.9369 469.172 40.5463 469.172ZM40.5463 467.781C42.0775 467.781 42.8119 466.422 42.8119 464.797C42.8119 463.172 42.0775 461.781 40.5463 461.781C38.9838 461.781 38.2494 463.172 38.2494 464.797C38.2494 466.422 38.9838 467.781 40.5463 467.781ZM46.46 460.516H48.1319V469.547C48.1319 471.266 47.1787 472.188 45.4287 472.188C45.3194 472.188 45.21 472.188 45.085 472.172V470.75H45.3506C46.1319 470.75 46.46 470.312 46.46 469.531V460.516ZM47.2881 459.203C46.71 459.203 46.2256 458.766 46.2256 458.219C46.2256 457.672 46.71 457.234 47.2881 457.234C47.8506 457.234 48.335 457.672 48.335 458.219C48.335 458.766 47.8506 459.203 47.2881 459.203ZM54.1394 469.172C51.6394 469.172 50.1081 467.453 50.1081 464.812C50.1081 462.203 51.6706 460.406 54.03 460.406C55.9675 460.406 57.7956 461.609 57.7956 464.672V465.266H51.7644C51.8113 466.875 52.7566 467.797 54.155 467.797C55.1081 467.797 55.7175 467.391 55.9988 466.875H57.6863C57.3113 468.25 55.9988 469.172 54.1394 469.172ZM51.78 464.016H56.155C56.155 462.719 55.3269 461.781 54.0456 461.781C52.7097 461.781 51.8425 462.812 51.78 464.016ZM63.3656 469.172C60.8969 469.172 59.3969 467.344 59.3969 464.797C59.3969 462.203 60.9437 460.406 63.3344 460.406C65.2719 460.406 66.6781 461.547 66.85 463.266H65.225C65.0531 462.469 64.4125 461.797 63.3656 461.797C61.9906 461.797 61.0687 462.938 61.0687 464.75C61.0687 466.609 61.975 467.75 63.3656 467.75C64.3031 467.75 65.0219 467.234 65.225 466.312H66.85C66.6625 467.953 65.3656 469.172 63.3656 469.172ZM72.7169 460.516V461.844H70.9825V466.5C70.9825 467.453 71.4669 467.625 71.9981 467.641C72.2325 467.641 72.6075 467.609 72.8419 467.594V469.047C72.6075 469.078 72.2481 469.109 71.795 469.109C70.4825 469.109 69.3106 468.391 69.3262 466.844V461.844H68.0762V460.516H69.3262V458.484H70.9825V460.516H72.7169ZM74.99 469V457.688H76.7088V462.594H82.3338V457.688H84.0525V469H82.3338V464.062H76.7088V469H74.99ZM87.6381 469.109C87.0287 469.109 86.5131 468.609 86.5287 468C86.5131 467.391 87.0287 466.891 87.6381 466.891C88.2319 466.891 88.7475 467.391 88.7475 468C88.7475 468.609 88.2319 469.109 87.6381 469.109ZM95.2625 469V457.688H99.4031C101.809 457.688 102.981 458.984 102.981 460.656C102.981 462.062 102.122 462.781 101.075 463.047V463.156C102.2 463.219 103.419 464.203 103.419 465.953C103.419 467.688 102.231 469 99.5906 469H95.2625ZM99.4344 467.531C101.059 467.531 101.716 466.812 101.716 465.875C101.716 464.797 100.856 463.922 99.4969 463.922H96.9812V467.531H99.4344ZM99.2625 462.578C100.403 462.578 101.294 461.875 101.294 460.797C101.294 459.859 100.653 459.156 99.2937 459.156H96.9812V462.578H99.2625ZM107.114 457.688V469H105.442V457.688H107.114ZM114.856 465.469V460.516H116.512V469H114.887V467.531H114.793C114.402 468.438 113.527 469.109 112.262 469.109C110.621 469.109 109.465 468.016 109.465 465.906V460.516H111.137V465.703C111.137 466.859 111.84 467.594 112.856 467.594C113.777 467.594 114.856 466.922 114.856 465.469ZM122.519 469.172C120.019 469.172 118.488 467.453 118.488 464.812C118.488 462.203 120.051 460.406 122.41 460.406C124.348 460.406 126.176 461.609 126.176 464.672V465.266H120.144C120.191 466.875 121.137 467.797 122.535 467.797C123.488 467.797 124.098 467.391 124.379 466.875H126.066C125.691 468.25 124.379 469.172 122.519 469.172ZM120.16 464.016H124.535C124.535 462.719 123.707 461.781 122.426 461.781C121.09 461.781 120.223 462.812 120.16 464.016Z" fill="white"/>
<path d="M874.25 469L874.75 465.969H872.109L871.609 469H870.266L870.766 465.969H869.141L869.344 464.641H870.984L871.406 462.047H869.797L870 460.703H871.641L872.125 457.688H873.469L872.984 460.703H875.625L876.109 457.688H877.438L876.953 460.703H878.594L878.375 462.047H876.734L876.312 464.641H877.938L877.703 465.969H876.094L875.594 469H874.25ZM872.328 464.641H874.969L875.391 462.047H872.75L872.328 464.641ZM883.882 469.156C881.742 469.156 880.132 467.844 880.054 466.047H881.726C881.82 467.016 882.742 467.719 883.882 467.719C885.257 467.719 886.242 466.719 886.242 465.375C886.242 464 885.226 463 883.804 462.984C882.898 462.984 882.211 463.281 881.82 463.984H880.195L880.929 457.688H887.336V459.156H882.351L881.976 462.328H882.086C882.554 461.875 883.351 461.562 884.211 461.562C886.336 461.562 887.914 463.141 887.914 465.328C887.914 467.562 886.242 469.156 883.882 469.156ZM894.156 469.156C892.062 469.141 889.874 467.906 889.874 463.719C889.874 459.781 891.577 457.531 894.296 457.531C896.374 457.531 897.827 458.828 898.093 460.625H896.39C896.171 459.703 895.437 459.031 894.296 459.031C892.546 459.031 891.531 460.562 891.531 463.109H891.656C892.265 462.156 893.327 461.578 894.562 461.578C896.577 461.578 898.202 463.125 898.202 465.297C898.202 467.484 896.593 469.172 894.156 469.156ZM894.14 467.719C895.515 467.719 896.531 466.656 896.531 465.328C896.531 464.031 895.546 462.984 894.187 462.984C892.796 462.984 891.749 464.078 891.734 465.344C891.749 466.594 892.749 467.719 894.14 467.719ZM901.476 469H899.647L903.71 457.688H905.694L909.772 469H907.944L906.913 466.016H902.507L901.476 469ZM903.007 464.578H906.413L904.741 459.75H904.663L903.007 464.578ZM911.53 469V457.688H918.546V459.172H913.249V462.594H918.046V464.062H913.249V469H911.53ZM924.459 469H920.787V457.688H924.569C927.897 457.688 929.897 459.812 929.897 463.328C929.897 466.859 927.897 469 924.459 469ZM922.506 467.5H924.366C926.928 467.5 928.194 466 928.194 463.328C928.194 460.672 926.928 459.188 924.459 459.188H922.506V467.5ZM932.154 469V457.688H939.17V459.172H933.873V462.594H938.67V464.062H933.873V469H932.154Z" fill="white"/>
<rect width="960" height="497" transform="translate(960)" fill="#FDB666"/>
<path d="M981.156 469V457.688H985.188C987.812 457.688 989.109 459.266 989.109 461.359C989.109 463.438 987.812 465.031 985.188 465.031H982.875V469H981.156ZM982.875 463.562H985.016C986.688 463.562 987.375 462.625 987.375 461.359C987.375 460.078 986.688 459.156 985.016 459.156H982.875V463.562ZM991.101 469V460.516H992.711V461.859H992.804C993.117 460.953 993.961 460.391 994.961 460.391C995.164 460.391 995.492 460.406 995.664 460.422V462.016C995.523 461.984 995.132 461.922 994.789 461.922C993.632 461.922 992.773 462.719 992.773 463.828V469H991.101ZM1000.55 469.172C998.14 469.172 996.578 467.422 996.578 464.797C996.578 462.156 998.14 460.406 1000.55 460.406C1002.94 460.406 1004.5 462.156 1004.5 464.797C1004.5 467.422 1002.94 469.172 1000.55 469.172ZM1000.55 467.781C1002.08 467.781 1002.81 466.422 1002.81 464.797C1002.81 463.172 1002.08 461.781 1000.55 461.781C998.984 461.781 998.249 463.172 998.249 464.797C998.249 466.422 998.984 467.781 1000.55 467.781ZM1006.46 460.516H1008.13V469.547C1008.13 471.266 1007.18 472.188 1005.43 472.188C1005.32 472.188 1005.21 472.188 1005.08 472.172V470.75H1005.35C1006.13 470.75 1006.46 470.312 1006.46 469.531V460.516ZM1007.29 459.203C1006.71 459.203 1006.23 458.766 1006.23 458.219C1006.23 457.672 1006.71 457.234 1007.29 457.234C1007.85 457.234 1008.33 457.672 1008.33 458.219C1008.33 458.766 1007.85 459.203 1007.29 459.203ZM1014.14 469.172C1011.64 469.172 1010.11 467.453 1010.11 464.812C1010.11 462.203 1011.67 460.406 1014.03 460.406C1015.97 460.406 1017.8 461.609 1017.8 464.672V465.266H1011.76C1011.81 466.875 1012.76 467.797 1014.16 467.797C1015.11 467.797 1015.72 467.391 1016 466.875H1017.69C1017.31 468.25 1016 469.172 1014.14 469.172ZM1011.78 464.016H1016.16C1016.16 462.719 1015.33 461.781 1014.05 461.781C1012.71 461.781 1011.84 462.812 1011.78 464.016ZM1023.37 469.172C1020.9 469.172 1019.4 467.344 1019.4 464.797C1019.4 462.203 1020.94 460.406 1023.33 460.406C1025.27 460.406 1026.68 461.547 1026.85 463.266H1025.22C1025.05 462.469 1024.41 461.797 1023.37 461.797C1021.99 461.797 1021.07 462.938 1021.07 464.75C1021.07 466.609 1021.97 467.75 1023.37 467.75C1024.3 467.75 1025.02 467.234 1025.22 466.312H1026.85C1026.66 467.953 1025.37 469.172 1023.37 469.172ZM1032.72 460.516V461.844H1030.98V466.5C1030.98 467.453 1031.47 467.625 1032 467.641C1032.23 467.641 1032.61 467.609 1032.84 467.594V469.047C1032.61 469.078 1032.25 469.109 1031.79 469.109C1030.48 469.109 1029.31 468.391 1029.33 466.844V461.844H1028.08V460.516H1029.33V458.484H1030.98V460.516H1032.72ZM1034.99 469V457.688H1036.71V462.594H1042.33V457.688H1044.05V469H1042.33V464.062H1036.71V469H1034.99ZM1047.64 469.109C1047.03 469.109 1046.51 468.609 1046.53 468C1046.51 467.391 1047.03 466.891 1047.64 466.891C1048.23 466.891 1048.75 467.391 1048.75 468C1048.75 468.609 1048.23 469.109 1047.64 469.109ZM1065.09 463.344C1065.09 466.953 1062.92 469.156 1060 469.156C1057.04 469.156 1054.89 466.953 1054.89 463.344C1054.89 459.719 1057.04 457.531 1060 457.531C1062.92 457.531 1065.09 459.719 1065.09 463.344ZM1063.39 463.344C1063.39 460.594 1061.93 459.109 1060 459.109C1058.04 459.109 1056.59 460.594 1056.59 463.344C1056.59 466.094 1058.04 467.578 1060 467.578C1061.93 467.578 1063.39 466.094 1063.39 463.344ZM1067.21 469V460.516H1068.82V461.859H1068.91C1069.22 460.953 1070.07 460.391 1071.07 460.391C1071.27 460.391 1071.6 460.406 1071.77 460.422V462.016C1071.63 461.984 1071.24 461.922 1070.89 461.922C1069.74 461.922 1068.88 462.719 1068.88 463.828V469H1067.21ZM1072.86 466.609C1072.86 464.672 1074.5 464.172 1076.03 464.062C1076.59 464.023 1077.86 463.953 1078.26 463.938L1078.25 463.266C1078.25 462.312 1077.67 461.75 1076.53 461.75C1075.54 461.75 1074.95 462.203 1074.78 462.828H1073.12C1073.28 461.422 1074.59 460.406 1076.59 460.406C1077.93 460.406 1079.92 460.906 1079.92 463.359V469H1078.29V467.844H1078.23C1077.9 468.484 1077.12 469.188 1075.71 469.188C1074.11 469.188 1072.86 468.266 1072.86 466.609ZM1074.48 466.625C1074.48 467.438 1075.15 467.859 1076.09 467.859C1077.45 467.859 1078.26 466.953 1078.26 465.938V465.156L1076.26 465.297C1075.17 465.375 1074.48 465.781 1074.48 466.625ZM1083.93 463.969V469H1082.25V460.516H1083.86V461.906H1083.96C1084.36 461 1085.19 460.406 1086.46 460.406C1088.21 460.406 1089.35 461.5 1089.35 463.609V469H1087.69V463.812C1087.69 462.578 1087.02 461.844 1085.89 461.844C1084.75 461.844 1083.93 462.609 1083.93 463.969ZM1095.26 472.359C1093.12 472.359 1091.71 471.406 1091.56 469.828H1093.26C1093.42 470.625 1094.17 471.016 1095.28 471.016C1096.61 471.016 1097.45 470.453 1097.45 469.125V467.453H1097.34C1097.04 468 1096.43 468.875 1094.87 468.875C1092.87 468.875 1091.32 467.375 1091.32 464.672C1091.32 461.969 1092.84 460.406 1094.89 460.406C1096.46 460.406 1097.04 461.359 1097.36 461.891H1097.46V460.516H1099.09V469.188C1099.09 471.359 1097.45 472.359 1095.26 472.359ZM1095.25 467.5C1096.67 467.5 1097.46 466.453 1097.46 464.703C1097.46 462.984 1096.68 461.828 1095.25 461.828C1093.76 461.828 1093.03 463.078 1093.03 464.703C1093.03 466.359 1093.79 467.5 1095.25 467.5ZM1105.1 469.172C1102.6 469.172 1101.07 467.453 1101.07 464.812C1101.07 462.203 1102.63 460.406 1104.99 460.406C1106.93 460.406 1108.75 461.609 1108.75 464.672V465.266H1102.72C1102.77 466.875 1103.71 467.797 1105.11 467.797C1106.07 467.797 1106.68 467.391 1106.96 466.875H1108.64C1108.27 468.25 1106.96 469.172 1105.1 469.172ZM1102.74 464.016H1107.11C1107.11 462.719 1106.28 461.781 1105 461.781C1103.67 461.781 1102.8 462.812 1102.74 464.016Z" fill="white"/>
<path d="M1833.25 469L1833.75 465.969H1831.11L1830.61 469H1829.27L1829.77 465.969H1828.14L1828.34 464.641H1829.98L1830.41 462.047H1828.8L1829 460.703H1830.64L1831.12 457.688H1832.47L1831.98 460.703H1834.62L1835.11 457.688H1836.44L1835.95 460.703H1837.59L1837.38 462.047H1835.73L1835.31 464.641H1836.94L1836.7 465.969H1835.09L1834.59 469H1833.25ZM1831.33 464.641H1833.97L1834.39 462.047H1831.75L1831.33 464.641ZM1839.19 469V457.688H1846.21V459.172H1840.91V462.594H1845.71V464.062H1840.91V469H1839.19ZM1852.12 469H1848.45V457.688H1852.23C1855.56 457.688 1857.56 459.812 1857.56 463.328C1857.56 466.859 1855.56 469 1852.12 469ZM1850.17 467.5H1852.03C1854.59 467.5 1855.86 466 1855.86 463.328C1855.86 460.672 1854.59 459.188 1852.12 459.188H1850.17V467.5ZM1859.82 469V457.688H1863.96C1866.37 457.688 1867.54 458.984 1867.54 460.656C1867.54 462.062 1866.68 462.781 1865.63 463.047V463.156C1866.76 463.219 1867.98 464.203 1867.98 465.953C1867.98 467.688 1866.79 469 1864.15 469H1859.82ZM1863.99 467.531C1865.62 467.531 1866.27 466.812 1866.27 465.875C1866.27 464.797 1865.41 463.922 1864.05 463.922H1861.54V467.531H1863.99ZM1863.82 462.578C1864.96 462.578 1865.85 461.875 1865.85 460.797C1865.85 459.859 1865.21 459.156 1863.85 459.156H1861.54V462.578H1863.82ZM1874.08 469.156C1871.98 469.141 1869.8 467.906 1869.8 463.719C1869.8 459.781 1871.5 457.531 1874.22 457.531C1876.3 457.531 1877.75 458.828 1878.01 460.625H1876.31C1876.09 459.703 1875.36 459.031 1874.22 459.031C1872.47 459.031 1871.45 460.562 1871.45 463.109H1871.58C1872.19 462.156 1873.25 461.578 1874.48 461.578C1876.5 461.578 1878.12 463.125 1878.12 465.297C1878.12 467.484 1876.51 469.172 1874.08 469.156ZM1874.06 467.719C1875.44 467.719 1876.45 466.656 1876.45 465.328C1876.45 464.031 1875.47 462.984 1874.11 462.984C1872.72 462.984 1871.67 464.078 1871.65 465.344C1871.67 466.594 1872.67 467.719 1874.06 467.719ZM1884.37 469.156C1882.27 469.141 1880.08 467.906 1880.08 463.719C1880.08 459.781 1881.79 457.531 1884.51 457.531C1886.58 457.531 1888.04 458.828 1888.3 460.625H1886.6C1886.38 459.703 1885.65 459.031 1884.51 459.031C1882.76 459.031 1881.74 460.562 1881.74 463.109H1881.87C1882.47 462.156 1883.54 461.578 1884.77 461.578C1886.79 461.578 1888.41 463.125 1888.41 465.297C1888.41 467.484 1886.8 469.172 1884.37 469.156ZM1884.35 467.719C1885.72 467.719 1886.74 466.656 1886.74 465.328C1886.74 464.031 1885.76 462.984 1884.4 462.984C1883.01 462.984 1881.96 464.078 1881.94 465.344C1881.96 466.594 1882.96 467.719 1884.35 467.719ZM1894.65 469.156C1892.56 469.141 1890.37 467.906 1890.37 463.719C1890.37 459.781 1892.08 457.531 1894.79 457.531C1896.87 457.531 1898.33 458.828 1898.59 460.625H1896.89C1896.67 459.703 1895.94 459.031 1894.79 459.031C1893.04 459.031 1892.03 460.562 1892.03 463.109H1892.15C1892.76 462.156 1893.83 461.578 1895.06 461.578C1897.08 461.578 1898.7 463.125 1898.7 465.297C1898.7 467.484 1897.09 469.172 1894.65 469.156ZM1894.64 467.719C1896.01 467.719 1897.03 466.656 1897.03 465.328C1897.03 464.031 1896.04 462.984 1894.69 462.984C1893.29 462.984 1892.25 464.078 1892.23 465.344C1892.25 466.594 1893.25 467.719 1894.64 467.719Z" fill="white"/>
<rect width="640" height="165" transform="translate(0 497)" fill="#0A0F15"/>
<path d="M21.1562 634V622.688H25.2969C27.7031 622.688 28.875 623.984 28.875 625.656C28.875 627.062 28.0156 627.781 26.9688 628.047V628.156C28.0938 628.219 29.3125 629.203 29.3125 630.953C29.3125 632.688 28.125 634 25.4844 634H21.1562ZM25.3281 632.531C26.9531 632.531 27.6094 631.812 27.6094 630.875C27.6094 629.797 26.75 628.922 25.3906 628.922H22.875V632.531H25.3281ZM25.1562 627.578C26.2969 627.578 27.1875 626.875 27.1875 625.797C27.1875 624.859 26.5469 624.156 25.1875 624.156H22.875V627.578H25.1562ZM33.0075 622.688V634H31.3356V622.688H33.0075ZM34.9681 631.609C34.9681 629.672 36.6088 629.172 38.14 629.062C38.7025 629.023 39.9759 628.953 40.3744 628.938L40.3588 628.266C40.3588 627.312 39.7806 626.75 38.64 626.75C37.6556 626.75 37.0619 627.203 36.89 627.828H35.2338C35.39 626.422 36.7025 625.406 38.7025 625.406C40.0463 625.406 42.0306 625.906 42.0306 628.359V634H40.4056V632.844H40.3431C40.015 633.484 39.2338 634.188 37.8275 634.188C36.2181 634.188 34.9681 633.266 34.9681 631.609ZM36.5931 631.625C36.5931 632.438 37.265 632.859 38.2025 632.859C39.5619 632.859 40.3744 631.953 40.3744 630.938V630.156L38.3744 630.297C37.2806 630.375 36.5931 630.781 36.5931 631.625ZM47.96 634.172C45.4912 634.172 43.9912 632.344 43.9912 629.797C43.9912 627.203 45.5381 625.406 47.9287 625.406C49.8662 625.406 51.2725 626.547 51.4444 628.266H49.8194C49.6475 627.469 49.0069 626.797 47.96 626.797C46.585 626.797 45.6631 627.938 45.6631 629.75C45.6631 631.609 46.5694 632.75 47.96 632.75C48.8975 632.75 49.6162 632.234 49.8194 631.312H51.4444C51.2569 632.953 49.96 634.172 47.96 634.172ZM53.3425 634V622.688H55.0144V629.094H55.155L58.5144 625.516H60.5144L57.0925 629.156L60.7487 634H58.7019L55.8269 630.188L55.0144 630.984V634H53.3425Z" fill="white"/>
<path d="M557.25 634L557.75 630.969H555.109L554.609 634H553.266L553.766 630.969H552.141L552.344 629.641H553.984L554.406 627.047H552.797L553 625.703H554.641L555.125 622.688H556.469L555.984 625.703H558.625L559.109 622.688H560.438L559.953 625.703H561.594L561.375 627.047H559.734L559.312 629.641H560.938L560.703 630.969H559.094L558.594 634H557.25ZM555.328 629.641H557.969L558.391 627.047H555.75L555.328 629.641ZM566.976 634.156C564.351 634.156 562.82 632.047 562.82 628.344C562.82 624.672 564.382 622.531 566.976 622.531C569.57 622.531 571.132 624.672 571.132 628.344C571.132 632.047 569.586 634.156 566.976 634.156ZM566.976 632.672C568.507 632.672 569.414 631.172 569.414 628.344C569.414 625.531 568.492 623.984 566.976 623.984C565.461 623.984 564.539 625.531 564.539 628.344C564.539 631.172 565.445 632.672 566.976 632.672ZM574.359 634H572.531L576.593 622.688H578.577L582.656 634H580.827L579.796 631.016H575.39L574.359 634ZM575.89 629.578H579.296L577.624 624.75H577.546L575.89 629.578ZM588.194 634.156C585.569 634.156 584.038 632.047 584.038 628.344C584.038 624.672 585.601 622.531 588.194 622.531C590.788 622.531 592.351 624.672 592.351 628.344C592.351 632.047 590.804 634.156 588.194 634.156ZM588.194 632.672C589.726 632.672 590.632 631.172 590.632 628.344C590.632 625.531 589.71 623.984 588.194 623.984C586.679 623.984 585.757 625.531 585.757 628.344C585.757 631.172 586.663 632.672 588.194 632.672ZM594.608 634V622.688H601.624V624.172H596.327V627.594H601.124V629.062H596.327V634H594.608ZM608.006 622.688V634H606.272V624.406H606.209L603.506 626.172V624.531L606.319 622.688H608.006ZM615.045 634.156C612.904 634.156 611.295 632.844 611.217 631.047H612.889C612.982 632.016 613.904 632.719 615.045 632.719C616.42 632.719 617.404 631.719 617.404 630.375C617.404 629 616.389 628 614.967 627.984C614.061 627.984 613.373 628.281 612.982 628.984H611.357L612.092 622.688H618.498V624.156H613.514L613.139 627.328H613.248C613.717 626.875 614.514 626.562 615.373 626.562C617.498 626.562 619.076 628.141 619.076 630.328C619.076 632.562 617.404 634.156 615.045 634.156Z" fill="white"/>
<rect width="320" height="165" transform="translate(640 497)" fill="#696E82"/>
<path d="M874.25 639L874.75 635.969H872.109L871.609 639H870.266L870.766 635.969H869.141L869.344 634.641H870.984L871.406 632.047H869.797L870 630.703H871.641L872.125 627.688H873.469L872.984 630.703H875.625L876.109 627.688H877.438L876.953 630.703H878.594L878.375 632.047H876.734L876.312 634.641H877.938L877.703 635.969H876.094L875.594 639H874.25ZM872.328 634.641H874.969L875.391 632.047H872.75L872.328 634.641ZM884.132 639.156C882.039 639.141 879.851 637.906 879.851 633.719C879.851 629.781 881.554 627.531 884.273 627.531C886.351 627.531 887.804 628.828 888.07 630.625H886.367C886.148 629.703 885.414 629.031 884.273 629.031C882.523 629.031 881.507 630.562 881.507 633.109H881.632C882.242 632.156 883.304 631.578 884.539 631.578C886.554 631.578 888.179 633.125 888.179 635.297C888.179 637.484 886.57 639.172 884.132 639.156ZM884.117 637.719C885.492 637.719 886.507 636.656 886.507 635.328C886.507 634.031 885.523 632.984 884.164 632.984C882.773 632.984 881.726 634.078 881.711 635.344C881.726 636.594 882.726 637.719 884.117 637.719ZM894.218 627.531C896.296 627.547 898.484 628.797 898.484 632.938C898.484 636.906 896.781 639.156 894.062 639.156C891.984 639.156 890.515 637.875 890.249 636.031H891.952C892.187 636.984 892.921 637.656 894.062 637.656C895.812 637.656 896.827 636.125 896.843 633.547H896.702C896.093 634.5 895.031 635.078 893.812 635.078C891.781 635.078 890.156 633.531 890.156 631.359C890.156 629.203 891.765 627.516 894.218 627.531ZM894.218 628.969C892.843 628.969 891.827 630.031 891.827 631.328C891.827 632.641 892.812 633.672 894.187 633.672C895.546 633.672 896.609 632.562 896.609 631.312C896.609 630.094 895.609 628.969 894.218 628.969ZM904.71 639.156C902.616 639.141 900.429 637.906 900.429 633.719C900.429 629.781 902.132 627.531 904.851 627.531C906.929 627.531 908.382 628.828 908.647 630.625H906.944C906.726 629.703 905.991 629.031 904.851 629.031C903.101 629.031 902.085 630.562 902.085 633.109H902.21C902.819 632.156 903.882 631.578 905.116 631.578C907.132 631.578 908.757 633.125 908.757 635.297C908.757 637.484 907.147 639.172 904.71 639.156ZM904.694 637.719C906.069 637.719 907.085 636.656 907.085 635.328C907.085 634.031 906.101 632.984 904.741 632.984C903.351 632.984 902.304 634.078 902.288 635.344C902.304 636.594 903.304 637.719 904.694 637.719ZM911.061 639V627.688H918.155V629.172H912.78V632.594H917.78V634.062H912.78V637.516H918.217V639H911.061ZM924.381 639.156C921.928 639.156 920.209 637.828 920.225 635.984C920.209 634.531 921.256 633.344 922.584 633.141V633.078C921.428 632.812 920.647 631.781 920.647 630.547C920.647 628.812 922.225 627.531 924.381 627.531C926.522 627.531 928.084 628.812 928.1 630.547C928.084 631.781 927.303 632.812 926.162 633.078V633.141C927.475 633.344 928.522 634.531 928.537 635.984C928.522 637.828 926.803 639.156 924.381 639.156ZM924.381 637.734C925.85 637.734 926.787 636.969 926.787 635.859C926.787 634.688 925.772 633.844 924.381 633.844C922.975 633.844 921.944 634.688 921.975 635.859C921.944 636.969 922.881 637.734 924.381 637.734ZM924.381 632.484C925.569 632.484 926.412 631.766 926.412 630.703C926.412 629.656 925.584 628.938 924.381 628.938C923.131 628.938 922.319 629.641 922.319 630.703C922.319 631.766 923.178 632.484 924.381 632.484ZM930.639 639V637.75L934.561 633.797C935.795 632.5 936.42 631.781 936.42 630.797C936.42 629.688 935.514 628.969 934.326 628.969C933.076 628.969 932.264 629.766 932.264 630.969H930.639C930.623 628.906 932.201 627.531 934.357 627.531C936.545 627.531 938.045 628.906 938.061 630.75C938.045 632.016 937.451 633.016 935.326 635.109L933.029 637.438V637.531H938.248V639H930.639Z" fill="white"/>
<rect width="320" height="165" transform="translate(960 497)" fill="#A8B1CE"/>
<path d="M1195.25 639L1195.75 635.969H1193.11L1192.61 639H1191.27L1191.77 635.969H1190.14L1190.34 634.641H1191.98L1192.41 632.047H1190.8L1191 630.703H1192.64L1193.12 627.688H1194.47L1193.98 630.703H1196.62L1197.11 627.688H1198.44L1197.95 630.703H1199.59L1199.38 632.047H1197.73L1197.31 634.641H1198.94L1198.7 635.969H1197.09L1196.59 639H1195.25ZM1193.33 634.641H1195.97L1196.39 632.047H1193.75L1193.33 634.641ZM1202.16 639H1200.34L1204.4 627.688H1206.38L1210.46 639H1208.63L1207.6 636.016H1203.19L1202.16 639ZM1203.69 634.578H1207.1L1205.43 629.75H1205.35L1203.69 634.578ZM1216.01 639.156C1213.56 639.156 1211.84 637.828 1211.86 635.984C1211.84 634.531 1212.89 633.344 1214.22 633.141V633.078C1213.06 632.812 1212.28 631.781 1212.28 630.547C1212.28 628.812 1213.86 627.531 1216.01 627.531C1218.16 627.531 1219.72 628.812 1219.73 630.547C1219.72 631.781 1218.94 632.812 1217.8 633.078V633.141C1219.11 633.344 1220.16 634.531 1220.17 635.984C1220.16 637.828 1218.44 639.156 1216.01 639.156ZM1216.01 637.734C1217.48 637.734 1218.42 636.969 1218.42 635.859C1218.42 634.688 1217.41 633.844 1216.01 633.844C1214.61 633.844 1213.58 634.688 1213.61 635.859C1213.58 636.969 1214.51 637.734 1216.01 637.734ZM1216.01 632.484C1217.2 632.484 1218.05 631.766 1218.05 630.703C1218.05 629.656 1217.22 628.938 1216.01 628.938C1214.76 628.938 1213.95 629.641 1213.95 630.703C1213.95 631.766 1214.81 632.484 1216.01 632.484ZM1222.43 639V627.688H1226.57C1228.98 627.688 1230.15 628.984 1230.15 630.656C1230.15 632.062 1229.29 632.781 1228.24 633.047V633.156C1229.37 633.219 1230.58 634.203 1230.58 635.953C1230.58 637.688 1229.4 639 1226.76 639H1222.43ZM1226.6 637.531C1228.23 637.531 1228.88 636.812 1228.88 635.875C1228.88 634.797 1228.02 633.922 1226.66 633.922H1224.15V637.531H1226.6ZM1226.43 632.578C1227.57 632.578 1228.46 631.875 1228.46 630.797C1228.46 629.859 1227.82 629.156 1226.46 629.156H1224.15V632.578H1226.43ZM1236.89 627.688V639H1235.15V629.406H1235.09L1232.39 631.172V629.531L1235.2 627.688H1236.89ZM1247.9 631.375C1247.62 629.922 1246.41 629.109 1244.97 629.109C1243.02 629.109 1241.57 630.609 1241.57 633.344C1241.57 636.094 1243.04 637.578 1244.97 637.578C1246.4 637.578 1247.6 636.781 1247.9 635.344L1249.63 635.359C1249.27 637.594 1247.44 639.156 1244.96 639.156C1242.01 639.156 1239.87 636.953 1239.87 633.344C1239.87 629.719 1242.02 627.531 1244.96 627.531C1247.35 627.531 1249.24 628.938 1249.63 631.375H1247.9ZM1251.81 639V627.688H1258.9V629.172H1253.53V632.594H1258.53V634.062H1253.53V637.516H1258.97V639H1251.81Z" fill="#0A0F15"/>
<rect width="320" height="165" transform="translate(1280 497)" fill="#CDD3E7"/>
<path d="M1511.25 639L1511.75 635.969H1509.11L1508.61 639H1507.27L1507.77 635.969H1506.14L1506.34 634.641H1507.98L1508.41 632.047H1506.8L1507 630.703H1508.64L1509.12 627.688H1510.47L1509.98 630.703H1512.62L1513.11 627.688H1514.44L1513.95 630.703H1515.59L1515.38 632.047H1513.73L1513.31 634.641H1514.94L1514.7 635.969H1513.09L1512.59 639H1511.25ZM1509.33 634.641H1511.97L1512.39 632.047H1509.75L1509.33 634.641ZM1524.85 631.375C1524.57 629.922 1523.37 629.109 1521.93 629.109C1519.98 629.109 1518.52 630.609 1518.52 633.344C1518.52 636.094 1519.99 637.578 1521.93 637.578C1523.35 637.578 1524.55 636.781 1524.85 635.344L1526.59 635.359C1526.23 637.594 1524.4 639.156 1521.91 639.156C1518.96 639.156 1516.82 636.953 1516.82 633.344C1516.82 629.719 1518.98 627.531 1521.91 627.531C1524.3 627.531 1526.19 628.938 1526.59 631.375H1524.85ZM1532.44 639H1528.76V627.688H1532.55C1535.87 627.688 1537.87 629.812 1537.87 633.328C1537.87 636.859 1535.87 639 1532.44 639ZM1530.48 637.5H1532.34C1534.91 637.5 1536.17 636 1536.17 633.328C1536.17 630.672 1534.91 629.188 1532.44 629.188H1530.48V637.5ZM1543.8 639H1540.13V627.688H1543.91C1547.24 627.688 1549.24 629.812 1549.24 633.328C1549.24 636.859 1547.24 639 1543.8 639ZM1541.85 637.5H1543.71C1546.27 637.5 1547.54 636 1547.54 633.328C1547.54 630.672 1546.27 629.188 1543.8 629.188H1541.85V637.5ZM1555.36 639.156C1553.01 639.156 1551.34 637.891 1551.28 636.047H1553.03C1553.09 637.047 1554.08 637.672 1555.34 637.672C1556.7 637.672 1557.7 636.922 1557.7 635.828C1557.7 634.719 1556.76 633.906 1555.15 633.906H1554.19V632.5H1555.15C1556.44 632.5 1557.34 631.781 1557.34 630.703C1557.34 629.672 1556.58 628.969 1555.37 628.969C1554.23 628.969 1553.23 629.594 1553.19 630.625H1551.53C1551.58 628.781 1553.28 627.531 1555.39 627.531C1557.61 627.531 1559.01 628.938 1559 630.609C1559.01 631.891 1558.22 632.828 1557 633.125V633.203C1558.55 633.422 1559.44 634.453 1559.44 635.891C1559.44 637.781 1557.7 639.156 1555.36 639.156ZM1561.8 639V627.688H1568.9V629.172H1563.52V632.594H1568.52V634.062H1563.52V637.516H1568.96V639H1561.8ZM1571.56 639L1576.61 629.25V629.156H1570.78V627.688H1578.39V629.219L1573.36 639H1571.56Z" fill="#0A0F15"/>
<rect width="320" height="165" transform="translate(1600 497)" fill="#EBF0F4"/>
<path d="M1836.25 639L1836.75 635.969H1834.11L1833.61 639H1832.27L1832.77 635.969H1831.14L1831.34 634.641H1832.98L1833.41 632.047H1831.8L1832 630.703H1833.64L1834.12 627.688H1835.47L1834.98 630.703H1837.62L1838.11 627.688H1839.44L1838.95 630.703H1840.59L1840.38 632.047H1838.73L1838.31 634.641H1839.94L1839.7 635.969H1838.09L1837.59 639H1836.25ZM1834.33 634.641H1836.97L1837.39 632.047H1834.75L1834.33 634.641ZM1842.19 639V627.688H1849.29V629.172H1843.91V632.594H1848.91V634.062H1843.91V637.516H1849.35V639H1842.19ZM1851.72 639V627.688H1855.86C1858.26 627.688 1859.44 628.984 1859.44 630.656C1859.44 632.062 1858.58 632.781 1857.53 633.047V633.156C1858.66 633.219 1859.87 634.203 1859.87 635.953C1859.87 637.688 1858.69 639 1856.05 639H1851.72ZM1855.89 637.531C1857.51 637.531 1858.17 636.812 1858.17 635.875C1858.17 634.797 1857.31 633.922 1855.95 633.922H1853.44V637.531H1855.89ZM1855.72 632.578C1856.86 632.578 1857.75 631.875 1857.75 630.797C1857.75 629.859 1857.11 629.156 1855.75 629.156H1853.44V632.578H1855.72ZM1862.04 639V627.688H1869.05V629.172H1863.76V632.594H1868.55V634.062H1863.76V639H1862.04ZM1875.08 639.156C1872.45 639.156 1870.92 637.047 1870.92 633.344C1870.92 629.672 1872.48 627.531 1875.08 627.531C1877.67 627.531 1879.23 629.672 1879.23 633.344C1879.23 637.047 1877.69 639.156 1875.08 639.156ZM1875.08 637.672C1876.61 637.672 1877.51 636.172 1877.51 633.344C1877.51 630.531 1876.59 628.984 1875.08 628.984C1873.56 628.984 1872.64 630.531 1872.64 633.344C1872.64 636.172 1873.55 637.672 1875.08 637.672ZM1881.49 639V627.688H1888.51V629.172H1883.21V632.594H1888.01V634.062H1883.21V639H1881.49ZM1890.34 636.797V635.406L1895.34 627.688H1897.47V635.344H1899.01V636.797H1897.47V639H1895.84V636.797H1890.34ZM1892.15 635.344H1895.84V629.734H1895.72L1892.15 635.25V635.344Z" fill="#0A0F15"/>
</g>
<defs>
<clipPath id="clip0_2604_286">
<rect width="1920" height="662" fill="white"/>
</clipPath>
</defs>
</svg>
