<svg width="100" height="100" viewBox="0 0 100 100" fill="none" xmlns="http://www.w3.org/2000/svg">
<rect width="100" height="100" rx="24" fill="white"/>
<path d="M62 33C64.209 33.0002 66 34.791 66 37V49.8008C65.9996 52.0094 64.2087 53.8006 62 53.8008H35.1426L30 59V37C30 34.7909 31.7909 33 34 33H62ZM40.2852 40.8008C38.8652 40.8011 37.7148 41.9646 37.7148 43.4004C37.7151 44.836 38.8654 45.9997 40.2852 46C41.7052 46 42.8572 44.8361 42.8574 43.4004C42.8574 41.9645 41.7053 40.8008 40.2852 40.8008ZM48 40.8008C46.5799 40.8008 45.4277 41.9645 45.4277 43.4004C45.4279 44.8361 46.58 46 48 46C49.4199 45.9999 50.5701 44.8361 50.5703 43.4004C50.5703 41.9645 49.42 40.8009 48 40.8008ZM55.7148 40.8008C54.2947 40.8008 53.1426 41.9645 53.1426 43.4004C53.1428 44.8361 54.2948 46 55.7148 46C57.1345 45.9996 58.2849 44.8359 58.2852 43.4004C58.2852 41.9647 57.1346 40.8012 55.7148 40.8008Z" fill="#56AFDF"/>
<path d="M67.7734 51.418C69.0919 52.072 70 53.4284 70 55V67L66.5723 63.8008H50C47.7912 63.8006 46.0004 62.0095 46 59.8008V55.8008H62L62.3086 55.793C64.9246 55.6602 67.0932 53.8498 67.7734 51.418Z" fill="#56AFDF"/>
<path d="M65.8164 51C65.3066 52.6229 63.7909 53.8006 62 53.8008H46.1836C46.6932 52.1777 48.2088 51.0001 50 51H65.8164Z" fill="#56AFDF"/>
</svg>
