<svg width="100" height="100" viewBox="0 0 100 100" fill="none" xmlns="http://www.w3.org/2000/svg">
<rect width="100" height="100" rx="24" fill="white"/>
<path d="M55 36.3642C57.2066 34.7248 59.7947 34.7948 62.395 35.3745C65.7573 36.2718 70.0001 37.8237 70 41.6069V59.509C70 60.9842 68.7195 62.1367 67.2461 61.9869L60.0757 61.2574C56.8906 60.6658 53.6458 61.8276 51.3623 64.3724C50.6102 65.2092 49.3898 65.2092 48.6377 64.3724C46.3542 61.8276 43.1094 60.6658 39.9243 61.2574L32.7539 61.9869C31.2805 62.1367 30 60.9842 30 59.509L30 41.6069C29.9999 37.8237 34.2427 36.2718 37.605 35.3745C40.2053 34.7948 42.7934 34.7248 45 36.3642L47.5 38.0931V55.0395C47.5 56.4148 48.6193 57.5296 50 57.5296C51.3807 57.5296 52.5 56.4148 52.5 55.0395V38.0931L55 36.3642Z" fill="#56AFDF"/>
</svg>
