<svg width="1920" height="1080" viewBox="0 0 1920 1080" fill="none" xmlns="http://www.w3.org/2000/svg">
<path d="M98.3984 569.898V591.086H95.7734V569.898H98.3984ZM92.0703 572.148C92.0703 578.453 89.6328 583.82 82.2031 587.336L80.8438 585.25C86.3867 582.613 88.9648 579.027 89.4219 574.211H81.9219V572.148H92.0703ZM115.214 571.586V573.508H102.675V571.586H107.621V569.781H110.222V571.586H115.214ZM108.957 574.117C112.05 574.094 114.16 575.336 114.16 577.305C114.16 578.969 112.613 580.082 110.222 580.375V581.5C112.015 581.418 113.808 581.266 115.496 581.055L115.683 582.836C111.136 583.609 106.121 583.68 102.371 583.68L102.019 581.664C103.707 581.676 105.628 581.664 107.621 581.594V580.352C105.218 580.07 103.707 578.957 103.73 577.305C103.707 575.336 105.792 574.094 108.957 574.117ZM108.957 575.875C107.292 575.852 106.214 576.367 106.238 577.305C106.214 578.172 107.292 578.688 108.957 578.664C110.574 578.688 111.652 578.172 111.675 577.305C111.652 576.367 110.574 575.852 108.957 575.875ZM119.597 569.945V584.195H116.972V569.945H119.597ZM119.597 585.062V591.086H116.972V587.102H105.019V585.062H119.597ZM134.081 569.641V591.391H131.292V569.641H134.081ZM144.978 589V572.031H151.353C155.244 572.031 157.33 574.398 157.33 577.656C157.33 580.914 155.22 583.258 151.306 583.258H148.025V589H144.978ZM148.025 580.75H150.884C153.181 580.75 154.213 579.461 154.213 577.656C154.213 575.828 153.181 574.586 150.884 574.586H148.025V580.75ZM163.13 572.031V589H160.13V572.031H163.13ZM165.883 585.414C165.883 582.555 168.251 581.711 170.618 581.57C171.497 581.512 173.325 581.406 173.876 581.383V580.375C173.876 579.109 173.055 578.383 171.579 578.383C170.243 578.383 169.423 578.992 169.188 579.906H166.305C166.516 577.75 168.462 576.109 171.649 576.109C174.063 576.109 176.852 577.094 176.852 580.492V589H173.993V587.242H173.899C173.337 588.32 172.141 589.258 170.149 589.258C167.712 589.258 165.883 587.922 165.883 585.414ZM168.766 585.391C168.766 586.492 169.657 587.055 170.923 587.055C172.727 587.055 173.899 585.859 173.899 584.43V583.375L171.087 583.562C169.657 583.68 168.766 584.266 168.766 585.391ZM183.145 581.547V589H180.145V576.273H183.004V578.43H183.168C183.754 577 185.043 576.109 186.942 576.109C189.59 576.109 191.324 577.844 191.301 580.891V589H188.324V581.359C188.324 579.648 187.41 578.641 185.84 578.641C184.246 578.641 183.145 579.695 183.145 581.547ZM197.64 581.547V589H194.64V576.273H197.5V578.43H197.664C198.25 577 199.539 576.109 201.437 576.109C204.086 576.109 205.82 577.844 205.797 580.891V589H202.82V581.359C202.82 579.648 201.906 578.641 200.336 578.641C198.742 578.641 197.64 579.695 197.64 581.547ZM214.784 589.258C210.941 589.258 208.597 586.703 208.597 582.719C208.597 578.781 210.988 576.109 214.62 576.109C217.738 576.109 220.433 578.055 220.433 582.531V583.469H211.55C211.585 585.637 212.863 586.914 214.808 586.914C216.12 586.914 217.011 586.352 217.386 585.602H220.316C219.777 587.805 217.738 589.258 214.784 589.258ZM211.573 581.43H217.573C217.55 579.695 216.402 578.43 214.667 578.43C212.863 578.43 211.667 579.801 211.573 581.43ZM223.233 589V576.273H226.139V578.383H226.28C226.725 576.93 227.967 576.086 229.421 576.086C229.749 576.086 230.217 576.109 230.499 576.156V578.922C230.241 578.828 229.608 578.734 229.116 578.734C227.452 578.734 226.233 579.883 226.233 581.5V589H223.233Z" fill="#494D5B"/>
<rect x="80" y="679" width="80" height="80" rx="40" fill="#56AFDF"/>
<path d="M110.102 724.047V725.355H94.2031V724.047H110.102ZM108.578 711.977V713.246H105.824V719.32H108.539V720.57H95.6484V719.32H98.3633V713.246H95.6094V711.977H108.578ZM99.8867 719.32H104.32V713.246H99.8867V719.32ZM127.787 724.145V725.434H111.888V724.145H119.037V720.863H113.88V715.512H124.271V712.777H113.841V711.508H125.775V716.762H115.404V719.594H126.185V720.863H120.541V724.145H127.787ZM143.929 710.219V719.242H142.386V710.219H143.929ZM143.929 720.082V724.223H134.124V726.137H144.593V727.387H132.62V723.07H142.405V721.312H132.562V720.082H143.929ZM139.749 711.41V712.641H137.991V717.074C138.89 717.025 139.779 716.938 140.609 716.84L140.687 717.973C137.21 718.48 133.128 718.617 130.062 718.617L129.866 717.348L132.093 717.328V712.641H130.355V711.41H139.749ZM133.577 717.289C134.534 717.27 135.521 717.24 136.507 717.172V712.641H133.577V717.289Z" fill="white"/>
<path d="M200.891 692.258V690.031H214.039V692.258H208.766V707H206.188V692.258H200.891ZM220.566 707.258C216.816 707.258 214.519 704.68 214.519 700.719C214.519 696.805 216.863 694.109 220.402 694.109C223.308 694.109 226.05 695.914 226.05 700.508V701.398H217.003C217.074 703.812 218.492 705.195 220.589 705.195C222.019 705.195 222.933 704.586 223.355 703.812H225.886C225.324 705.875 223.355 707.258 220.566 707.258ZM217.027 699.523H223.589C223.589 697.578 222.347 696.172 220.425 696.172C218.421 696.172 217.121 697.719 217.027 699.523ZM228.429 703.414C228.429 700.508 230.89 699.758 233.187 699.594C234.03 699.535 235.94 699.43 236.538 699.406L236.515 698.398C236.515 696.969 235.647 696.125 233.937 696.125C232.46 696.125 231.569 696.805 231.312 697.742H228.827C229.062 695.633 231.03 694.109 234.03 694.109C236.046 694.109 239.022 694.859 239.022 698.539V707H236.585V705.266H236.491C235.999 706.227 234.827 707.281 232.718 707.281C230.304 707.281 228.429 705.898 228.429 703.414ZM230.866 703.438C230.866 704.656 231.874 705.289 233.28 705.289C235.319 705.289 236.538 703.93 236.538 702.406V701.234L233.538 701.445C231.897 701.562 230.866 702.172 230.866 703.438ZM242.526 707V694.273H244.94V696.359H245.081C245.62 694.93 246.862 694.109 248.549 694.109C250.237 694.109 251.432 694.953 251.971 696.359H252.112C252.721 694.977 254.081 694.109 255.932 694.109C258.229 694.109 259.87 695.562 259.87 698.469V707H257.362V698.703C257.362 696.992 256.284 696.266 254.971 696.266C253.354 696.266 252.44 697.367 252.44 698.891V707H249.956V698.562C249.956 697.18 248.995 696.266 247.635 696.266C246.229 696.266 245.034 697.438 245.034 699.148V707H242.526ZM272.22 690.031V707H269.713V690.031H272.22ZM281.232 707.258C277.482 707.258 275.185 704.68 275.185 700.719C275.185 696.805 277.528 694.109 281.067 694.109C283.974 694.109 286.716 695.914 286.716 700.508V701.398H277.669C277.739 703.812 279.157 705.195 281.255 705.195C282.685 705.195 283.599 704.586 284.021 703.812H286.552C285.989 705.875 284.021 707.258 281.232 707.258ZM277.692 699.523H284.255C284.255 697.578 283.013 696.172 281.091 696.172C279.087 696.172 277.786 697.719 277.692 699.523ZM289.094 703.414C289.094 700.508 291.555 699.758 293.852 699.594C294.696 699.535 296.606 699.43 297.204 699.406L297.18 698.398C297.18 696.969 296.313 696.125 294.602 696.125C293.126 696.125 292.235 696.805 291.977 697.742H289.493C289.727 695.633 291.696 694.109 294.696 694.109C296.712 694.109 299.688 694.859 299.688 698.539V707H297.251V705.266H297.157C296.665 706.227 295.493 707.281 293.383 707.281C290.969 707.281 289.094 705.898 289.094 703.414ZM291.532 703.438C291.532 704.656 292.54 705.289 293.946 705.289C295.985 705.289 297.204 703.93 297.204 702.406V701.234L294.204 701.445C292.563 701.562 291.532 702.172 291.532 703.438ZM307.949 707.258C304.879 707.258 302.629 704.773 302.629 700.672C302.629 696.523 304.902 694.109 307.973 694.109C310.34 694.109 311.207 695.539 311.652 696.336H311.77V690.031H314.277V707H311.84V705.008H311.652C311.184 705.852 310.27 707.258 307.949 707.258ZM308.512 705.125C310.645 705.125 311.84 703.297 311.84 700.625C311.84 697.977 310.668 696.242 308.512 696.242C306.285 696.242 305.184 698.117 305.184 700.625C305.184 703.18 306.332 705.125 308.512 705.125ZM323.5 707.258C319.75 707.258 317.453 704.68 317.453 700.719C317.453 696.805 319.797 694.109 323.336 694.109C326.242 694.109 328.984 695.914 328.984 700.508V701.398H319.937C320.007 703.812 321.425 705.195 323.523 705.195C324.953 705.195 325.867 704.586 326.289 703.812H328.82C328.257 705.875 326.289 707.258 323.5 707.258ZM319.961 699.523H326.523C326.523 697.578 325.281 696.172 323.359 696.172C321.355 696.172 320.054 697.719 319.961 699.523ZM331.948 707V694.273H334.363V696.289H334.503C334.972 694.93 336.238 694.086 337.738 694.086C338.042 694.086 338.534 694.109 338.792 694.133V696.523C338.581 696.477 337.995 696.383 337.48 696.383C335.745 696.383 334.456 697.578 334.456 699.242V707H331.948ZM217.273 728.992V734.359H220.32V736.188H217.273V741.648H215.047V728.992H217.273ZM217.273 742.703V749.992H215.047V744.508H203.398V742.703H217.273ZM203.773 730.305V733.445H209.281V730.305H211.484V740.312H201.594V730.305H203.773ZM203.773 738.531H209.281V735.203H203.773V738.531ZM238.355 728.992V737.125H241.73V738.953H238.355V750.039H236.128V728.992H238.355ZM232.707 731.008V732.812H225.113V742.961C228.64 742.949 231.289 742.797 234.277 742.258L234.558 744.133C231.277 744.719 228.488 744.836 224.574 744.812H222.886V731.008H232.707ZM246.499 730.492V733.844H252.101V730.492H254.304V740.945H244.319V730.492H246.499ZM246.499 739.164H252.101V735.578H246.499V739.164ZM260.632 729.016V744.484H258.405V729.016H260.632ZM261.147 747.742V749.547H246.78V742.914H249.03V747.742H261.147ZM274.998 728.641V750.391H272.748V728.641H274.998ZM290.841 748.258C287.771 748.258 285.521 745.773 285.521 741.672C285.521 737.523 287.794 735.109 290.864 735.109C293.232 735.109 294.099 736.539 294.544 737.336H294.661V731.031H297.169V748H294.732V746.008H294.544C294.075 746.852 293.161 748.258 290.841 748.258ZM291.403 746.125C293.536 746.125 294.732 744.297 294.732 741.625C294.732 738.977 293.56 737.242 291.403 737.242C289.177 737.242 288.075 739.117 288.075 741.625C288.075 744.18 289.224 746.125 291.403 746.125ZM300.321 744.414C300.321 741.508 302.782 740.758 305.079 740.594C305.923 740.535 307.833 740.43 308.43 740.406L308.407 739.398C308.407 737.969 307.54 737.125 305.829 737.125C304.352 737.125 303.462 737.805 303.204 738.742H300.719C300.954 736.633 302.923 735.109 305.923 735.109C307.938 735.109 310.915 735.859 310.915 739.539V748H308.477V746.266H308.383C307.891 747.227 306.719 748.281 304.61 748.281C302.196 748.281 300.321 746.898 300.321 744.414ZM302.758 744.438C302.758 745.656 303.766 746.289 305.173 746.289C307.212 746.289 308.43 744.93 308.43 743.406V742.234L305.43 742.445C303.79 742.562 302.758 743.172 302.758 744.438ZM324.871 735.273L320.254 748H317.559L312.942 735.273H315.637L318.848 745.047H318.965L322.176 735.273H324.871ZM327.39 748V735.273H329.898V748H327.39ZM328.656 733.305C327.789 733.305 327.062 732.648 327.062 731.828C327.062 731.008 327.789 730.352 328.656 730.352C329.5 730.352 330.226 731.008 330.226 731.828C330.226 732.648 329.5 733.305 328.656 733.305ZM335.933 740.453V748H333.425V735.273H335.839V737.359H335.98C336.589 736 337.831 735.109 339.73 735.109C342.355 735.109 344.066 736.75 344.066 739.914V748H341.581V740.219C341.581 738.367 340.573 737.266 338.886 737.266C337.175 737.266 335.933 738.414 335.933 740.453ZM352.983 748.258C349.28 748.258 347.03 745.516 347.03 741.695C347.03 737.805 349.35 735.109 352.936 735.109C355.842 735.109 357.952 736.82 358.21 739.398H355.772C355.514 738.203 354.553 737.195 352.983 737.195C350.921 737.195 349.538 738.906 349.538 741.625C349.538 744.414 350.897 746.125 352.983 746.125C354.389 746.125 355.467 745.352 355.772 743.969H358.21C357.928 746.43 355.983 748.258 352.983 748.258ZM361.057 748V735.273H363.565V748H361.057ZM362.322 733.305C361.455 733.305 360.729 732.648 360.729 731.828C360.729 731.008 361.455 730.352 362.322 730.352C363.166 730.352 363.893 731.008 363.893 731.828C363.893 732.648 363.166 733.305 362.322 733.305ZM372.998 748.234C369.318 748.234 366.74 746.242 366.763 743.477C366.74 741.297 368.31 739.516 370.303 739.211V739.117C368.568 738.719 367.396 737.172 367.396 735.32C367.396 732.719 369.763 730.797 372.998 730.797C376.209 730.797 378.553 732.719 378.576 735.32C378.553 737.172 377.381 738.719 375.67 739.117V739.211C377.638 739.516 379.209 741.297 379.232 743.477C379.209 746.242 376.631 748.234 372.998 748.234ZM372.998 746.102C375.201 746.102 376.607 744.953 376.607 743.289C376.607 741.531 375.084 740.266 372.998 740.266C370.888 740.266 369.342 741.531 369.388 743.289C369.342 744.953 370.748 746.102 372.998 746.102ZM372.998 738.227C374.779 738.227 376.045 737.148 376.045 735.555C376.045 733.984 374.803 732.906 372.998 732.906C371.123 732.906 369.904 733.961 369.904 735.555C369.904 737.148 371.193 738.227 372.998 738.227ZM388.29 748.234C384.353 748.234 382.056 745.07 382.056 739.516C382.056 734.008 384.4 730.797 388.29 730.797C392.181 730.797 394.525 734.008 394.525 739.516C394.525 745.07 392.204 748.234 388.29 748.234ZM388.29 746.008C390.587 746.008 391.947 743.758 391.947 739.516C391.947 735.297 390.564 732.977 388.29 732.977C386.017 732.977 384.634 735.297 384.634 739.516C384.634 743.758 385.993 746.008 388.29 746.008ZM404.122 731.031V748H401.52V733.609H401.427L397.372 736.258V733.797L401.591 731.031H404.122ZM408.914 748V746.125L414.797 740.195C416.649 738.25 417.586 737.172 417.586 735.695C417.586 734.031 416.227 732.953 414.446 732.953C412.571 732.953 411.352 734.148 411.352 735.953H408.914C408.891 732.859 411.258 730.797 414.492 730.797C417.774 730.797 420.024 732.859 420.047 735.625C420.024 737.523 419.133 739.023 415.946 742.164L412.5 745.656V745.797H420.328V748H408.914ZM432.035 745.703C429.785 745.703 428.074 743.898 428.074 740.828C428.074 737.758 429.832 735.977 432.035 735.977C433.652 735.977 434.379 736.984 434.66 737.57H434.777V736.164H436.816V742.727C436.84 743.594 437.191 743.992 437.894 743.992C439.207 743.992 440.098 742.469 440.098 740.195C440.121 735.953 437.074 733.164 432.715 733.164C428.191 733.188 425.308 736.539 425.308 740.828C425.308 745.492 427.816 748.562 432.621 748.516C434.285 748.492 435.433 748.375 436.816 748V749.875C435.574 750.227 434.168 750.438 432.621 750.438C426.808 750.438 423.34 746.734 423.34 740.828C423.34 735.273 427.23 731.242 432.715 731.242C438.269 731.242 442.066 735.039 442.066 740.125C442.066 743.734 440.238 745.82 437.73 745.797C436.219 745.797 435.07 745.023 434.894 743.945H434.777C434.473 744.531 433.746 745.703 432.035 745.703ZM432.551 743.781C434.027 743.781 434.801 742.586 434.824 740.805C434.801 739.047 434.051 737.898 432.551 737.898C431.074 737.898 430.277 739.141 430.277 740.805C430.277 742.492 431.098 743.781 432.551 743.781ZM447.749 740.453V748H445.242V735.273H447.656V737.359H447.796C448.406 736 449.648 735.109 451.546 735.109C454.171 735.109 455.882 736.75 455.882 739.914V748H453.398V740.219C453.398 738.367 452.39 737.266 450.702 737.266C448.992 737.266 447.749 738.414 447.749 740.453ZM458.823 744.414C458.823 741.508 461.284 740.758 463.581 740.594C464.425 740.535 466.335 740.43 466.932 740.406L466.909 739.398C466.909 737.969 466.042 737.125 464.331 737.125C462.854 737.125 461.964 737.805 461.706 738.742H459.222C459.456 736.633 461.425 735.109 464.425 735.109C466.44 735.109 469.417 735.859 469.417 739.539V748H466.979V746.266H466.886C466.393 747.227 465.222 748.281 463.112 748.281C460.698 748.281 458.823 746.898 458.823 744.414ZM461.261 744.438C461.261 745.656 462.268 746.289 463.675 746.289C465.714 746.289 466.932 744.93 466.932 743.406V742.234L463.932 742.445C462.292 742.562 461.261 743.172 461.261 744.438ZM483.373 735.273L478.756 748H476.061L471.444 735.273H474.139L477.35 745.047H477.467L480.678 735.273H483.373ZM490.932 748.258C487.182 748.258 484.885 745.68 484.885 741.719C484.885 737.805 487.228 735.109 490.767 735.109C493.674 735.109 496.416 736.914 496.416 741.508V742.398H487.369C487.439 744.812 488.857 746.195 490.955 746.195C492.385 746.195 493.299 745.586 493.721 744.812H496.252C495.689 746.875 493.721 748.258 490.932 748.258ZM487.392 740.523H493.955C493.955 738.578 492.713 737.172 490.791 737.172C488.787 737.172 487.486 738.719 487.392 740.523ZM499.38 748V735.273H501.794V737.289H501.935C502.404 735.93 503.669 735.086 505.169 735.086C505.474 735.086 505.966 735.109 506.224 735.133V737.523C506.013 737.477 505.427 737.383 504.912 737.383C503.177 737.383 501.888 738.578 501.888 740.242V748H499.38ZM508.767 748.164C507.853 748.164 507.079 747.414 507.103 746.5C507.079 745.586 507.853 744.836 508.767 744.836C509.657 744.836 510.431 745.586 510.431 746.5C510.431 747.414 509.657 748.164 508.767 748.164ZM519.325 748.258C515.622 748.258 513.372 745.516 513.372 741.695C513.372 737.805 515.692 735.109 519.278 735.109C522.184 735.109 524.293 736.82 524.551 739.398H522.114C521.856 738.203 520.895 737.195 519.325 737.195C517.262 737.195 515.879 738.906 515.879 741.625C515.879 744.414 517.239 746.125 519.325 746.125C520.731 746.125 521.809 745.352 522.114 743.969H524.551C524.27 746.43 522.325 748.258 519.325 748.258ZM532.789 748.258C529.18 748.258 526.836 745.633 526.836 741.695C526.836 737.734 529.18 735.109 532.789 735.109C536.375 735.109 538.719 737.734 538.719 741.695C538.719 745.633 536.375 748.258 532.789 748.258ZM532.789 746.172C535.086 746.172 536.188 744.133 536.188 741.695C536.188 739.258 535.086 737.172 532.789 737.172C530.445 737.172 529.344 739.258 529.344 741.695C529.344 744.133 530.445 746.172 532.789 746.172ZM541.66 748V735.273H544.074V737.359H544.214C544.753 735.93 545.996 735.109 547.683 735.109C549.371 735.109 550.566 735.953 551.105 737.359H551.246C551.855 735.977 553.214 735.109 555.066 735.109C557.363 735.109 559.003 736.562 559.003 739.469V748H556.496V739.703C556.496 737.992 555.418 737.266 554.105 737.266C552.488 737.266 551.574 738.367 551.574 739.891V748H549.089V739.562C549.089 738.18 548.128 737.266 546.769 737.266C545.363 737.266 544.168 738.438 544.168 740.148V748H541.66Z" fill="#494D5B"/>
<rect x="80" y="800" width="80" height="80" rx="40" fill="#56AFDF"/>
<path d="M110.102 845.047V846.355H94.2031V845.047H110.102ZM108.578 832.977V834.246H105.824V840.32H108.539V841.57H95.6484V840.32H98.3633V834.246H95.6094V832.977H108.578ZM99.8867 840.32H104.32V834.246H99.8867V840.32ZM127.787 845.145V846.434H111.888V845.145H119.037V841.863H113.88V836.512H124.271V833.777H113.841V832.508H125.775V837.762H115.404V840.594H126.185V841.863H120.541V845.145H127.787ZM143.929 831.219V840.242H142.386V831.219H143.929ZM143.929 841.082V845.223H134.124V847.137H144.593V848.387H132.62V844.07H142.405V842.312H132.562V841.082H143.929ZM139.749 832.41V833.641H137.991V838.074C138.89 838.025 139.779 837.938 140.609 837.84L140.687 838.973C137.21 839.48 133.128 839.617 130.062 839.617L129.866 838.348L132.093 838.328V833.641H130.355V832.41H139.749ZM133.577 838.289C134.534 838.27 135.521 838.24 136.507 838.172V833.641H133.577V838.289Z" fill="white"/>
<path d="M217.812 838.867V840.695H211.461V846.039H219.992V847.867H200.773V846.039H209.234V840.695H203.07V831.227H205.32V838.867H217.812ZM239.574 829.516V845.359H237.324V842.617H232.871V840.836H237.324V829.516H239.574ZM240.089 848.242V850.047H224.925V843.648H227.152V848.242H240.089ZM221.855 837.695C224.48 837.684 227.773 837.648 231.019 837.438C231.371 835.316 231.464 833.664 231.488 832.492H223.753V830.688H233.714V831.508C233.714 832.645 233.714 834.59 233.269 837.25C234.042 837.18 234.804 837.098 235.542 836.992L235.707 838.609C233.82 838.938 231.863 839.137 229.941 839.266V844H227.714V839.383C225.71 839.477 223.812 839.5 222.16 839.5L221.855 837.695ZM261.288 831.812V833.641H244.202V831.812H251.679V829.398H253.882V831.812H261.288ZM262.437 843.086V844.914H253.882V850.516H251.679V844.914H243.218V843.086H262.437ZM252.78 834.719C257.14 834.719 259.765 835.961 259.765 838.258C259.765 840.508 257.14 841.75 252.78 841.773C248.397 841.75 245.772 840.508 245.796 838.258C245.772 835.961 248.397 834.719 252.78 834.719ZM252.78 836.383C249.757 836.383 248.093 837.039 248.093 838.258C248.093 839.43 249.757 840.086 252.78 840.086C255.78 840.086 257.444 839.43 257.468 838.258C257.444 837.039 255.78 836.383 252.78 836.383ZM274.998 829.141V850.891H272.748V829.141H274.998ZM288.591 840.953V848.5H286.083V831.531H288.544V837.859H288.708C289.317 836.477 290.489 835.609 292.482 835.609C295.107 835.609 296.841 837.227 296.841 840.414V848.5H294.333V840.719C294.333 838.844 293.325 837.766 291.638 837.766C289.88 837.766 288.591 838.914 288.591 840.953ZM305.829 848.758C302.079 848.758 299.782 846.18 299.782 842.219C299.782 838.305 302.126 835.609 305.665 835.609C308.571 835.609 311.313 837.414 311.313 842.008V842.898H302.266C302.337 845.312 303.755 846.695 305.852 846.695C307.282 846.695 308.196 846.086 308.618 845.312H311.149C310.587 847.375 308.618 848.758 305.829 848.758ZM302.29 841.023H308.852C308.852 839.078 307.61 837.672 305.688 837.672C303.684 837.672 302.383 839.219 302.29 841.023ZM316.785 831.531V848.5H314.277V831.531H316.785ZM322.82 831.531V848.5H320.312V831.531H322.82ZM331.738 848.758C328.128 848.758 325.784 846.133 325.784 842.195C325.784 838.234 328.128 835.609 331.738 835.609C335.323 835.609 337.667 838.234 337.667 842.195C337.667 846.133 335.323 848.758 331.738 848.758ZM331.738 846.672C334.034 846.672 335.136 844.633 335.136 842.195C335.136 839.758 334.034 837.672 331.738 837.672C329.394 837.672 328.292 839.758 328.292 842.195C328.292 844.633 329.394 846.672 331.738 846.672ZM348.952 846.203C346.702 846.203 344.991 844.398 344.991 841.328C344.991 838.258 346.749 836.477 348.952 836.477C350.569 836.477 351.296 837.484 351.577 838.07H351.694V836.664H353.733V843.227C353.757 844.094 354.108 844.492 354.811 844.492C356.124 844.492 357.014 842.969 357.014 840.695C357.038 836.453 353.991 833.664 349.632 833.664C345.108 833.688 342.225 837.039 342.225 841.328C342.225 845.992 344.733 849.062 349.538 849.016C351.202 848.992 352.35 848.875 353.733 848.5V850.375C352.491 850.727 351.085 850.938 349.538 850.938C343.725 850.938 340.257 847.234 340.257 841.328C340.257 835.773 344.147 831.742 349.632 831.742C355.186 831.742 358.983 835.539 358.983 840.625C358.983 844.234 357.155 846.32 354.647 846.297C353.135 846.297 351.987 845.523 351.811 844.445H351.694C351.389 845.031 350.663 846.203 348.952 846.203ZM349.467 844.281C350.944 844.281 351.717 843.086 351.741 841.305C351.717 839.547 350.967 838.398 349.467 838.398C347.991 838.398 347.194 839.641 347.194 841.305C347.194 842.992 348.014 844.281 349.467 844.281ZM369.307 839.242C369.072 838.234 368.276 837.578 366.893 837.578C365.463 837.578 364.432 838.328 364.455 839.289C364.432 840.039 365.041 840.578 366.447 840.906L368.463 841.375C370.807 841.891 371.932 843.016 371.955 844.82C371.932 847.117 370.01 848.758 366.752 848.758C363.705 848.758 361.877 847.398 361.572 845.031H364.127C364.338 846.18 365.229 846.742 366.729 846.742C368.346 846.742 369.377 846.086 369.401 845.008C369.377 844.188 368.768 843.648 367.432 843.344L365.44 842.922C363.143 842.406 361.947 841.188 361.947 839.43C361.947 837.156 363.916 835.609 366.869 835.609C369.705 835.609 371.463 837.062 371.721 839.242H369.307ZM380.826 835.773V837.766H378.224V844.75C378.224 846.18 378.951 846.438 379.748 846.461C380.099 846.461 380.662 846.414 381.013 846.391V848.57C380.662 848.617 380.123 848.664 379.443 848.664C377.474 848.664 375.717 847.586 375.74 845.266V837.766H373.865V835.773H375.74V832.727H378.224V835.773H380.826ZM383.743 848.5V835.773H386.251V848.5H383.743ZM385.009 833.805C384.142 833.805 383.415 833.148 383.415 832.328C383.415 831.508 384.142 830.852 385.009 830.852C385.853 830.852 386.579 831.508 386.579 832.328C386.579 833.148 385.853 833.805 385.009 833.805ZM392.286 831.531V848.5H389.778V831.531H392.286ZM401.297 848.758C397.547 848.758 395.25 846.18 395.25 842.219C395.25 838.305 397.594 835.609 401.133 835.609C404.039 835.609 406.782 837.414 406.782 842.008V842.898H397.735C397.805 845.312 399.223 846.695 401.321 846.695C402.75 846.695 403.664 846.086 404.086 845.312H406.617C406.055 847.375 404.086 848.758 401.297 848.758ZM397.758 841.023H404.321C404.321 839.078 403.078 837.672 401.157 837.672C399.153 837.672 397.852 839.219 397.758 841.023ZM411.387 848.664C410.473 848.664 409.699 847.914 409.723 847C409.699 846.086 410.473 845.336 411.387 845.336C412.277 845.336 413.051 846.086 413.051 847C413.051 847.914 412.277 848.664 411.387 848.664ZM416.554 848.5V835.773H419.062V848.5H416.554ZM417.82 833.805C416.952 833.805 416.226 833.148 416.226 832.328C416.226 831.508 416.952 830.852 417.82 830.852C418.663 830.852 419.39 831.508 419.39 832.328C419.39 833.148 418.663 833.805 417.82 833.805ZM422.589 848.5V835.773H425.003V837.859H425.143C425.682 836.43 426.925 835.609 428.612 835.609C430.3 835.609 431.495 836.453 432.034 837.859H432.175C432.784 836.477 434.143 835.609 435.995 835.609C438.292 835.609 439.932 837.062 439.932 839.969V848.5H437.425V840.203C437.425 838.492 436.347 837.766 435.034 837.766C433.417 837.766 432.503 838.867 432.503 840.391V848.5H430.018V840.062C430.018 838.68 429.057 837.766 427.698 837.766C426.292 837.766 425.097 838.938 425.097 840.648V848.5H422.589Z" fill="#494D5B"/>
<path d="M728.328 570.898V592.109H725.703V570.898H728.328ZM722.234 572.82V574.953H714.641V584.797C718.543 584.785 720.992 584.668 723.805 584.164L724.062 586.32C721.039 586.883 718.297 587 713.82 587H712.016V572.82H722.234ZM739.519 576.922C739.519 580.203 741.464 583.93 744.816 585.477L743.363 587.539C740.972 586.414 739.203 584.141 738.253 581.492C737.292 584.398 735.441 586.883 733.003 588.055L731.48 586.016C734.855 584.422 736.894 580.438 736.917 576.922V575.141H732.3V572.984H743.949V575.141H739.519V576.922ZM748.519 570.898V579.148H751.777V581.328H748.519V592.086H745.917V570.898H748.519ZM770.796 570.922V586.227H768.171V570.922H770.796ZM771.382 589.555V591.664H756.78V584.68H759.405V589.555H771.382ZM759.241 572.305C762.452 572.305 764.937 574.531 764.937 577.602C764.937 580.742 762.452 582.922 759.241 582.922C756.007 582.922 753.522 580.742 753.522 577.602C753.522 574.531 756.007 572.305 759.241 572.305ZM759.241 574.578C757.437 574.578 756.054 575.773 756.077 577.602C756.054 579.477 757.437 580.648 759.241 580.648C760.999 580.648 762.382 579.477 762.382 577.602C762.382 575.773 760.999 574.578 759.241 574.578ZM785.303 570.641V592.391H782.514V570.641H785.303ZM801.966 590H796.2V573.031H802.06C807.122 573.031 810.192 576.219 810.192 581.492C810.192 586.789 807.122 590 801.966 590ZM799.247 587.352H801.802C805.341 587.352 807.146 585.406 807.146 581.492C807.146 577.602 805.341 575.68 801.896 575.68H799.247V587.352ZM818.876 590.258C815.032 590.258 812.688 587.703 812.688 583.719C812.688 579.781 815.079 577.109 818.712 577.109C821.829 577.109 824.524 579.055 824.524 583.531V584.469H815.641C815.676 586.637 816.954 587.914 818.899 587.914C820.212 587.914 821.102 587.352 821.477 586.602H824.407C823.868 588.805 821.829 590.258 818.876 590.258ZM815.665 582.43H821.665C821.641 580.695 820.493 579.43 818.758 579.43C816.954 579.43 815.758 580.801 815.665 582.43ZM834.543 580.906C834.356 579.945 833.559 579.336 832.293 579.336C831.004 579.336 830.067 579.969 830.09 580.836C830.067 581.492 830.606 581.984 831.895 582.289L834.051 582.734C836.465 583.273 837.613 584.375 837.637 586.203C837.613 588.594 835.527 590.258 832.199 590.258C828.965 590.258 827.043 588.805 826.738 586.367H829.785C829.973 587.445 830.817 587.984 832.199 587.984C833.629 587.984 834.59 587.398 834.59 586.461C834.59 585.734 834.004 585.266 832.738 584.984L830.699 584.539C828.332 584.07 827.113 582.828 827.113 581C827.113 578.656 829.129 577.109 832.246 577.109C835.293 577.109 837.168 578.586 837.379 580.906H834.543ZM840.39 590V577.273H843.39V590H840.39ZM841.914 575.469C840.976 575.469 840.179 574.742 840.179 573.828C840.179 572.938 840.976 572.211 841.914 572.211C842.875 572.211 843.648 572.938 843.648 573.828C843.648 574.742 842.875 575.469 841.914 575.469ZM852.284 595.039C848.909 595.039 846.777 593.539 846.566 591.148H849.542C849.753 592.25 850.808 592.789 852.331 592.789C854.113 592.789 855.284 592.016 855.284 590.141V587.703H855.144C854.675 588.641 853.667 589.812 851.464 589.812C848.534 589.812 846.214 587.68 846.214 583.531C846.214 579.336 848.534 577.109 851.488 577.109C853.738 577.109 854.675 578.445 855.144 579.359H855.284V577.273H858.238V590.211C858.238 593.469 855.73 595.039 852.284 595.039ZM852.284 587.469C854.206 587.469 855.308 586.016 855.308 583.578C855.308 581.164 854.23 579.547 852.284 579.547C850.292 579.547 849.261 581.258 849.261 583.578C849.261 585.922 850.316 587.469 852.284 587.469ZM864.577 582.547V590H861.577V577.273H864.436V579.43H864.6C865.186 578 866.475 577.109 868.374 577.109C871.022 577.109 872.757 578.844 872.733 581.891V590H869.757V582.359C869.757 580.648 868.842 579.641 867.272 579.641C865.678 579.641 864.577 580.695 864.577 582.547ZM881.721 590.258C877.877 590.258 875.533 587.703 875.533 583.719C875.533 579.781 877.924 577.109 881.557 577.109C884.674 577.109 887.369 579.055 887.369 583.531V584.469H878.487C878.522 586.637 879.799 587.914 881.744 587.914C883.057 587.914 883.947 587.352 884.322 586.602H887.252C886.713 588.805 884.674 590.258 881.721 590.258ZM878.51 582.43H884.51C884.487 580.695 883.338 579.43 881.604 579.43C879.799 579.43 878.604 580.801 878.51 582.43ZM890.17 590V577.273H893.076V579.383H893.217C893.662 577.93 894.904 577.086 896.357 577.086C896.685 577.086 897.154 577.109 897.435 577.156V579.922C897.178 579.828 896.545 579.734 896.053 579.734C894.388 579.734 893.17 580.883 893.17 582.5V590H890.17Z" fill="#494D5B"/>
<rect x="710" y="679" width="80" height="80" rx="40" fill="#56AFDF"/>
<path d="M740.102 724.047V725.355H724.203V724.047H740.102ZM738.578 711.977V713.246H735.824V719.32H738.539V720.57H725.648V719.32H728.363V713.246H725.609V711.977H738.578ZM729.887 719.32H734.32V713.246H729.887V719.32ZM757.787 724.145V725.434H741.888V724.145H749.037V720.863H743.88V715.512H754.271V712.777H743.841V711.508H755.775V716.762H745.404V719.594H756.185V720.863H750.541V724.145H757.787ZM773.929 710.219V719.242H772.386V710.219H773.929ZM773.929 720.082V724.223H764.124V726.137H774.593V727.387H762.62V723.07H772.405V721.312H762.562V720.082H773.929ZM769.749 711.41V712.641H767.991V717.074C768.89 717.025 769.779 716.938 770.609 716.84L770.687 717.973C767.21 718.48 763.128 718.617 760.062 718.617L759.866 717.348L762.093 717.328V712.641H760.355V711.41H769.749ZM763.577 717.289C764.534 717.27 765.521 717.24 766.507 717.172V712.641H763.577V717.289Z" fill="white"/>
<path d="M848.188 708.516V720.398H845.961V708.516H848.188ZM848.188 721.523V729.234H834.383V721.523H848.188ZM836.586 723.305V727.43H846.008V723.305H836.586ZM838.414 711.352C838.391 714.188 840.43 716.742 843.617 717.82L842.516 719.531C840.078 718.723 838.25 717.059 837.289 714.891C836.352 717.199 834.488 719.039 831.969 719.93L830.867 718.172C834.148 717.07 836.141 714.281 836.141 711.352V709.312H838.414V711.352ZM869.503 708.492V720.984H867.277V715.664H863.363V713.836H867.277V708.492H869.503ZM862.472 721.57C866.878 721.57 869.574 723.023 869.574 725.531C869.574 728.039 866.878 729.469 862.472 729.492C858.066 729.469 855.347 728.039 855.371 725.531C855.347 723.023 858.066 721.57 862.472 721.57ZM862.472 723.305C859.402 723.305 857.574 724.102 857.574 725.531C857.574 726.938 859.402 727.758 862.472 727.734C865.542 727.758 867.371 726.938 867.371 725.531C867.371 724.102 865.542 723.305 862.472 723.305ZM859.519 712.195C859.519 714.867 861.417 717.445 864.582 718.523L863.433 720.281C861.078 719.461 859.343 717.785 858.441 715.711C857.515 718.066 855.675 719.953 853.167 720.867L851.996 719.086C855.253 717.961 857.246 715.125 857.246 712.219V711.75H852.699V709.945H864.019V711.75H859.519V712.195ZM876.499 709.992V713.344H882.101V709.992H884.304V720.445H874.319V709.992H876.499ZM876.499 718.664H882.101V715.078H876.499V718.664ZM890.632 708.516V723.984H888.405V708.516H890.632ZM891.147 727.242V729.047H876.78V722.414H879.03V727.242H891.147ZM904.998 708.141V729.891H902.748V708.141H904.998ZM923.232 718.242C922.997 717.234 922.2 716.578 920.817 716.578C919.388 716.578 918.357 717.328 918.38 718.289C918.357 719.039 918.966 719.578 920.372 719.906L922.388 720.375C924.732 720.891 925.857 722.016 925.88 723.82C925.857 726.117 923.935 727.758 920.677 727.758C917.63 727.758 915.802 726.398 915.497 724.031H918.052C918.263 725.18 919.153 725.742 920.653 725.742C922.271 725.742 923.302 725.086 923.325 724.008C923.302 723.188 922.692 722.648 921.357 722.344L919.364 721.922C917.067 721.406 915.872 720.188 915.872 718.43C915.872 716.156 917.841 714.609 920.794 714.609C923.63 714.609 925.388 716.062 925.646 718.242H923.232ZM928.798 727.5V714.773H931.305V727.5H928.798ZM930.063 712.805C929.196 712.805 928.469 712.148 928.469 711.328C928.469 710.508 929.196 709.852 930.063 709.852C930.907 709.852 931.633 710.508 931.633 711.328C931.633 712.148 930.907 712.805 930.063 712.805ZM934.832 727.5V714.773H937.246V716.859H937.387C937.926 715.43 939.168 714.609 940.856 714.609C942.543 714.609 943.738 715.453 944.277 716.859H944.418C945.027 715.477 946.387 714.609 948.238 714.609C950.535 714.609 952.176 716.062 952.176 718.969V727.5H949.668V719.203C949.668 717.492 948.59 716.766 947.277 716.766C945.66 716.766 944.746 717.867 944.746 719.391V727.5H942.262V719.062C942.262 717.68 941.301 716.766 939.942 716.766C938.535 716.766 937.34 717.938 937.34 719.648V727.5H934.832ZM955.679 714.773H958.187V728.32C958.187 730.898 956.757 732.281 954.132 732.281C953.968 732.281 953.804 732.281 953.617 732.258V730.125H954.015C955.187 730.125 955.679 729.469 955.679 728.297V714.773ZM956.922 712.805C956.054 712.805 955.328 712.148 955.328 711.328C955.328 710.508 956.054 709.852 956.922 709.852C957.765 709.852 958.492 710.508 958.492 711.328C958.492 712.148 957.765 712.805 956.922 712.805ZM961.925 727.5V710.531H964.409V716.836H964.55C965.019 716.039 965.863 714.609 968.206 714.609C971.277 714.609 973.573 717.023 973.573 721.172C973.573 725.273 971.323 727.758 968.23 727.758C965.909 727.758 965.019 726.352 964.55 725.508H964.363V727.5H961.925ZM964.363 721.125C964.363 723.797 965.558 725.625 967.667 725.625C969.87 725.625 971.019 723.68 971.019 721.125C971.019 718.617 969.894 716.742 967.667 716.742C965.534 716.742 964.363 718.477 964.363 721.125ZM982.421 727.734C978.483 727.734 976.186 724.57 976.186 719.016C976.186 713.508 978.53 710.297 982.421 710.297C986.311 710.297 988.655 713.508 988.655 719.016C988.655 724.57 986.335 727.734 982.421 727.734ZM982.421 725.508C984.717 725.508 986.077 723.258 986.077 719.016C986.077 714.797 984.694 712.477 982.421 712.477C980.147 712.477 978.764 714.797 978.764 719.016C978.764 723.258 980.124 725.508 982.421 725.508ZM997.572 727.734C994.362 727.734 991.947 725.766 991.83 723.07H994.338C994.479 724.523 995.862 725.578 997.572 725.578C999.635 725.578 1001.11 724.078 1001.11 722.062C1001.11 720 999.588 718.5 997.455 718.477C996.096 718.477 995.065 718.922 994.479 719.977H992.041L993.143 710.531H1002.75V712.734H995.276L994.713 717.492H994.877C995.58 716.812 996.776 716.344 998.065 716.344C1001.25 716.344 1003.62 718.711 1003.62 721.992C1003.62 725.344 1001.11 727.734 997.572 727.734ZM1015.21 725.203C1012.96 725.203 1011.25 723.398 1011.25 720.328C1011.25 717.258 1013.01 715.477 1015.21 715.477C1016.83 715.477 1017.55 716.484 1017.83 717.07H1017.95V715.664H1019.99V722.227C1020.01 723.094 1020.37 723.492 1021.07 723.492C1022.38 723.492 1023.27 721.969 1023.27 719.695C1023.29 715.453 1020.25 712.664 1015.89 712.664C1011.37 712.688 1008.48 716.039 1008.48 720.328C1008.48 724.992 1010.99 728.062 1015.79 728.016C1017.46 727.992 1018.61 727.875 1019.99 727.5V729.375C1018.75 729.727 1017.34 729.938 1015.79 729.938C1009.98 729.938 1006.51 726.234 1006.51 720.328C1006.51 714.773 1010.4 710.742 1015.89 710.742C1021.44 710.742 1025.24 714.539 1025.24 719.625C1025.24 723.234 1023.41 725.32 1020.9 725.297C1019.39 725.297 1018.24 724.523 1018.07 723.445H1017.95C1017.65 724.031 1016.92 725.203 1015.21 725.203ZM1015.72 723.281C1017.2 723.281 1017.97 722.086 1018 720.305C1017.97 718.547 1017.22 717.398 1015.72 717.398C1014.25 717.398 1013.45 718.641 1013.45 720.305C1013.45 721.992 1014.27 723.281 1015.72 723.281ZM1033.76 732.539C1030.55 732.539 1028.44 731.109 1028.2 728.742H1030.76C1030.99 729.938 1032.12 730.523 1033.78 730.523C1035.77 730.523 1037.04 729.68 1037.04 727.688V725.18H1036.88C1036.43 726 1035.52 727.312 1033.17 727.312C1030.17 727.312 1027.85 725.062 1027.85 721.008C1027.85 716.953 1030.13 714.609 1033.2 714.609C1035.56 714.609 1036.43 716.039 1036.9 716.836H1037.06V714.773H1039.5V727.781C1039.5 731.039 1037.04 732.539 1033.76 732.539ZM1033.74 725.25C1035.87 725.25 1037.06 723.68 1037.06 721.055C1037.06 718.477 1035.89 716.742 1033.74 716.742C1031.51 716.742 1030.41 718.617 1030.41 721.055C1030.41 723.539 1031.56 725.25 1033.74 725.25ZM1043.03 727.5V714.773H1045.44V716.859H1045.58C1046.12 715.43 1047.36 714.609 1049.05 714.609C1050.74 714.609 1051.93 715.453 1052.47 716.859H1052.61C1053.22 715.477 1054.58 714.609 1056.43 714.609C1058.73 714.609 1060.37 716.062 1060.37 718.969V727.5H1057.86V719.203C1057.86 717.492 1056.79 716.766 1055.47 716.766C1053.86 716.766 1052.94 717.867 1052.94 719.391V727.5H1050.46V719.062C1050.46 717.68 1049.5 716.766 1048.14 716.766C1046.73 716.766 1045.54 717.938 1045.54 719.648V727.5H1043.03ZM1063.29 723.914C1063.29 721.008 1065.75 720.258 1068.05 720.094C1068.89 720.035 1070.8 719.93 1071.4 719.906L1071.38 718.898C1071.38 717.469 1070.51 716.625 1068.8 716.625C1067.32 716.625 1066.43 717.305 1066.17 718.242H1063.69C1063.92 716.133 1065.89 714.609 1068.89 714.609C1070.91 714.609 1073.88 715.359 1073.88 719.039V727.5H1071.45V725.766H1071.35C1070.86 726.727 1069.69 727.781 1067.58 727.781C1065.16 727.781 1063.29 726.398 1063.29 723.914ZM1065.73 723.938C1065.73 725.156 1066.73 725.789 1068.14 725.789C1070.18 725.789 1071.4 724.43 1071.4 722.906V721.734L1068.4 721.945C1066.76 722.062 1065.73 722.672 1065.73 723.938ZM1077.39 727.5V714.773H1079.89V727.5H1077.39ZM1078.65 712.805C1077.79 712.805 1077.06 712.148 1077.06 711.328C1077.06 710.508 1077.79 709.852 1078.65 709.852C1079.5 709.852 1080.22 710.508 1080.22 711.328C1080.22 712.148 1079.5 712.805 1078.65 712.805ZM1085.93 710.531V727.5H1083.42V710.531H1085.93ZM1091.1 727.664C1090.18 727.664 1089.41 726.914 1089.43 726C1089.41 725.086 1090.18 724.336 1091.1 724.336C1091.99 724.336 1092.76 725.086 1092.76 726C1092.76 726.914 1091.99 727.664 1091.1 727.664ZM1101.65 727.758C1097.95 727.758 1095.7 725.016 1095.7 721.195C1095.7 717.305 1098.02 714.609 1101.61 714.609C1104.51 714.609 1106.62 716.32 1106.88 718.898H1104.44C1104.19 717.703 1103.23 716.695 1101.65 716.695C1099.59 716.695 1098.21 718.406 1098.21 721.125C1098.21 723.914 1099.57 725.625 1101.65 725.625C1103.06 725.625 1104.14 724.852 1104.44 723.469H1106.88C1106.6 725.93 1104.65 727.758 1101.65 727.758ZM1115.12 727.758C1111.51 727.758 1109.17 725.133 1109.17 721.195C1109.17 717.234 1111.51 714.609 1115.12 714.609C1118.7 714.609 1121.05 717.234 1121.05 721.195C1121.05 725.133 1118.7 727.758 1115.12 727.758ZM1115.12 725.672C1117.42 725.672 1118.52 723.633 1118.52 721.195C1118.52 718.758 1117.42 716.672 1115.12 716.672C1112.78 716.672 1111.67 718.758 1111.67 721.195C1111.67 723.633 1112.78 725.672 1115.12 725.672ZM1123.99 727.5V714.773H1126.4V716.859H1126.54C1127.08 715.43 1128.33 714.609 1130.01 714.609C1131.7 714.609 1132.9 715.453 1133.43 716.859H1133.58C1134.18 715.477 1135.54 714.609 1137.4 714.609C1139.69 714.609 1141.33 716.062 1141.33 718.969V727.5H1138.83V719.203C1138.83 717.492 1137.75 716.766 1136.43 716.766C1134.82 716.766 1133.9 717.867 1133.9 719.391V727.5H1131.42V719.062C1131.42 717.68 1130.46 716.766 1129.1 716.766C1127.69 716.766 1126.5 717.938 1126.5 719.648V727.5H1123.99Z" fill="#494D5B"/>
<rect x="710" y="799" width="80" height="80" rx="40" fill="#56AFDF"/>
<path d="M740.102 844.047V845.355H724.203V844.047H740.102ZM738.578 831.977V833.246H735.824V839.32H738.539V840.57H725.648V839.32H728.363V833.246H725.609V831.977H738.578ZM729.887 839.32H734.32V833.246H729.887V839.32ZM757.787 844.145V845.434H741.888V844.145H749.037V840.863H743.88V835.512H754.271V832.777H743.841V831.508H755.775V836.762H745.404V839.594H756.185V840.863H750.541V844.145H757.787ZM773.929 830.219V839.242H772.386V830.219H773.929ZM773.929 840.082V844.223H764.124V846.137H774.593V847.387H762.62V843.07H772.405V841.312H762.562V840.082H773.929ZM769.749 831.41V832.641H767.991V837.074C768.89 837.025 769.779 836.938 770.609 836.84L770.687 837.973C767.21 838.48 763.128 838.617 760.062 838.617L759.866 837.348L762.093 837.328V832.641H760.355V831.41H769.749ZM763.577 837.289C764.534 837.27 765.521 837.24 766.507 837.172V832.641H763.577V837.289Z" fill="white"/>
<path d="M840.336 829.758C844.836 829.781 848.094 831.984 848.094 835.336C848.094 838.488 845.363 840.562 841.438 840.891V845.016H849.992V846.867H830.773V845.016H839.234V840.891C835.332 840.562 832.602 838.488 832.602 835.336C832.602 831.984 835.859 829.781 840.336 829.758ZM840.336 831.586C837.102 831.562 834.758 833.062 834.758 835.336C834.758 837.703 837.102 839.156 840.336 839.18C843.594 839.156 845.938 837.703 845.938 835.336C845.938 833.062 843.594 831.562 840.336 831.586ZM869.503 828.492V840.984H867.277V835.664H863.363V833.836H867.277V828.492H869.503ZM862.472 841.57C866.878 841.57 869.574 843.023 869.574 845.531C869.574 848.039 866.878 849.469 862.472 849.492C858.066 849.469 855.347 848.039 855.371 845.531C855.347 843.023 858.066 841.57 862.472 841.57ZM862.472 843.305C859.402 843.305 857.574 844.102 857.574 845.531C857.574 846.938 859.402 847.758 862.472 847.734C865.542 847.758 867.371 846.938 867.371 845.531C867.371 844.102 865.542 843.305 862.472 843.305ZM859.519 832.195C859.519 834.867 861.417 837.445 864.582 838.523L863.433 840.281C861.078 839.461 859.343 837.785 858.441 835.711C857.515 838.066 855.675 839.953 853.167 840.867L851.996 839.086C855.253 837.961 857.246 835.125 857.246 832.219V831.75H852.699V829.945H864.019V831.75H859.519V832.195ZM892.366 839.461V841.242H873.218V839.461H892.366ZM890.21 847.242V849.047H875.632V842.953H877.882V847.242H890.21ZM882.78 829.195C887.327 829.172 890.28 830.766 890.28 833.391C890.28 836.039 887.327 837.633 882.78 837.656C878.21 837.633 875.28 836.039 875.28 833.391C875.28 830.766 878.21 829.172 882.78 829.195ZM882.78 830.977C879.569 830.977 877.554 831.891 877.577 833.391C877.554 834.938 879.569 835.828 882.78 835.828C885.991 835.828 887.983 834.938 887.983 833.391C887.983 831.891 885.991 830.977 882.78 830.977ZM904.998 828.141V849.891H902.748V828.141H904.998ZM916.083 847.5V830.531H918.591V840.141H918.802L923.841 834.773H926.841L921.708 840.234L927.192 847.5H924.122L919.81 841.781L918.591 842.977V847.5H916.083ZM929.29 847.5V834.773H931.798V847.5H929.29ZM930.555 832.805C929.688 832.805 928.962 832.148 928.962 831.328C928.962 830.508 929.688 829.852 930.555 829.852C931.399 829.852 932.126 830.508 932.126 831.328C932.126 832.148 931.399 832.805 930.555 832.805ZM935.324 847.5V834.773H937.832V847.5H935.324ZM936.59 832.805C935.723 832.805 934.996 832.148 934.996 831.328C934.996 830.508 935.723 829.852 936.59 829.852C937.434 829.852 938.16 830.508 938.16 831.328C938.16 832.148 937.434 832.805 936.59 832.805ZM941.359 847.5V834.773H943.867V847.5H941.359ZM942.625 832.805C941.757 832.805 941.031 832.148 941.031 831.328C941.031 830.508 941.757 829.852 942.625 829.852C943.468 829.852 944.195 830.508 944.195 831.328C944.195 832.148 943.468 832.805 942.625 832.805ZM947.394 847.5V834.773H949.902V847.5H947.394ZM948.659 832.805C947.792 832.805 947.066 832.148 947.066 831.328C947.066 830.508 947.792 829.852 948.659 829.852C949.503 829.852 950.23 830.508 950.23 831.328C950.23 832.148 949.503 832.805 948.659 832.805ZM953.428 847.5V830.531H955.936V840.141H956.147L961.186 834.773H964.186L959.053 840.234L964.538 847.5H961.467L957.155 841.781L955.936 842.977V847.5H953.428ZM966.635 847.5V834.773H969.143V847.5H966.635ZM967.901 832.805C967.033 832.805 966.307 832.148 966.307 831.328C966.307 830.508 967.033 829.852 967.901 829.852C968.744 829.852 969.471 830.508 969.471 831.328C969.471 832.148 968.744 832.805 967.901 832.805ZM972.67 847.5V830.531H975.178V840.141H975.388L980.428 834.773H983.428L978.295 840.234L983.779 847.5H980.709L976.396 841.781L975.178 842.977V847.5H972.67ZM985.876 847.5V834.773H988.384V847.5H985.876ZM987.142 832.805C986.275 832.805 985.548 832.148 985.548 831.328C985.548 830.508 986.275 829.852 987.142 829.852C987.986 829.852 988.712 830.508 988.712 831.328C988.712 832.148 987.986 832.805 987.142 832.805ZM998.028 847.734C994.887 847.711 991.606 845.859 991.606 839.578C991.606 833.672 994.161 830.297 998.239 830.297C1001.36 830.297 1003.54 832.242 1003.93 834.938H1001.38C1001.05 833.555 999.95 832.547 998.239 832.547C995.614 832.547 994.091 834.844 994.091 838.664H994.278C995.192 837.234 996.786 836.367 998.637 836.367C1001.66 836.367 1004.1 838.688 1004.1 841.945C1004.1 845.227 1001.68 847.758 998.028 847.734ZM998.005 845.578C1000.07 845.578 1001.59 843.984 1001.59 841.992C1001.59 840.047 1000.11 838.477 998.075 838.477C995.989 838.477 994.419 840.117 994.395 842.016C994.419 843.891 995.919 845.578 998.005 845.578ZM1013.46 847.734C1010.32 847.711 1007.04 845.859 1007.04 839.578C1007.04 833.672 1009.59 830.297 1013.67 830.297C1016.79 830.297 1018.97 832.242 1019.37 834.938H1016.81C1016.48 833.555 1015.38 832.547 1013.67 832.547C1011.05 832.547 1009.52 834.844 1009.52 838.664H1009.71C1010.63 837.234 1012.22 836.367 1014.07 836.367C1017.09 836.367 1019.53 838.688 1019.53 841.945C1019.53 845.227 1017.12 847.758 1013.46 847.734ZM1013.44 845.578C1015.5 845.578 1017.02 843.984 1017.02 841.992C1017.02 840.047 1015.55 838.477 1013.51 838.477C1011.42 838.477 1009.85 840.117 1009.83 842.016C1009.85 843.891 1011.35 845.578 1013.44 845.578ZM1028.89 847.734C1025.75 847.711 1022.47 845.859 1022.47 839.578C1022.47 833.672 1025.03 830.297 1029.11 830.297C1032.22 830.297 1034.4 832.242 1034.8 834.938H1032.25C1031.92 833.555 1030.82 832.547 1029.11 832.547C1026.48 832.547 1024.96 834.844 1024.96 838.664H1025.14C1026.06 837.234 1027.65 836.367 1029.5 836.367C1032.53 836.367 1034.96 838.688 1034.96 841.945C1034.96 845.227 1032.55 847.758 1028.89 847.734ZM1028.87 845.578C1030.93 845.578 1032.46 843.984 1032.46 841.992C1032.46 840.047 1030.98 838.477 1028.94 838.477C1026.86 838.477 1025.29 840.117 1025.26 842.016C1025.29 843.891 1026.79 845.578 1028.87 845.578ZM1046.55 845.203C1044.3 845.203 1042.59 843.398 1042.59 840.328C1042.59 837.258 1044.35 835.477 1046.55 835.477C1048.17 835.477 1048.9 836.484 1049.18 837.07H1049.3V835.664H1051.34V842.227C1051.36 843.094 1051.71 843.492 1052.41 843.492C1053.73 843.492 1054.62 841.969 1054.62 839.695C1054.64 835.453 1051.59 832.664 1047.23 832.664C1042.71 832.688 1039.83 836.039 1039.83 840.328C1039.83 844.992 1042.34 848.062 1047.14 848.016C1048.8 847.992 1049.95 847.875 1051.34 847.5V849.375C1050.09 849.727 1048.69 849.938 1047.14 849.938C1041.33 849.938 1037.86 846.234 1037.86 840.328C1037.86 834.773 1041.75 830.742 1047.23 830.742C1052.79 830.742 1056.59 834.539 1056.59 839.625C1056.59 843.234 1054.76 845.32 1052.25 845.297C1050.74 845.297 1049.59 844.523 1049.41 843.445H1049.3C1048.99 844.031 1048.26 845.203 1046.55 845.203ZM1047.07 843.281C1048.55 843.281 1049.32 842.086 1049.34 840.305C1049.32 838.547 1048.57 837.398 1047.07 837.398C1045.59 837.398 1044.8 838.641 1044.8 840.305C1044.8 841.992 1045.62 843.281 1047.07 843.281ZM1065.1 852.539C1061.89 852.539 1059.78 851.109 1059.55 848.742H1062.1C1062.34 849.938 1063.46 850.523 1065.13 850.523C1067.12 850.523 1068.39 849.68 1068.39 847.688V845.18H1068.22C1067.78 846 1066.86 847.312 1064.52 847.312C1061.52 847.312 1059.2 845.062 1059.2 841.008C1059.2 836.953 1061.47 834.609 1064.54 834.609C1066.91 834.609 1067.78 836.039 1068.24 836.836H1068.41V834.773H1070.85V847.781C1070.85 851.039 1068.39 852.539 1065.1 852.539ZM1065.08 845.25C1067.21 845.25 1068.41 843.68 1068.41 841.055C1068.41 838.477 1067.24 836.742 1065.08 836.742C1062.85 836.742 1061.75 838.617 1061.75 841.055C1061.75 843.539 1062.9 845.25 1065.08 845.25ZM1074.37 847.5V834.773H1076.79V836.859H1076.93C1077.47 835.43 1078.71 834.609 1080.4 834.609C1082.08 834.609 1083.28 835.453 1083.82 836.859H1083.96C1084.57 835.477 1085.93 834.609 1087.78 834.609C1090.08 834.609 1091.72 836.062 1091.72 838.969V847.5H1089.21V839.203C1089.21 837.492 1088.13 836.766 1086.82 836.766C1085.2 836.766 1084.29 837.867 1084.29 839.391V847.5H1081.8V839.062C1081.8 837.68 1080.84 836.766 1079.48 836.766C1078.08 836.766 1076.88 837.938 1076.88 839.648V847.5H1074.37ZM1094.63 843.914C1094.63 841.008 1097.1 840.258 1099.39 840.094C1100.24 840.035 1102.15 839.93 1102.74 839.906L1102.72 838.898C1102.72 837.469 1101.85 836.625 1100.14 836.625C1098.67 836.625 1097.78 837.305 1097.52 838.242H1095.03C1095.27 836.133 1097.24 834.609 1100.24 834.609C1102.25 834.609 1105.23 835.359 1105.23 839.039V847.5H1102.79V845.766H1102.7C1102.2 846.727 1101.03 847.781 1098.92 847.781C1096.51 847.781 1094.63 846.398 1094.63 843.914ZM1097.07 843.938C1097.07 845.156 1098.08 845.789 1099.49 845.789C1101.53 845.789 1102.74 844.43 1102.74 842.906V841.734L1099.74 841.945C1098.1 842.062 1097.07 842.672 1097.07 843.938ZM1108.73 847.5V834.773H1111.24V847.5H1108.73ZM1110 832.805C1109.13 832.805 1108.4 832.148 1108.4 831.328C1108.4 830.508 1109.13 829.852 1110 829.852C1110.84 829.852 1111.57 830.508 1111.57 831.328C1111.57 832.148 1110.84 832.805 1110 832.805ZM1117.27 830.531V847.5H1114.77V830.531H1117.27ZM1122.44 847.664C1121.53 847.664 1120.75 846.914 1120.78 846C1120.75 845.086 1121.53 844.336 1122.44 844.336C1123.33 844.336 1124.11 845.086 1124.11 846C1124.11 846.914 1123.33 847.664 1122.44 847.664ZM1133 847.758C1129.3 847.758 1127.05 845.016 1127.05 841.195C1127.05 837.305 1129.37 834.609 1132.95 834.609C1135.86 834.609 1137.97 836.32 1138.23 838.898H1135.79C1135.53 837.703 1134.57 836.695 1133 836.695C1130.94 836.695 1129.55 838.406 1129.55 841.125C1129.55 843.914 1130.91 845.625 1133 845.625C1134.41 845.625 1135.48 844.852 1135.79 843.469H1138.23C1137.95 845.93 1136 847.758 1133 847.758ZM1146.46 847.758C1142.86 847.758 1140.51 845.133 1140.51 841.195C1140.51 837.234 1142.86 834.609 1146.46 834.609C1150.05 834.609 1152.39 837.234 1152.39 841.195C1152.39 845.133 1150.05 847.758 1146.46 847.758ZM1146.46 845.672C1148.76 845.672 1149.86 843.633 1149.86 841.195C1149.86 838.758 1148.76 836.672 1146.46 836.672C1144.12 836.672 1143.02 838.758 1143.02 841.195C1143.02 843.633 1144.12 845.672 1146.46 845.672ZM1155.33 847.5V834.773H1157.75V836.859H1157.89C1158.43 835.43 1159.67 834.609 1161.36 834.609C1163.05 834.609 1164.24 835.453 1164.78 836.859H1164.92C1165.53 835.477 1166.89 834.609 1168.74 834.609C1171.04 834.609 1172.68 836.062 1172.68 838.969V847.5H1170.17V839.203C1170.17 837.492 1169.09 836.766 1167.78 836.766C1166.16 836.766 1165.25 837.867 1165.25 839.391V847.5H1162.76V839.062C1162.76 837.68 1161.8 836.766 1160.44 836.766C1159.04 836.766 1157.84 837.938 1157.84 839.648V847.5H1155.33Z" fill="#494D5B"/>
<path d="M1360.06 587.352V589.531H1340.7V587.352H1360.06ZM1358.38 572.867V574.953H1355.28V581.703H1358.3V583.766H1342.37V581.703H1345.34V574.953H1342.3V572.867H1358.38ZM1347.95 581.703H1352.7V574.953H1347.95V581.703ZM1381.28 587.469V589.625H1361.93V587.469H1370.27V584.023H1364.22V577.086H1376.41V574.461H1364.18V572.352H1378.99V579.148H1366.82V581.891H1379.48V584.023H1372.85V587.469H1381.28ZM1400 572.961V575.352C1400 578.188 1400 581.117 1399.23 585.57L1396.58 585.336C1397.4 581.164 1397.4 578.094 1397.4 575.352V575.07H1385.19V572.961H1400ZM1402.46 587.047V589.18H1383.15V587.047H1402.46ZM1412.99 573.055V580.953H1407.51V585.078C1409.67 585.055 1411.72 584.973 1414.07 584.586L1414.26 586.695C1411.4 587.164 1409.08 587.258 1406.46 587.258H1405V578.844H1410.49V575.164H1404.98V573.055H1412.99ZM1422.6 570.898V592.086H1420.12V581.141H1417.73V591.008H1415.34V571.297H1417.73V579.031H1420.12V570.898H1422.6ZM1436.89 572.422V581.844H1426.67V572.422H1436.89ZM1429.25 574.484V579.734H1434.31V574.484H1429.25ZM1443.24 570.922V583.438H1440.62V570.922H1443.24ZM1436.12 583.812C1440.52 583.812 1443.31 585.336 1443.31 587.938C1443.31 590.539 1440.52 592.062 1436.12 592.062C1431.62 592.062 1428.83 590.539 1428.83 587.938C1428.83 585.336 1431.62 583.812 1436.12 583.812ZM1436.12 585.852C1433.09 585.852 1431.45 586.555 1431.45 587.938C1431.45 589.273 1433.09 590.023 1436.12 590.023C1439.02 590.023 1440.71 589.273 1440.71 587.938C1440.71 586.555 1439.02 585.852 1436.12 585.852ZM1457.75 570.641V592.391H1454.96V570.641H1457.75ZM1468.64 590V573.031H1475.02C1478.91 573.031 1481 575.398 1481 578.656C1481 581.914 1478.89 584.258 1474.97 584.258H1471.69V590H1468.64ZM1471.69 581.75H1474.55C1476.85 581.75 1477.88 580.461 1477.88 578.656C1477.88 576.828 1476.85 575.586 1474.55 575.586H1471.69V581.75ZM1483.8 590V577.273H1486.7V579.383H1486.84C1487.29 577.93 1488.53 577.086 1489.98 577.086C1490.31 577.086 1490.78 577.109 1491.06 577.156V579.922C1490.8 579.828 1490.17 579.734 1489.68 579.734C1488.02 579.734 1486.8 580.883 1486.8 582.5V590H1483.8ZM1498.46 590.258C1494.75 590.258 1492.36 587.633 1492.36 583.695C1492.36 579.734 1494.75 577.109 1498.46 577.109C1502.18 577.109 1504.55 579.734 1504.55 583.695C1504.55 587.633 1502.18 590.258 1498.46 590.258ZM1498.48 587.867C1500.52 587.867 1501.53 586.016 1501.53 583.672C1501.53 581.352 1500.52 579.477 1498.48 579.477C1496.39 579.477 1495.39 581.352 1495.39 583.672C1495.39 586.016 1496.39 587.867 1498.48 587.867ZM1512.9 595.039C1509.53 595.039 1507.4 593.539 1507.19 591.148H1510.16C1510.37 592.25 1511.43 592.789 1512.95 592.789C1514.73 592.789 1515.9 592.016 1515.9 590.141V587.703H1515.76C1515.3 588.641 1514.29 589.812 1512.08 589.812C1509.15 589.812 1506.83 587.68 1506.83 583.531C1506.83 579.336 1509.15 577.109 1512.11 577.109C1514.36 577.109 1515.3 578.445 1515.76 579.359H1515.9V577.273H1518.86V590.211C1518.86 593.469 1516.35 595.039 1512.9 595.039ZM1512.9 587.469C1514.83 587.469 1515.93 586.016 1515.93 583.578C1515.93 581.164 1514.85 579.547 1512.9 579.547C1510.91 579.547 1509.88 581.258 1509.88 583.578C1509.88 585.922 1510.94 587.469 1512.9 587.469ZM1522.2 590V577.273H1525.1V579.383H1525.24C1525.69 577.93 1526.93 577.086 1528.38 577.086C1528.71 577.086 1529.18 577.109 1529.46 577.156V579.922C1529.21 579.828 1528.57 579.734 1528.08 579.734C1526.42 579.734 1525.2 580.883 1525.2 582.5V590H1522.2ZM1530.9 586.414C1530.9 583.555 1533.27 582.711 1535.64 582.57C1536.52 582.512 1538.35 582.406 1538.9 582.383V581.375C1538.9 580.109 1538.08 579.383 1536.6 579.383C1535.26 579.383 1534.44 579.992 1534.21 580.906H1531.33C1531.54 578.75 1533.48 577.109 1536.67 577.109C1539.08 577.109 1541.87 578.094 1541.87 581.492V590H1539.01V588.242H1538.92C1538.36 589.32 1537.16 590.258 1535.17 590.258C1532.73 590.258 1530.9 588.922 1530.9 586.414ZM1533.79 586.391C1533.79 587.492 1534.68 588.055 1535.94 588.055C1537.75 588.055 1538.92 586.859 1538.92 585.43V584.375L1536.11 584.562C1534.68 584.68 1533.79 585.266 1533.79 586.391ZM1545.17 590V577.273H1548.02V579.43H1548.19C1548.7 577.977 1549.99 577.109 1551.68 577.109C1553.42 577.109 1554.63 577.977 1555.13 579.43H1555.27C1555.83 578.023 1557.24 577.109 1559.09 577.109C1561.41 577.109 1563.05 578.609 1563.05 581.445V590H1560.07V581.914C1560.07 580.32 1559.11 579.617 1557.89 579.617C1556.42 579.617 1555.57 580.625 1555.57 582.055V590H1552.67V581.797C1552.67 580.484 1551.77 579.617 1550.51 579.617C1549.22 579.617 1548.17 580.672 1548.17 582.266V590H1545.17ZM1566.39 590V577.273H1569.25V579.43H1569.41C1569.93 577.977 1571.22 577.109 1572.9 577.109C1574.64 577.109 1575.86 577.977 1576.35 579.43H1576.49C1577.05 578.023 1578.46 577.109 1580.31 577.109C1582.63 577.109 1584.27 578.609 1584.27 581.445V590H1581.29V581.914C1581.29 580.32 1580.33 579.617 1579.11 579.617C1577.64 579.617 1576.79 580.625 1576.79 582.055V590H1573.89V581.797C1573.89 580.484 1573 579.617 1571.73 579.617C1570.44 579.617 1569.39 580.672 1569.39 582.266V590H1566.39ZM1593.26 590.258C1589.41 590.258 1587.07 587.703 1587.07 583.719C1587.07 579.781 1589.46 577.109 1593.09 577.109C1596.21 577.109 1598.91 579.055 1598.91 583.531V584.469H1590.02C1590.06 586.637 1591.34 587.914 1593.28 587.914C1594.59 587.914 1595.48 587.352 1595.86 586.602H1598.79C1598.25 588.805 1596.21 590.258 1593.26 590.258ZM1590.05 582.43H1596.05C1596.02 580.695 1594.88 579.43 1593.14 579.43C1591.34 579.43 1590.14 580.801 1590.05 582.43ZM1601.71 590V577.273H1604.61V579.383H1604.75C1605.2 577.93 1606.44 577.086 1607.89 577.086C1608.22 577.086 1608.69 577.109 1608.97 577.156V579.922C1608.71 579.828 1608.08 579.734 1607.59 579.734C1605.93 579.734 1604.71 580.883 1604.71 582.5V590H1601.71Z" fill="#494D5B"/>
<rect x="1340" y="679" width="80" height="80" rx="40" fill="#56AFDF"/>
<path d="M1370.1 724.047V725.355H1354.2V724.047H1370.1ZM1368.58 711.977V713.246H1365.82V719.32H1368.54V720.57H1355.65V719.32H1358.36V713.246H1355.61V711.977H1368.58ZM1359.89 719.32H1364.32V713.246H1359.89V719.32ZM1387.79 724.145V725.434H1371.89V724.145H1379.04V720.863H1373.88V715.512H1384.27V712.777H1373.84V711.508H1385.77V716.762H1375.4V719.594H1386.19V720.863H1380.54V724.145H1387.79ZM1403.93 710.219V719.242H1402.39V710.219H1403.93ZM1403.93 720.082V724.223H1394.12V726.137H1404.59V727.387H1392.62V723.07H1402.41V721.312H1392.56V720.082H1403.93ZM1399.75 711.41V712.641H1397.99V717.074C1398.89 717.025 1399.78 716.938 1400.61 716.84L1400.69 717.973C1397.21 718.48 1393.13 718.617 1390.06 718.617L1389.87 717.348L1392.09 717.328V712.641H1390.35V711.41H1399.75ZM1393.58 717.289C1394.53 717.27 1395.52 717.24 1396.51 717.172V712.641H1393.58V717.289Z" fill="white"/>
<path d="M1463.59 710.438V715.453H1467.59V710.438H1469.66V724.312H1461.48V710.438H1463.59ZM1463.59 722.508H1467.59V717.211H1463.59V722.508ZM1478.84 708.492V729.492H1476.71V718.547H1474.11V728.461H1472V708.891H1474.11V716.719H1476.71V708.492H1478.84ZM1499.43 709.5V711.281H1493.03C1493.16 713.566 1496.19 715.582 1500.09 716.062L1499.25 717.82C1495.65 717.352 1492.69 715.676 1491.56 713.32C1490.42 715.664 1487.48 717.352 1483.89 717.82L1483.05 716.062C1486.98 715.582 1489.96 713.566 1490.08 711.281H1483.75V709.5H1499.43ZM1501.19 719.18V720.984H1492.85V725.062H1490.64V720.984H1481.97V719.18H1501.19ZM1499.06 727.242V729.047H1484.36V723.047H1486.59V727.242H1499.06ZM1509.17 709.195C1512.33 709.219 1514.66 711.164 1514.68 713.906C1514.66 716.672 1512.33 718.594 1509.17 718.594C1505.98 718.594 1503.64 716.672 1503.64 713.906C1503.64 711.164 1505.98 709.219 1509.17 709.195ZM1509.17 711.07C1507.23 711.047 1505.8 712.195 1505.82 713.906C1505.8 715.641 1507.23 716.789 1509.17 716.789C1511.09 716.789 1512.52 715.641 1512.52 713.906C1512.52 712.195 1511.09 711.047 1509.17 711.07ZM1520.63 708.492V719.18H1518.41V708.492H1520.63ZM1520.63 720.141V725.438H1509.05V727.453H1521.33V729.234H1506.9V723.773H1518.43V721.922H1506.83V720.141H1520.63ZM1535 708.141V729.891H1532.75V708.141H1535ZM1546.08 714.773H1548.59V728.32C1548.59 730.898 1547.16 732.281 1544.54 732.281C1544.37 732.281 1544.21 732.281 1544.02 732.258V730.125H1544.42C1545.59 730.125 1546.08 729.469 1546.08 728.297V714.773ZM1547.33 712.805C1546.46 712.805 1545.73 712.148 1545.73 711.328C1545.73 710.508 1546.46 709.852 1547.33 709.852C1548.17 709.852 1548.9 710.508 1548.9 711.328C1548.9 712.148 1548.17 712.805 1547.33 712.805ZM1552.12 727.5V714.773H1554.63V727.5H1552.12ZM1553.38 712.805C1552.52 712.805 1551.79 712.148 1551.79 711.328C1551.79 710.508 1552.52 709.852 1553.38 709.852C1554.23 709.852 1554.95 710.508 1554.95 711.328C1554.95 712.148 1554.23 712.805 1553.38 712.805ZM1564.04 727.734C1560.1 727.734 1557.8 724.57 1557.8 719.016C1557.8 713.508 1560.14 710.297 1564.04 710.297C1567.93 710.297 1570.27 713.508 1570.27 719.016C1570.27 724.57 1567.95 727.734 1564.04 727.734ZM1564.04 725.508C1566.33 725.508 1567.69 723.258 1567.69 719.016C1567.69 714.797 1566.31 712.477 1564.04 712.477C1561.76 712.477 1560.38 714.797 1560.38 719.016C1560.38 723.258 1561.74 725.508 1564.04 725.508ZM1579.33 727.734C1575.39 727.734 1573.09 724.57 1573.09 719.016C1573.09 713.508 1575.44 710.297 1579.33 710.297C1583.22 710.297 1585.56 713.508 1585.56 719.016C1585.56 724.57 1583.24 727.734 1579.33 727.734ZM1579.33 725.508C1581.62 725.508 1582.98 723.258 1582.98 719.016C1582.98 714.797 1581.6 712.477 1579.33 712.477C1577.05 712.477 1575.67 714.797 1575.67 719.016C1575.67 723.258 1577.03 725.508 1579.33 725.508ZM1594.55 710.297C1597.67 710.32 1600.95 712.195 1600.95 718.406C1600.95 724.359 1598.39 727.734 1594.32 727.734C1591.2 727.734 1589 725.812 1588.6 723.047H1591.15C1591.5 724.477 1592.6 725.484 1594.32 725.484C1596.94 725.484 1598.46 723.188 1598.49 719.32H1598.28C1597.36 720.75 1595.77 721.617 1593.94 721.617C1590.89 721.617 1588.46 719.297 1588.46 716.039C1588.46 712.805 1590.87 710.273 1594.55 710.297ZM1594.55 712.453C1592.49 712.453 1590.96 714.047 1590.96 715.992C1590.96 717.961 1592.44 719.508 1594.5 719.508C1596.54 719.508 1598.14 717.844 1598.14 715.969C1598.14 714.141 1596.64 712.453 1594.55 712.453ZM1610.08 727.734C1606.4 727.734 1603.82 725.742 1603.84 722.977C1603.82 720.797 1605.39 719.016 1607.38 718.711V718.617C1605.65 718.219 1604.48 716.672 1604.48 714.82C1604.48 712.219 1606.84 710.297 1610.08 710.297C1613.29 710.297 1615.63 712.219 1615.65 714.82C1615.63 716.672 1614.46 718.219 1612.75 718.617V718.711C1614.72 719.016 1616.29 720.797 1616.31 722.977C1616.29 725.742 1613.71 727.734 1610.08 727.734ZM1610.08 725.602C1612.28 725.602 1613.69 724.453 1613.69 722.789C1613.69 721.031 1612.16 719.766 1610.08 719.766C1607.97 719.766 1606.42 721.031 1606.47 722.789C1606.42 724.453 1607.83 725.602 1610.08 725.602ZM1610.08 717.727C1611.86 717.727 1613.12 716.648 1613.12 715.055C1613.12 713.484 1611.88 712.406 1610.08 712.406C1608.2 712.406 1606.98 713.461 1606.98 715.055C1606.98 716.648 1608.27 717.727 1610.08 717.727ZM1625.6 727.734C1622.46 727.711 1619.18 725.859 1619.18 719.578C1619.18 713.672 1621.74 710.297 1625.81 710.297C1628.93 710.297 1631.11 712.242 1631.51 714.938H1628.96C1628.63 713.555 1627.53 712.547 1625.81 712.547C1623.19 712.547 1621.67 714.844 1621.67 718.664H1621.85C1622.77 717.234 1624.36 716.367 1626.21 716.367C1629.24 716.367 1631.67 718.688 1631.67 721.945C1631.67 725.227 1629.26 727.758 1625.6 727.734ZM1625.58 725.578C1627.64 725.578 1629.17 723.984 1629.17 721.992C1629.17 720.047 1627.69 718.477 1625.65 718.477C1623.56 718.477 1621.99 720.117 1621.97 722.016C1621.99 723.891 1623.49 725.578 1625.58 725.578ZM1640.83 727.734C1637.15 727.734 1634.57 725.742 1634.59 722.977C1634.57 720.797 1636.14 719.016 1638.13 718.711V718.617C1636.4 718.219 1635.22 716.672 1635.22 714.82C1635.22 712.219 1637.59 710.297 1640.83 710.297C1644.04 710.297 1646.38 712.219 1646.4 714.82C1646.38 716.672 1645.21 718.219 1643.5 718.617V718.711C1645.47 719.016 1647.04 720.797 1647.06 722.977C1647.04 725.742 1644.46 727.734 1640.83 727.734ZM1640.83 725.602C1643.03 725.602 1644.44 724.453 1644.44 722.789C1644.44 721.031 1642.91 719.766 1640.83 719.766C1638.72 719.766 1637.17 721.031 1637.22 722.789C1637.17 724.453 1638.58 725.602 1640.83 725.602ZM1640.83 717.727C1642.61 717.727 1643.87 716.648 1643.87 715.055C1643.87 713.484 1642.63 712.406 1640.83 712.406C1638.95 712.406 1637.73 713.461 1637.73 715.055C1637.73 716.648 1639.02 717.727 1640.83 717.727ZM1658.58 725.203C1656.33 725.203 1654.62 723.398 1654.62 720.328C1654.62 717.258 1656.38 715.477 1658.58 715.477C1660.2 715.477 1660.92 716.484 1661.2 717.07H1661.32V715.664H1663.36V722.227C1663.38 723.094 1663.74 723.492 1664.44 723.492C1665.75 723.492 1666.64 721.969 1666.64 719.695C1666.67 715.453 1663.62 712.664 1659.26 712.664C1654.74 712.688 1651.85 716.039 1651.85 720.328C1651.85 724.992 1654.36 728.062 1659.17 728.016C1660.83 727.992 1661.98 727.875 1663.36 727.5V729.375C1662.12 729.727 1660.71 729.938 1659.17 729.938C1653.35 729.938 1649.88 726.234 1649.88 720.328C1649.88 714.773 1653.77 710.742 1659.26 710.742C1664.81 710.742 1668.61 714.539 1668.61 719.625C1668.61 723.234 1666.78 725.32 1664.27 725.297C1662.76 725.297 1661.61 724.523 1661.44 723.445H1661.32C1661.02 724.031 1660.29 725.203 1658.58 725.203ZM1659.1 723.281C1660.57 723.281 1661.35 722.086 1661.37 720.305C1661.35 718.547 1660.6 717.398 1659.1 717.398C1657.62 717.398 1656.82 718.641 1656.82 720.305C1656.82 721.992 1657.64 723.281 1659.1 723.281ZM1674.29 719.953V727.5H1671.79V714.773H1674.2V716.859H1674.34C1674.95 715.5 1676.19 714.609 1678.09 714.609C1680.72 714.609 1682.43 716.25 1682.43 719.414V727.5H1679.94V719.719C1679.94 717.867 1678.93 716.766 1677.25 716.766C1675.54 716.766 1674.29 717.914 1674.29 719.953ZM1685.37 723.914C1685.37 721.008 1687.83 720.258 1690.13 720.094C1690.97 720.035 1692.88 719.93 1693.48 719.906L1693.45 718.898C1693.45 717.469 1692.59 716.625 1690.88 716.625C1689.4 716.625 1688.51 717.305 1688.25 718.242H1685.77C1686 716.133 1687.97 714.609 1690.97 714.609C1692.98 714.609 1695.96 715.359 1695.96 719.039V727.5H1693.52V725.766H1693.43C1692.94 726.727 1691.77 727.781 1689.66 727.781C1687.24 727.781 1685.37 726.398 1685.37 723.914ZM1687.8 723.938C1687.8 725.156 1688.81 725.789 1690.22 725.789C1692.26 725.789 1693.48 724.43 1693.48 722.906V721.734L1690.48 721.945C1688.84 722.062 1687.8 722.672 1687.8 723.938ZM1709.92 714.773L1705.3 727.5H1702.61L1697.99 714.773H1700.68L1703.89 724.547H1704.01L1707.22 714.773H1709.92ZM1717.48 727.758C1713.73 727.758 1711.43 725.18 1711.43 721.219C1711.43 717.305 1713.77 714.609 1717.31 714.609C1720.22 714.609 1722.96 716.414 1722.96 721.008V721.898H1713.91C1713.98 724.312 1715.4 725.695 1717.5 725.695C1718.93 725.695 1719.84 725.086 1720.26 724.312H1722.8C1722.23 726.375 1720.26 727.758 1717.48 727.758ZM1713.94 720.023H1720.5C1720.5 718.078 1719.26 716.672 1717.34 716.672C1715.33 716.672 1714.03 718.219 1713.94 720.023ZM1725.92 727.5V714.773H1728.34V716.789H1728.48C1728.95 715.43 1730.21 714.586 1731.71 714.586C1732.02 714.586 1732.51 714.609 1732.77 714.633V717.023C1732.56 716.977 1731.97 716.883 1731.46 716.883C1729.72 716.883 1728.43 718.078 1728.43 719.742V727.5H1725.92ZM1735.31 727.664C1734.4 727.664 1733.62 726.914 1733.65 726C1733.62 725.086 1734.4 724.336 1735.31 724.336C1736.2 724.336 1736.98 725.086 1736.98 726C1736.98 726.914 1736.2 727.664 1735.31 727.664ZM1745.87 727.758C1742.17 727.758 1739.92 725.016 1739.92 721.195C1739.92 717.305 1742.24 714.609 1745.82 714.609C1748.73 714.609 1750.84 716.32 1751.1 718.898H1748.66C1748.4 717.703 1747.44 716.695 1745.87 716.695C1743.81 716.695 1742.42 718.406 1742.42 721.125C1742.42 723.914 1743.78 725.625 1745.87 725.625C1747.28 725.625 1748.35 724.852 1748.66 723.469H1751.1C1750.81 725.93 1748.87 727.758 1745.87 727.758ZM1759.33 727.758C1755.72 727.758 1753.38 725.133 1753.38 721.195C1753.38 717.234 1755.72 714.609 1759.33 714.609C1762.92 714.609 1765.26 717.234 1765.26 721.195C1765.26 725.133 1762.92 727.758 1759.33 727.758ZM1759.33 725.672C1761.63 725.672 1762.73 723.633 1762.73 721.195C1762.73 718.758 1761.63 716.672 1759.33 716.672C1756.99 716.672 1755.89 718.758 1755.89 721.195C1755.89 723.633 1756.99 725.672 1759.33 725.672ZM1768.2 727.5V714.773H1770.62V716.859H1770.76C1771.3 715.43 1772.54 714.609 1774.23 714.609C1775.92 714.609 1777.11 715.453 1777.65 716.859H1777.79C1778.4 715.477 1779.76 714.609 1781.61 714.609C1783.91 714.609 1785.55 716.062 1785.55 718.969V727.5H1783.04V719.203C1783.04 717.492 1781.96 716.766 1780.65 716.766C1779.03 716.766 1778.12 717.867 1778.12 719.391V727.5H1775.63V719.062C1775.63 717.68 1774.67 716.766 1773.31 716.766C1771.91 716.766 1770.71 717.938 1770.71 719.648V727.5H1768.2Z" fill="#494D5B"/>
<rect x="1340" y="799" width="80" height="80" rx="40" fill="#56AFDF"/>
<path d="M1370.1 844.047V845.355H1354.2V844.047H1370.1ZM1368.58 831.977V833.246H1365.82V839.32H1368.54V840.57H1355.65V839.32H1358.36V833.246H1355.61V831.977H1368.58ZM1359.89 839.32H1364.32V833.246H1359.89V839.32ZM1387.79 844.145V845.434H1371.89V844.145H1379.04V840.863H1373.88V835.512H1384.27V832.777H1373.84V831.508H1385.77V836.762H1375.4V839.594H1386.19V840.863H1380.54V844.145H1387.79ZM1403.93 830.219V839.242H1402.39V830.219H1403.93ZM1403.93 840.082V844.223H1394.12V846.137H1404.59V847.387H1392.62V843.07H1402.41V841.312H1392.56V840.082H1403.93ZM1399.75 831.41V832.641H1397.99V837.074C1398.89 837.025 1399.78 836.938 1400.61 836.84L1400.69 837.973C1397.21 838.48 1393.13 838.617 1390.06 838.617L1389.87 837.348L1392.09 837.328V832.641H1390.35V831.41H1399.75ZM1393.58 837.289C1394.53 837.27 1395.52 837.24 1396.51 837.172V832.641H1393.58V837.289Z" fill="white"/>
<path d="M1471.88 829.805C1471.88 835.195 1468.06 838.969 1461.85 840.609L1460.96 838.852C1466.02 837.539 1469.09 834.914 1469.49 831.586H1462.13V829.805H1471.88ZM1478.19 828.516V840.328H1475.96V828.516H1478.19ZM1478.19 841.266V849.211H1464.43V841.266H1478.19ZM1466.63 843.047V847.43H1476.01V843.047H1466.63ZM1489.73 834.68C1489.73 838.195 1492.03 841.828 1495.26 843.211L1494.04 844.945C1491.57 843.855 1489.6 841.547 1488.63 838.734C1487.66 841.734 1485.68 844.289 1483.24 845.484L1481.95 843.727C1485.11 842.25 1487.46 838.289 1487.48 834.68V832.453H1482.68V830.602H1494.51V832.453H1489.73V834.68ZM1499.39 828.492V849.492H1497.16V828.492H1499.39ZM1520.73 828.516V844.523H1518.5V840.188H1515.12V838.406H1518.5V835.805H1515.12V833.977H1518.5V828.516H1520.73ZM1515.05 830.953V832.758H1503.24V830.953H1508.16V828.492H1510.37V830.953H1515.05ZM1509.24 833.766C1512.08 833.766 1514.07 835.406 1514.09 837.797C1514.07 840.211 1512.08 841.852 1509.24 841.852C1506.41 841.852 1504.41 840.211 1504.41 837.797C1504.41 835.406 1506.41 833.766 1509.24 833.766ZM1509.24 835.5C1507.6 835.523 1506.5 836.414 1506.5 837.797C1506.5 839.227 1507.6 840.117 1509.24 840.117C1510.86 840.117 1511.98 839.227 1512.01 837.797C1511.98 836.414 1510.86 835.523 1509.24 835.5ZM1521.19 847.242V849.047H1507.01V843.117H1509.26V847.242H1521.19ZM1535 828.141V849.891H1532.75V828.141H1535ZM1550.84 847.758C1547.77 847.758 1545.52 845.273 1545.52 841.172C1545.52 837.023 1547.79 834.609 1550.86 834.609C1553.23 834.609 1554.1 836.039 1554.54 836.836H1554.66V830.531H1557.17V847.5H1554.73V845.508H1554.54C1554.08 846.352 1553.16 847.758 1550.84 847.758ZM1551.4 845.625C1553.54 845.625 1554.73 843.797 1554.73 841.125C1554.73 838.477 1553.56 836.742 1551.4 836.742C1549.18 836.742 1548.08 838.617 1548.08 841.125C1548.08 843.68 1549.22 845.625 1551.4 845.625ZM1560.91 847.5V834.773H1563.32V836.859H1563.46C1564 835.43 1565.24 834.609 1566.93 834.609C1568.62 834.609 1569.81 835.453 1570.35 836.859H1570.49C1571.1 835.477 1572.46 834.609 1574.31 834.609C1576.61 834.609 1578.25 836.062 1578.25 838.969V847.5H1575.74V839.203C1575.74 837.492 1574.66 836.766 1573.35 836.766C1571.74 836.766 1570.82 837.867 1570.82 839.391V847.5H1568.34V839.062C1568.34 837.68 1567.38 836.766 1566.02 836.766C1564.61 836.766 1563.41 837.938 1563.41 839.648V847.5H1560.91ZM1586.51 847.758C1583.44 847.758 1581.19 845.273 1581.19 841.172C1581.19 837.023 1583.46 834.609 1586.54 834.609C1588.9 834.609 1589.77 836.039 1590.21 836.836H1590.33V830.531H1592.84V847.5H1590.4V845.508H1590.21C1589.75 846.352 1588.83 847.758 1586.51 847.758ZM1587.07 845.625C1589.21 845.625 1590.4 843.797 1590.4 841.125C1590.4 838.477 1589.23 836.742 1587.07 836.742C1584.85 836.742 1583.75 838.617 1583.75 841.125C1583.75 843.68 1584.89 845.625 1587.07 845.625ZM1599.09 839.953V847.5H1596.58V830.531H1599.04V836.859H1599.2C1599.81 835.477 1600.98 834.609 1602.98 834.609C1605.6 834.609 1607.34 836.227 1607.34 839.414V847.5H1604.83V839.719C1604.83 837.844 1603.82 836.766 1602.13 836.766C1600.37 836.766 1599.09 837.914 1599.09 839.953ZM1611.92 852.281C1611.4 852.281 1610.91 852.258 1610.58 852.211V850.125C1610.86 850.148 1611.35 850.172 1611.71 850.172C1612.48 850.172 1613.14 850.102 1613.72 848.508L1614.03 847.664L1609.36 834.773H1612.03L1615.25 844.641H1615.39L1618.6 834.773H1621.29L1616.04 849.188C1615.32 851.203 1614 852.281 1611.92 852.281ZM1631.9 842.203V834.773H1634.38V847.5H1631.94V845.297H1631.8C1631.22 846.656 1629.9 847.664 1628.01 847.664C1625.55 847.664 1623.81 846.023 1623.81 842.859V834.773H1626.32V842.555C1626.32 844.289 1627.37 845.391 1628.9 845.391C1630.28 845.391 1631.9 844.383 1631.9 842.203ZM1640.42 839.953V847.5H1637.91V834.773H1640.32V836.859H1640.46C1641.07 835.5 1642.31 834.609 1644.21 834.609C1646.84 834.609 1648.55 836.25 1648.55 839.414V847.5H1646.06V839.719C1646.06 837.867 1645.06 836.766 1643.37 836.766C1641.66 836.766 1640.42 837.914 1640.42 839.953ZM1657.56 830.531V847.5H1654.96V833.109H1654.87L1650.81 835.758V833.297L1655.03 830.531H1657.56ZM1661.98 844.195V842.109L1669.48 830.531H1672.67V842.016H1674.99V844.195H1672.67V847.5H1670.23V844.195H1661.98ZM1664.7 842.016H1670.23V833.602H1670.04L1664.7 841.875V842.016ZM1684.21 847.734C1681.07 847.711 1677.79 845.859 1677.79 839.578C1677.79 833.672 1680.34 830.297 1684.42 830.297C1687.54 830.297 1689.72 832.242 1690.11 834.938H1687.56C1687.23 833.555 1686.13 832.547 1684.42 832.547C1681.79 832.547 1680.27 834.844 1680.27 838.664H1680.46C1681.37 837.234 1682.97 836.367 1684.82 836.367C1687.84 836.367 1690.28 838.688 1690.28 841.945C1690.28 845.227 1687.86 847.758 1684.21 847.734ZM1684.18 845.578C1686.25 845.578 1687.77 843.984 1687.77 841.992C1687.77 840.047 1686.29 838.477 1684.25 838.477C1682.17 838.477 1680.6 840.117 1680.57 842.016C1680.6 843.891 1682.1 845.578 1684.18 845.578ZM1701.87 845.203C1699.62 845.203 1697.91 843.398 1697.91 840.328C1697.91 837.258 1699.66 835.477 1701.87 835.477C1703.48 835.477 1704.21 836.484 1704.49 837.07H1704.61V835.664H1706.65V842.227C1706.67 843.094 1707.02 843.492 1707.73 843.492C1709.04 843.492 1709.93 841.969 1709.93 839.695C1709.95 835.453 1706.91 832.664 1702.55 832.664C1698.02 832.688 1695.14 836.039 1695.14 840.328C1695.14 844.992 1697.65 848.062 1702.45 848.016C1704.12 847.992 1705.27 847.875 1706.65 847.5V849.375C1705.41 849.727 1704 849.938 1702.45 849.938C1696.64 849.938 1693.17 846.234 1693.17 840.328C1693.17 834.773 1697.06 830.742 1702.55 830.742C1708.1 830.742 1711.9 834.539 1711.9 839.625C1711.9 843.234 1710.07 845.32 1707.56 845.297C1706.05 845.297 1704.9 844.523 1704.73 843.445H1704.61C1704.3 844.031 1703.58 845.203 1701.87 845.203ZM1702.38 843.281C1703.86 843.281 1704.63 842.086 1704.66 840.305C1704.63 838.547 1703.88 837.398 1702.38 837.398C1700.91 837.398 1700.11 838.641 1700.11 840.305C1700.11 841.992 1700.93 843.281 1702.38 843.281ZM1720.42 852.539C1717.21 852.539 1715.1 851.109 1714.86 848.742H1717.42C1717.65 849.938 1718.78 850.523 1720.44 850.523C1722.43 850.523 1723.7 849.68 1723.7 847.688V845.18H1723.54C1723.09 846 1722.18 847.312 1719.83 847.312C1716.83 847.312 1714.51 845.062 1714.51 841.008C1714.51 836.953 1716.79 834.609 1719.86 834.609C1722.22 834.609 1723.09 836.039 1723.56 836.836H1723.72V834.773H1726.16V847.781C1726.16 851.039 1723.7 852.539 1720.42 852.539ZM1720.39 845.25C1722.53 845.25 1723.72 843.68 1723.72 841.055C1723.72 838.477 1722.55 836.742 1720.39 836.742C1718.17 836.742 1717.07 838.617 1717.07 841.055C1717.07 843.539 1718.21 845.25 1720.39 845.25ZM1729.69 847.5V834.773H1732.1V836.859H1732.24C1732.78 835.43 1734.02 834.609 1735.71 834.609C1737.4 834.609 1738.59 835.453 1739.13 836.859H1739.27C1739.88 835.477 1741.24 834.609 1743.09 834.609C1745.39 834.609 1747.03 836.062 1747.03 838.969V847.5H1744.52V839.203C1744.52 837.492 1743.44 836.766 1742.13 836.766C1740.52 836.766 1739.6 837.867 1739.6 839.391V847.5H1737.12V839.062C1737.12 837.68 1736.16 836.766 1734.8 836.766C1733.39 836.766 1732.19 837.938 1732.19 839.648V847.5H1729.69ZM1749.95 843.914C1749.95 841.008 1752.41 840.258 1754.71 840.094C1755.55 840.035 1757.46 839.93 1758.06 839.906L1758.03 838.898C1758.03 837.469 1757.17 836.625 1755.46 836.625C1753.98 836.625 1753.09 837.305 1752.83 838.242H1750.35C1750.58 836.133 1752.55 834.609 1755.55 834.609C1757.57 834.609 1760.54 835.359 1760.54 839.039V847.5H1758.1V845.766H1758.01C1757.52 846.727 1756.35 847.781 1754.24 847.781C1751.82 847.781 1749.95 846.398 1749.95 843.914ZM1752.39 843.938C1752.39 845.156 1753.39 845.789 1754.8 845.789C1756.84 845.789 1758.06 844.43 1758.06 842.906V841.734L1755.06 841.945C1753.42 842.062 1752.39 842.672 1752.39 843.938ZM1764.05 847.5V834.773H1766.55V847.5H1764.05ZM1765.31 832.805C1764.44 832.805 1763.72 832.148 1763.72 831.328C1763.72 830.508 1764.44 829.852 1765.31 829.852C1766.15 829.852 1766.88 830.508 1766.88 831.328C1766.88 832.148 1766.15 832.805 1765.31 832.805ZM1772.59 830.531V847.5H1770.08V830.531H1772.59ZM1777.76 847.664C1776.84 847.664 1776.07 846.914 1776.09 846C1776.07 845.086 1776.84 844.336 1777.76 844.336C1778.65 844.336 1779.42 845.086 1779.42 846C1779.42 846.914 1778.65 847.664 1777.76 847.664ZM1788.31 847.758C1784.61 847.758 1782.36 845.016 1782.36 841.195C1782.36 837.305 1784.68 834.609 1788.27 834.609C1791.17 834.609 1793.28 836.32 1793.54 838.898H1791.1C1790.84 837.703 1789.88 836.695 1788.31 836.695C1786.25 836.695 1784.87 838.406 1784.87 841.125C1784.87 843.914 1786.23 845.625 1788.31 845.625C1789.72 845.625 1790.8 844.852 1791.1 843.469H1793.54C1793.26 845.93 1791.31 847.758 1788.31 847.758ZM1801.78 847.758C1798.17 847.758 1795.82 845.133 1795.82 841.195C1795.82 837.234 1798.17 834.609 1801.78 834.609C1805.36 834.609 1807.71 837.234 1807.71 841.195C1807.71 845.133 1805.36 847.758 1801.78 847.758ZM1801.78 845.672C1804.07 845.672 1805.18 843.633 1805.18 841.195C1805.18 838.758 1804.07 836.672 1801.78 836.672C1799.43 836.672 1798.33 838.758 1798.33 841.195C1798.33 843.633 1799.43 845.672 1801.78 845.672ZM1810.65 847.5V834.773H1813.06V836.859H1813.2C1813.74 835.43 1814.98 834.609 1816.67 834.609C1818.36 834.609 1819.55 835.453 1820.09 836.859H1820.23C1820.84 835.477 1822.2 834.609 1824.05 834.609C1826.35 834.609 1827.99 836.062 1827.99 838.969V847.5H1825.48V839.203C1825.48 837.492 1824.41 836.766 1823.09 836.766C1821.48 836.766 1820.56 837.867 1820.56 839.391V847.5H1818.08V839.062C1818.08 837.68 1817.12 836.766 1815.76 836.766C1814.35 836.766 1813.16 837.938 1813.16 839.648V847.5H1810.65Z" fill="#494D5B"/>
<path d="M81.5249 225.89V220.055H109.32V225.89H98.9282V254H91.9503V225.89H81.5249ZM122.355 254.497C114.548 254.497 109.758 249.459 109.758 241.387C109.758 233.53 114.614 228.21 122.073 228.21C128.753 228.21 134.023 232.436 134.023 241.122V243.061H116.62C116.62 246.923 118.907 249.293 122.471 249.293C124.858 249.293 126.548 248.265 127.244 246.757H133.841C132.846 251.448 128.637 254.497 122.355 254.497ZM116.62 238.718H127.476C127.443 235.635 125.305 233.398 122.206 233.398C119.007 233.398 116.786 235.801 116.62 238.718ZM138.131 246.89C138.131 241.188 142.706 239.348 147.595 239.033C149.402 238.917 152.85 238.768 153.91 238.735V236.68C153.894 234.525 152.435 233.298 149.866 233.298C147.479 233.298 145.988 234.376 145.607 236.116H139.026C139.424 231.691 143.27 228.21 150.032 228.21C155.584 228.21 160.822 230.713 160.822 236.845V254H154.242V250.47H154.043C152.816 252.823 150.38 254.481 146.601 254.481C141.745 254.481 138.131 251.912 138.131 246.89ZM144.778 246.674C144.778 248.646 146.352 249.657 148.573 249.657C151.739 249.657 153.96 247.586 153.944 244.901V243.044C152.916 243.094 149.916 243.26 148.723 243.376C146.303 243.575 144.778 244.718 144.778 246.674ZM167.05 254V228.541H173.664V233.017H173.962C175.023 230.033 177.625 228.21 181.056 228.21C184.537 228.21 187.122 230.066 187.968 233.017H188.233C189.277 230.099 192.161 228.21 195.89 228.21C200.614 228.21 203.929 231.343 203.929 236.878V254H196.984V238.221C196.984 235.354 195.277 233.945 192.99 233.945C190.387 233.945 188.846 235.751 188.846 238.42V254H182.133V238.055C182.133 235.552 180.542 233.945 178.189 233.945C175.818 233.945 173.995 235.834 173.995 238.702V254H167.05ZM214.275 254.414C212.104 254.414 210.297 252.657 210.331 250.486C210.297 248.331 212.104 246.575 214.275 246.575C216.364 246.575 218.187 248.331 218.203 250.486C218.187 252.657 216.364 254.414 214.275 254.414Z" fill="#40424D"/>
<path d="M235.346 254V220.055H248.639C256.363 220.055 260.788 224.812 260.788 231.525C260.788 238.271 256.296 242.945 248.49 242.945H242.39V254H235.346ZM242.39 237.26H247.346C251.523 237.26 253.545 234.923 253.545 231.525C253.545 228.11 251.523 225.84 247.33 225.84H242.39V237.26ZM266.047 254V228.541H272.776V232.967H273.041C273.969 229.834 276.323 228.177 279.174 228.177C279.886 228.177 280.781 228.276 281.395 228.392V234.591C280.748 234.392 279.406 234.21 278.428 234.21C275.295 234.21 272.991 236.398 272.991 239.53V254H266.047ZM296.429 254.497C288.722 254.497 283.916 249.21 283.916 241.37C283.916 233.481 288.722 228.21 296.429 228.21C304.12 228.21 308.91 233.481 308.91 241.37C308.91 249.21 304.12 254.497 296.429 254.497ZM290.976 241.32C290.976 245.796 292.833 249.11 296.463 249.11C300.009 249.11 301.866 245.796 301.866 241.32C301.866 236.862 300.009 233.514 296.463 233.514C292.833 233.514 290.976 236.862 290.976 241.32ZM314.232 228.541H321.177V255.276C321.177 261.144 317.564 263.547 311.63 263.547C311.133 263.547 310.735 263.53 310.205 263.514V258.077C310.569 258.094 310.834 258.11 311.149 258.11C313.404 258.11 314.232 257.116 314.232 255.16V228.541ZM313.901 221.68C313.901 219.74 315.608 218.149 317.68 218.149C319.752 218.149 321.459 219.74 321.459 221.68C321.459 223.635 319.752 225.21 317.68 225.21C315.608 225.21 313.901 223.635 313.901 221.68ZM339.073 254.497C331.266 254.497 326.476 249.459 326.476 241.387C326.476 233.53 331.333 228.21 338.791 228.21C345.471 228.21 350.741 232.436 350.741 241.122V243.061H333.338C333.338 246.923 335.625 249.293 339.189 249.293C341.576 249.293 343.266 248.265 343.962 246.757H350.559C349.565 251.448 345.355 254.497 339.073 254.497ZM333.338 238.718H344.194C344.161 235.635 342.023 233.398 338.924 233.398C335.725 233.398 333.504 235.801 333.338 238.718ZM367.513 254.497C359.689 254.497 354.999 249.11 354.999 241.37C354.999 233.564 359.789 228.21 367.479 228.21C374.059 228.21 378.501 232.039 378.816 237.89H372.269C371.872 235.37 370.214 233.63 367.579 233.63C364.247 233.63 362.059 236.414 362.059 241.271C362.059 246.177 364.231 248.978 367.579 248.978C370.032 248.978 371.838 247.47 372.269 244.751H378.816C378.485 250.536 374.242 254.497 367.513 254.497ZM397.492 228.541V233.762H392.685V246.193C392.685 248.215 393.68 248.696 395.105 248.746C395.785 248.762 396.995 248.68 397.823 248.63V254.099C397.094 254.215 395.851 254.348 394.16 254.348C389.122 254.348 385.707 252.094 385.74 247.138V233.762H382.243V228.541H385.74V222.442H392.685V228.541H397.492ZM403.457 254V220.055H410.501V234.11H425.203V220.055H432.263V254H425.203V239.928H410.501V254H403.457Z" fill="#56AFDF"/>
<path d="M442.875 254.414C440.704 254.414 438.897 252.657 438.931 250.486C438.897 248.331 440.704 246.575 442.875 246.575C444.964 246.575 446.787 248.331 446.803 250.486C446.787 252.657 444.964 254.414 442.875 254.414Z" fill="#57CC99"/>
</svg>
