<svg width="1920" height="1280" viewBox="0 0 1920 1280" fill="none" xmlns="http://www.w3.org/2000/svg">
<g clip-path="url(#clip0_2090_4328)">
<rect width="1920" height="1280" fill="white"/>
<mask id="mask0_2090_4328" style="mask-type:alpha" maskUnits="userSpaceOnUse" x="1205" y="640" width="715" height="640">
<rect x="1205" y="640" width="715" height="640" fill="#56AFDF"/>
</mask>
<g mask="url(#mask0_2090_4328)">
<rect x="1205" y="640" width="715" height="640" fill="#56AFDF"/>
<path d="M2364.3 1038.19L1658.83 630.89L1651.52 643.56C1651.2 644.038 1650.71 644.377 1650.15 644.507C1649.59 644.637 1649 644.549 1648.5 644.261C1648 643.973 1647.63 643.507 1647.46 642.956C1647.3 642.406 1647.34 641.812 1647.6 641.296L1654.91 628.625L1482.83 529.273C1479.18 527.164 1474.87 526.521 1470.77 527.475C1466.68 528.428 1463.09 530.907 1460.76 534.406C1465.96 537.407 1469.75 542.349 1471.31 548.143C1472.86 553.938 1472.05 560.111 1469.06 565.304C1466.06 570.497 1461.12 574.286 1455.32 575.836C1449.52 577.385 1443.35 576.57 1438.15 573.569L1427.66 591.731C1432.86 594.733 1436.66 599.674 1438.21 605.469C1439.77 611.263 1438.96 617.436 1435.96 622.63C1432.96 627.823 1428.02 631.611 1422.22 633.161C1416.43 634.711 1410.25 633.896 1405.05 630.894L1394.6 649.005C1399.66 652.074 1403.33 657.003 1404.8 662.736C1406.28 668.47 1405.44 674.55 1402.49 679.675C1399.53 684.799 1394.68 688.559 1388.97 690.148C1383.27 691.737 1377.17 691.03 1371.98 688.176L1361.52 706.287C1366.72 709.289 1370.52 714.23 1372.07 720.025C1373.63 725.819 1372.82 731.992 1369.82 737.186C1366.82 742.379 1361.88 746.167 1356.09 747.717C1350.29 749.267 1344.11 748.451 1338.91 745.45L1328.48 763.518C1333.68 766.519 1337.48 771.461 1339.03 777.255C1340.59 783.05 1339.78 789.223 1336.78 794.416C1333.78 799.609 1328.84 803.397 1323.04 804.947C1317.25 806.497 1311.07 805.682 1305.87 802.68L1295.42 820.791C1300.48 823.86 1304.15 828.789 1305.62 834.523C1307.1 840.256 1306.26 846.337 1303.31 851.461C1300.35 856.585 1295.5 860.345 1289.79 861.934C1284.09 863.524 1277.99 862.816 1272.8 859.963C1270.9 863.742 1270.53 868.103 1271.74 872.155C1272.96 876.206 1275.68 879.641 1279.35 881.755L1451.43 981.108L1459.92 966.404C1460.24 965.926 1460.73 965.588 1461.29 965.458C1461.85 965.328 1462.44 965.416 1462.94 965.703C1463.44 965.991 1463.81 966.458 1463.98 967.008C1464.14 967.559 1464.09 968.153 1463.84 968.669L1455.35 983.372L2160.82 1390.67C2162.71 1391.77 2164.79 1392.47 2166.95 1392.76C2169.11 1393.05 2171.3 1392.9 2173.41 1392.34C2175.51 1391.78 2177.48 1390.81 2179.21 1389.48C2180.94 1388.16 2182.39 1386.51 2183.48 1384.62L2370.41 1060.85C2371.5 1058.96 2372.2 1056.88 2372.48 1054.72C2372.77 1052.56 2372.62 1050.36 2372.05 1048.26C2371.48 1046.16 2370.51 1044.18 2369.18 1042.46C2367.85 1040.73 2366.19 1039.28 2364.3 1038.19ZM1468.38 960.762C1468.25 961.041 1468.05 961.288 1467.82 961.489C1467.58 961.69 1467.3 961.84 1467.01 961.93C1466.71 962.02 1466.4 962.049 1466.09 962.013C1465.78 961.977 1465.48 961.879 1465.21 961.724C1464.94 961.568 1464.71 961.359 1464.52 961.11C1464.34 960.86 1464.21 960.576 1464.14 960.273C1464.07 959.971 1464.06 959.657 1464.11 959.352C1464.17 959.046 1464.29 958.756 1464.46 958.498L1475.18 939.928C1475.5 939.45 1475.99 939.112 1476.55 938.982C1477.11 938.852 1477.7 938.94 1478.2 939.228C1478.7 939.515 1479.07 939.982 1479.24 940.533C1479.41 941.083 1479.36 941.677 1479.1 942.193L1468.38 960.762ZM1483.64 934.331C1483.32 934.809 1482.83 935.147 1482.27 935.277C1481.71 935.407 1481.12 935.32 1480.62 935.032C1480.12 934.744 1479.75 934.277 1479.59 933.727C1479.42 933.176 1479.47 932.583 1479.72 932.067L1490.43 913.523C1490.56 913.245 1490.76 912.997 1490.99 912.796C1491.23 912.595 1491.51 912.445 1491.8 912.355C1492.1 912.265 1492.41 912.237 1492.72 912.272C1493.03 912.308 1493.33 912.406 1493.6 912.562C1493.87 912.717 1494.1 912.926 1494.28 913.175C1494.47 913.425 1494.6 913.71 1494.67 914.012C1494.74 914.315 1494.75 914.628 1494.69 914.934C1494.64 915.239 1494.52 915.53 1494.35 915.787L1483.64 934.331ZM1498.91 907.891C1498.77 908.169 1498.58 908.417 1498.34 908.618C1498.1 908.819 1497.83 908.969 1497.53 909.059C1497.23 909.149 1496.92 909.177 1496.61 909.142C1496.31 909.106 1496.01 909.008 1495.74 908.852C1495.47 908.697 1495.23 908.488 1495.05 908.239C1494.86 907.989 1494.73 907.704 1494.66 907.402C1494.59 907.099 1494.58 906.786 1494.64 906.48C1494.7 906.175 1494.81 905.884 1494.99 905.627L1505.71 887.057C1506.03 886.579 1506.52 886.241 1507.08 886.111C1507.64 885.981 1508.23 886.068 1508.73 886.356C1509.22 886.644 1509.6 887.111 1509.76 887.661C1509.93 888.212 1509.88 888.805 1509.63 889.322L1498.91 907.891ZM1514.17 881.46C1513.85 881.938 1513.36 882.276 1512.8 882.406C1512.24 882.536 1511.65 882.448 1511.15 882.16C1510.65 881.873 1510.28 881.406 1510.11 880.855C1509.94 880.305 1509.99 879.711 1510.25 879.195L1520.97 860.626C1521.1 860.347 1521.3 860.1 1521.53 859.899C1521.77 859.698 1522.05 859.548 1522.34 859.458C1522.64 859.368 1522.95 859.34 1523.26 859.375C1523.57 859.411 1523.87 859.509 1524.14 859.664C1524.41 859.82 1524.64 860.029 1524.83 860.278C1525.01 860.528 1525.14 860.812 1525.21 861.115C1525.28 861.417 1525.29 861.731 1525.24 862.036C1525.18 862.342 1525.06 862.632 1524.89 862.89L1514.17 881.46ZM1529.43 855.02C1529.11 855.498 1528.62 855.836 1528.06 855.966C1527.5 856.096 1526.91 856.008 1526.41 855.72C1525.91 855.433 1525.54 854.966 1525.38 854.416C1525.21 853.865 1525.26 853.271 1525.51 852.755L1536.23 834.186C1536.55 833.708 1537.04 833.37 1537.6 833.239C1538.16 833.109 1538.75 833.197 1539.25 833.485C1539.75 833.773 1540.12 834.239 1540.29 834.79C1540.46 835.341 1540.41 835.934 1540.15 836.45L1529.43 855.02ZM1544.7 828.58C1544.56 828.858 1544.37 829.106 1544.13 829.307C1543.9 829.507 1543.62 829.658 1543.32 829.748C1543.03 829.838 1542.71 829.866 1542.4 829.83C1542.1 829.795 1541.8 829.696 1541.53 829.541C1541.26 829.386 1541.02 829.177 1540.84 828.927C1540.65 828.678 1540.52 828.393 1540.45 828.091C1540.38 827.788 1540.37 827.475 1540.43 827.169C1540.49 826.864 1540.6 826.573 1540.78 826.315L1551.5 807.746C1551.82 807.268 1552.31 806.93 1552.87 806.799C1553.43 806.669 1554.02 806.757 1554.52 807.045C1555.02 807.333 1555.39 807.799 1555.55 808.35C1555.72 808.901 1555.67 809.494 1555.42 810.01L1544.7 828.58ZM1559.96 802.148C1559.64 802.626 1559.15 802.965 1558.59 803.095C1558.03 803.225 1557.44 803.137 1556.94 802.849C1556.44 802.561 1556.07 802.095 1555.9 801.544C1555.73 800.994 1555.78 800.4 1556.04 799.884L1566.76 781.315C1566.89 781.036 1567.09 780.789 1567.32 780.588C1567.56 780.387 1567.84 780.237 1568.13 780.147C1568.43 780.056 1568.74 780.028 1569.05 780.064C1569.36 780.099 1569.66 780.198 1569.93 780.353C1570.2 780.509 1570.43 780.717 1570.62 780.967C1570.8 781.216 1570.93 781.501 1571 781.804C1571.07 782.106 1571.08 782.42 1571.03 782.725C1570.97 783.03 1570.85 783.321 1570.68 783.579L1559.96 802.148ZM1575.22 775.708C1575.09 775.987 1574.89 776.234 1574.66 776.435C1574.42 776.636 1574.14 776.786 1573.85 776.876C1573.55 776.967 1573.24 776.995 1572.93 776.959C1572.62 776.924 1572.32 776.825 1572.05 776.67C1571.78 776.514 1571.55 776.306 1571.37 776.056C1571.18 775.807 1571.05 775.522 1570.98 775.219C1570.91 774.917 1570.9 774.603 1570.96 774.298C1571.01 773.993 1571.13 773.702 1571.3 773.444L1582.02 754.875C1582.34 754.397 1582.83 754.058 1583.39 753.928C1583.95 753.798 1584.54 753.886 1585.04 754.174C1585.54 754.462 1585.91 754.928 1586.08 755.479C1586.25 756.029 1586.2 756.623 1585.94 757.139L1575.22 775.708ZM1590.48 749.277C1590.16 749.755 1589.67 750.093 1589.11 750.224C1588.55 750.354 1587.96 750.266 1587.46 749.978C1586.97 749.69 1586.59 749.224 1586.43 748.673C1586.26 748.122 1586.31 747.529 1586.56 747.013L1597.29 728.435C1597.42 728.156 1597.62 727.909 1597.85 727.708C1598.09 727.507 1598.37 727.357 1598.66 727.267C1598.96 727.177 1599.27 727.148 1599.58 727.184C1599.89 727.219 1600.19 727.318 1600.46 727.473C1600.73 727.629 1600.96 727.838 1601.15 728.087C1601.33 728.337 1601.46 728.621 1601.53 728.924C1601.6 729.226 1601.61 729.54 1601.56 729.845C1601.5 730.151 1601.38 730.441 1601.21 730.699L1590.48 749.277ZM1605.75 722.837C1605.43 723.315 1604.94 723.653 1604.38 723.784C1603.82 723.914 1603.23 723.826 1602.73 723.538C1602.23 723.25 1601.86 722.784 1601.69 722.233C1601.52 721.682 1601.57 721.089 1601.83 720.573L1612.55 702.003C1612.87 701.525 1613.36 701.187 1613.92 701.057C1614.48 700.927 1615.07 701.015 1615.57 701.302C1616.07 701.59 1616.44 702.057 1616.6 702.607C1616.77 703.158 1616.72 703.752 1616.47 704.268L1605.75 722.837ZM1621.01 696.397C1620.88 696.676 1620.68 696.923 1620.45 697.124C1620.21 697.325 1619.94 697.475 1619.64 697.565C1619.34 697.655 1619.03 697.683 1618.72 697.648C1618.41 697.612 1618.11 697.514 1617.84 697.358C1617.57 697.203 1617.34 696.994 1617.16 696.745C1616.97 696.495 1616.84 696.211 1616.77 695.908C1616.7 695.606 1616.69 695.292 1616.75 694.987C1616.8 694.681 1616.92 694.391 1617.09 694.133L1627.81 675.563C1628.13 675.085 1628.62 674.747 1629.18 674.617C1629.74 674.487 1630.33 674.575 1630.83 674.862C1631.33 675.15 1631.7 675.617 1631.87 676.167C1632.04 676.718 1631.99 677.312 1631.73 677.828L1621.01 696.397ZM1636.27 669.966C1635.95 670.444 1635.46 670.782 1634.9 670.912C1634.34 671.042 1633.75 670.955 1633.25 670.667C1632.76 670.379 1632.39 669.912 1632.22 669.362C1632.05 668.811 1632.1 668.218 1632.35 667.701L1643.07 649.132C1643.21 648.854 1643.4 648.606 1643.64 648.405C1643.88 648.204 1644.15 648.054 1644.45 647.964C1644.75 647.874 1645.06 647.846 1645.37 647.881C1645.68 647.917 1645.97 648.015 1646.24 648.171C1646.51 648.326 1646.75 648.535 1646.93 648.784C1647.12 649.034 1647.25 649.319 1647.32 649.621C1647.39 649.924 1647.4 650.237 1647.34 650.543C1647.29 650.848 1647.17 651.139 1646.99 651.396L1636.27 669.966Z" fill="white"/>
<path d="M1659.57 750.248L1670.88 730.654L1678.24 734.904C1682.73 737.498 1683.56 741.622 1681.39 745.384C1679.22 749.145 1675.22 750.445 1670.7 747.836L1666.91 745.649L1663.09 752.279L1659.57 750.248ZM1668.59 742.753L1671.89 744.659C1674.54 746.19 1676.59 745.389 1677.79 743.305C1679.01 741.195 1678.65 739.073 1676 737.541L1672.7 735.635L1668.59 742.753ZM1677.06 760.349L1685.55 745.654L1688.9 747.591L1687.5 750.027L1687.66 750.121C1689.14 748.74 1691.14 748.593 1692.82 749.562C1693.2 749.781 1693.72 750.121 1694.02 750.362L1692.17 753.556C1691.94 753.275 1691.27 752.745 1690.7 752.417C1688.78 751.308 1686.61 751.821 1685.53 753.689L1680.53 762.349L1677.06 760.349ZM1693.82 770.42C1689.54 767.951 1688.53 763.326 1691.16 758.78C1693.8 754.206 1698.31 752.769 1702.59 755.237C1706.89 757.722 1707.87 762.331 1705.23 766.905C1702.61 771.451 1698.12 772.904 1693.82 770.42ZM1695.44 767.675C1697.79 769.034 1700.19 767.568 1701.76 764.862C1703.3 762.183 1703.39 759.346 1701.03 757.986C1698.63 756.596 1696.21 758.089 1694.67 760.768C1693.1 763.475 1693.03 766.284 1695.44 767.675ZM1712.75 761.356L1716.21 763.356L1707.24 778.891C1705.41 782.057 1702.67 782.494 1699.42 780.619C1699.21 780.494 1698.99 780.369 1698.74 780.186L1700.36 777.371C1700.53 777.508 1700.7 777.602 1700.86 777.695C1702.18 778.461 1703.09 778.081 1703.79 776.863L1712.75 761.356ZM1715.68 760.272C1714.6 759.647 1714.16 758.277 1714.77 757.222C1715.37 756.193 1716.77 755.886 1717.85 756.511C1718.96 757.151 1719.37 758.506 1718.78 759.534C1718.17 760.59 1716.79 760.913 1715.68 760.272ZM1717.93 784.341C1713.49 781.779 1712.49 777.266 1715.15 772.665C1717.77 768.119 1722.31 766.627 1726.51 769.049C1730.11 771.127 1731.92 775.171 1728.94 780.34L1728.31 781.422L1718.06 775.5C1716.65 778.027 1717.28 780.354 1719.52 781.65C1721.04 782.525 1722.44 782.47 1723.37 781.854L1726.76 783.807C1724.67 785.991 1721.34 786.31 1717.93 784.341ZM1719.44 773.161L1726.37 777.161C1727.5 775.143 1727.02 772.916 1725.02 771.76C1722.93 770.557 1720.64 771.343 1719.44 773.161ZM1734.1 793.677C1729.72 791.146 1728.88 786.475 1731.44 782.037C1734.03 777.544 1738.56 776.01 1742.87 778.494C1746.44 780.557 1747.73 784.078 1746.14 787.385L1742.84 785.479C1743.38 783.915 1742.98 782.239 1741.3 781.27C1739.16 780.036 1736.68 781.021 1734.98 783.971C1733.23 787.002 1733.59 789.628 1735.75 790.878C1737.3 791.768 1738.95 791.532 1740.17 790.107L1743.47 792.013C1741.4 794.969 1737.78 795.802 1734.1 793.677ZM1759.55 788.379L1758.02 791.031L1755.12 789.359L1750.72 796.991C1749.9 798.398 1750.44 799.102 1751.3 799.602C1751.71 799.837 1752.4 800.2 1752.85 800.423L1751.22 803.238C1750.77 803.084 1750.06 802.748 1749.2 802.248C1746.6 800.748 1745.33 798.32 1746.95 795.575L1751.69 787.375L1749.58 786.156L1751.11 783.504L1753.22 784.722L1755.25 781.204L1758.69 783.189L1756.65 786.707L1759.55 788.379ZM1761.57 809.136L1772.88 789.542L1776.4 791.573L1771.6 799.882L1780.72 805.147L1785.52 796.839L1789.06 798.886L1777.75 818.48L1774.2 816.433L1779.02 808.097L1769.9 802.832L1765.08 811.167L1761.57 809.136Z" fill="#56AFDF"/>
<path d="M1783.78 822.251C1782.62 821.579 1782.22 820.085 1782.89 818.921C1783.54 817.784 1785.04 817.384 1786.2 818.056C1787.31 818.696 1787.74 820.206 1787.08 821.343C1786.41 822.506 1784.89 822.891 1783.78 822.251Z" fill="#57CC99"/>
<path d="M1813.08 834.978L1811.64 837.468L1789.28 824.562L1790.72 822.072L1800.36 827.634L1802.65 823.656L1795.67 819.625L1800.3 811.614L1814.37 819.739L1816.12 816.708L1801.99 808.552L1803.4 806.116L1820.5 815.991L1815.97 823.839L1801.92 815.73L1800.1 818.896L1814.71 827.334L1813.29 829.797L1805.63 825.375L1803.33 829.353L1813.08 834.978ZM1844.73 853.216L1843.3 855.679L1820.95 842.773L1822.37 840.31L1832.03 845.888L1834.96 840.827L1837.93 842.546L1835.01 847.607L1844.73 853.216ZM1851.71 836.498L1850.3 838.934L1842.67 834.528C1841.12 837.69 1842.68 842.327 1847.55 846.077L1845.08 847.791C1841.19 844.75 1839.01 840.987 1838.94 837.356C1835.77 839.112 1831.45 839.125 1826.87 837.275L1827.09 834.265C1832.8 836.624 1837.58 835.651 1839.59 832.747L1831.93 828.325L1833.33 825.889L1841.02 830.327L1842.85 827.16L1845.82 828.879L1844 832.045L1851.71 836.498ZM1878.96 847.508L1864.84 871.973L1861.97 870.316L1869.17 857.84L1866.41 856.247L1859.93 867.478L1857.17 865.884L1870.31 843.124L1873.07 844.718L1867.8 853.838L1870.56 855.432L1876.1 845.851L1878.96 847.508ZM1866.14 843.966L1864.74 846.401L1858.62 842.87L1852.34 853.75C1855.02 855.262 1857.29 856.392 1860.03 857.362L1858.83 859.949C1855.53 858.842 1852.92 857.438 1849.49 855.497L1847.84 854.544L1856.99 838.685L1866.14 843.966ZM1901.71 860.64L1898.23 866.675L1901.64 868.644L1900.2 871.134L1896.79 869.165L1893.46 874.929L1890.46 873.195L1898.71 858.906L1901.71 860.64ZM1880.07 868.497L1878.85 870.608L1888.68 876.28L1889.89 874.169L1892.9 875.904L1887.76 884.808L1871.95 875.683L1877.09 866.779L1880.07 868.497ZM1876.3 875.02L1886.13 880.692L1887.33 878.608L1877.51 872.936L1876.3 875.02ZM1895.63 860.163L1894.24 862.572L1879.74 854.197L1881.13 851.788L1886.89 855.116L1888.32 852.654L1891.32 854.388L1889.9 856.851L1895.63 860.163ZM1886.51 859.223C1890.05 861.27 1891.48 864.366 1890 866.98C1888.48 869.562 1885.08 869.876 1881.54 867.83C1877.97 865.767 1876.51 862.656 1878.01 860.058C1879.51 857.46 1882.93 857.161 1886.51 859.223ZM1885.23 861.443C1883.36 860.364 1881.69 860.446 1880.94 861.745C1880.17 863.071 1880.95 864.532 1882.82 865.61C1884.69 866.688 1886.37 866.649 1887.13 865.323C1887.88 864.024 1887.09 862.521 1885.23 861.443ZM1927.33 875.429L1913.2 899.894L1910.22 898.175L1924.35 873.71L1927.33 875.429ZM1909.93 868.56L1902.21 881.93C1905.68 883.86 1909.51 885.658 1913.7 887.086L1912.63 889.821C1907.81 888.23 1903.65 886.188 1899.86 884.001L1897.75 882.782L1906.95 866.842L1909.93 868.56ZM1950.59 888.858L1945.23 898.141L1948.99 900.313L1947.57 902.775L1943.8 900.604L1936.45 913.35L1933.44 911.616L1947.58 887.124L1950.59 888.858ZM1942.53 887.311L1941.12 889.746L1932.68 884.871L1926.2 896.103C1930 898.298 1933.11 899.843 1936.82 901.193L1935.71 903.94C1931.54 902.402 1928.18 900.604 1923.77 898.057L1921.74 896.885L1931.08 880.701L1942.53 887.311ZM1946.05 915.936C1944.88 915.264 1944.48 913.77 1945.16 912.606C1945.81 911.469 1947.31 911.069 1948.47 911.741C1949.58 912.381 1950.01 913.891 1949.35 915.028C1948.68 916.192 1947.16 916.576 1946.05 915.936Z" fill="#25262C"/>
<path d="M1597.7 859.859L1590.63 872.105L1589.11 871.226L1596.18 858.98L1597.7 859.859ZM1598.14 869.086L1594.95 874.6L1593.5 873.76L1598.8 864.575L1600.2 865.386L1599.37 866.824L1599.49 866.892C1600.47 866.216 1601.68 866.078 1603.08 866.889C1604.94 867.963 1605.52 869.809 1604.17 872.143L1600.8 877.979L1599.35 877.139L1602.66 871.405C1603.48 869.984 1603.19 868.689 1601.89 867.937C1600.55 867.166 1599.05 867.496 1598.14 869.086ZM1616.01 874.512L1607.31 881.733L1605.8 880.864L1607.72 869.727L1609.31 870.645L1607.61 879.38L1607.71 879.439L1614.42 873.594L1616.01 874.512ZM1612.66 884.824L1617.96 875.639L1619.42 876.479L1614.12 885.664L1612.66 884.824ZM1619.57 874.537C1619.01 874.215 1618.8 873.528 1619.11 872.987C1619.42 872.446 1620.12 872.287 1620.68 872.609C1621.24 872.931 1621.47 873.627 1621.16 874.169C1620.85 874.71 1620.13 874.859 1619.57 874.537ZM1626.09 880.332L1625.39 881.549L1623.46 880.436L1620.38 885.764C1619.7 886.948 1620.17 887.466 1620.79 887.828C1621.06 887.984 1621.45 888.182 1621.67 888.292L1620.89 889.645C1620.65 889.552 1620.26 889.371 1619.84 889.127C1618.62 888.424 1617.76 886.911 1618.7 885.287L1621.99 879.587L1620.6 878.786L1621.3 877.568L1622.69 878.369L1623.96 876.17L1625.43 877.019L1624.16 879.218L1626.09 880.332ZM1626.66 893.154C1624 891.621 1623.45 888.796 1625.08 885.972C1626.71 883.147 1629.5 882.142 1632 883.587C1633.93 884.7 1635.28 887.056 1633.31 890.456L1632.96 891.065L1626.3 887.217C1625.24 889.202 1625.76 890.921 1627.4 891.869C1628.5 892.504 1629.47 892.43 1630.14 892.051L1631.69 892.949C1630.45 894.082 1628.55 894.248 1626.66 893.154ZM1627.03 885.992L1632.2 888.981C1633.09 887.441 1632.77 885.742 1631.26 884.873C1629.67 883.955 1627.93 884.62 1627.03 885.992ZM1646.84 892.309L1646.13 893.526L1644.2 892.413L1641.13 897.741C1640.44 898.925 1640.91 899.443 1641.54 899.805C1641.81 899.961 1642.19 900.159 1642.42 900.269L1641.64 901.622C1641.4 901.529 1641.01 901.348 1640.58 901.104C1639.37 900.401 1638.5 898.888 1639.44 897.264L1642.73 891.564L1641.35 890.763L1642.05 889.545L1643.44 890.346L1644.7 888.147L1646.18 888.996L1644.91 891.195L1646.84 892.309ZM1647.3 905.073C1644.8 903.627 1644.19 900.773 1645.84 897.915C1647.49 895.056 1650.28 894.138 1652.78 895.584C1655.27 897.019 1655.85 899.88 1654.2 902.739C1652.55 905.597 1649.79 906.508 1647.3 905.073ZM1648.04 903.787C1649.89 904.852 1651.69 903.726 1652.74 901.899C1653.8 900.072 1653.88 897.934 1652.04 896.869C1650.16 895.785 1648.35 896.928 1647.3 898.755C1646.24 900.581 1646.17 902.703 1648.04 903.787ZM1654.8 909.29C1654.21 908.948 1653.99 908.164 1654.35 907.565C1654.68 906.963 1655.47 906.766 1656.06 907.108C1656.65 907.449 1656.86 908.223 1656.52 908.815C1656.17 909.424 1655.39 909.631 1654.8 909.29Z" fill="#25262C"/>
<line x1="1572.99" y1="896.02" x2="1746.19" y2="996.02" stroke="#6F7588" stroke-width="0.93702"/>
<path d="M1542.11 952.632L1549.18 940.386L1550.7 941.265L1547.56 946.712L1554.03 950.452L1557.18 945.005L1558.72 945.894L1551.65 958.14L1550.11 957.251L1553.26 951.788L1546.78 948.048L1543.63 953.511L1542.11 952.632ZM1558.15 962.139C1555.64 960.694 1555.03 957.84 1556.68 954.981C1558.34 952.123 1561.12 951.205 1563.62 952.65C1566.11 954.086 1566.69 956.947 1565.04 959.806C1563.39 962.664 1560.63 963.575 1558.15 962.139ZM1558.89 960.854C1560.73 961.918 1562.53 960.793 1563.59 958.966C1564.64 957.139 1564.73 955 1562.88 953.936C1561 952.852 1559.19 953.995 1558.14 955.821C1557.08 957.648 1557.01 959.77 1558.89 960.854ZM1564.67 965.659L1569.97 956.475L1571.38 957.285L1570.55 958.723L1570.67 958.791C1571.62 958.035 1572.83 957.968 1574.03 958.661C1575.24 959.354 1575.72 960.398 1575.59 961.633L1575.69 961.692C1576.71 961.018 1578.03 960.966 1579.35 961.727C1580.99 962.675 1581.58 964.346 1580.33 966.511L1576.78 972.651L1575.33 971.812L1578.86 965.688C1579.64 964.335 1579.08 963.313 1578.09 962.737C1576.8 961.995 1575.58 962.437 1574.9 963.604L1571.45 969.575L1569.98 968.726L1573.61 962.45C1574.2 961.419 1573.86 960.295 1572.81 959.69C1571.71 959.055 1570.21 959.429 1569.44 960.765L1566.13 966.499L1564.67 965.659ZM1583.21 976.612C1580.56 975.078 1580 972.254 1581.63 969.429C1583.26 966.604 1586.05 965.599 1588.56 967.044C1590.48 968.158 1591.83 970.514 1589.87 973.913L1589.52 974.522L1582.85 970.675C1581.8 972.659 1582.31 974.379 1583.95 975.326C1585.05 975.961 1586.02 975.888 1586.69 975.508L1588.25 976.406C1587.01 977.539 1585.11 977.705 1583.21 976.612ZM1583.58 969.45L1588.76 972.438C1589.65 970.899 1589.32 969.199 1587.81 968.33C1586.22 967.412 1584.49 968.078 1583.58 969.45ZM1598.69 973.056L1597.99 974.274L1596.06 973.161L1592.99 978.489C1592.3 979.673 1592.77 980.191 1593.4 980.552C1593.67 980.709 1594.05 980.907 1594.28 981.017L1593.5 982.37C1593.26 982.277 1592.87 982.096 1592.44 981.851C1591.23 981.148 1590.36 979.635 1591.3 978.011L1594.59 972.311L1593.2 971.51L1593.91 970.293L1595.29 971.093L1596.56 968.894L1598.04 969.744L1596.77 971.943L1598.69 973.056ZM1599.16 985.82C1596.66 984.375 1596.05 981.521 1597.7 978.662C1599.35 975.804 1602.14 974.886 1604.64 976.331C1607.13 977.767 1607.71 980.628 1606.06 983.487C1604.41 986.345 1601.65 987.256 1599.16 985.82ZM1599.9 984.535C1601.75 985.599 1603.55 984.473 1604.6 982.647C1605.66 980.82 1605.74 978.681 1603.9 977.617C1602.02 976.533 1600.21 977.675 1599.16 979.502C1598.1 981.329 1598.03 983.451 1599.9 984.535ZM1607.45 990.356L1609.96 979.56L1611.5 980.448L1609.42 988.584L1609.5 988.633L1615.49 982.753L1617.05 983.652L1614.93 991.724L1615.04 991.782L1621.02 985.946L1622.54 986.825L1614.45 994.399L1613.01 993.569L1615.06 985.414L1614.92 985.335L1608.9 991.196L1607.45 990.356ZM1623.83 992.463L1620.65 997.978L1619.19 997.138L1624.5 987.953L1625.9 988.764L1625.07 990.201L1625.19 990.27C1626.17 989.593 1627.37 989.456 1628.78 990.266C1630.64 991.341 1631.22 993.187 1629.87 995.521L1626.5 1001.36L1625.05 1000.52L1628.36 994.783C1629.18 993.362 1628.89 992.067 1627.58 991.315C1626.25 990.543 1624.75 990.873 1623.83 992.463ZM1630.15 1003.6C1629.56 1003.26 1629.34 1002.48 1629.71 1001.88C1630.03 1001.28 1630.82 1001.08 1631.41 1001.42C1632.01 1001.76 1632.21 1002.53 1631.87 1003.13C1631.52 1003.74 1630.75 1003.94 1630.15 1003.6Z" fill="#25262C"/>
<line x1="1525.99" y1="977.426" x2="1699.19" y2="1077.43" stroke="#6F7588" stroke-width="0.93702"/>
<path d="M1564.87 662.086L1495.59 622.086L1493.1 626.391L1562.38 666.391L1564.87 662.086Z" fill="#6F7588"/>
<path d="M1561.36 668.169L1492.07 628.169L1490.6 630.722L1559.88 670.722L1561.36 668.169Z" fill="#6F7588"/>
<path d="M1558.97 672.309L1489.68 632.309L1485.64 639.319L1554.92 679.319L1558.97 672.309Z" fill="#6F7588"/>
<path d="M1553.99 680.92L1484.71 640.92L1484.19 641.822L1553.47 681.822L1553.99 680.92Z" fill="#6F7588"/>
<path d="M1549.58 688.57L1480.29 648.57L1479.56 649.847L1548.84 689.847L1549.58 688.57Z" fill="#6F7588"/>
<path d="M1547.34 692.444L1478.06 652.444L1475.88 656.216L1545.16 696.216L1547.34 692.444Z" fill="#6F7588"/>
<path d="M1541.91 701.849L1472.63 661.849L1472.2 662.592L1541.48 702.592L1541.91 701.849Z" fill="#6F7588"/>
<path d="M1540.01 705.144L1470.73 665.144L1467.78 670.242L1537.06 710.242L1540.01 705.144Z" fill="#6F7588"/>
<path d="M1535.59 712.794L1466.31 672.794L1465.42 674.337L1534.7 714.337L1535.59 712.794Z" fill="#6F7588"/>
<path d="M1531.91 719.17L1462.63 679.17L1462.02 680.23L1531.3 720.23L1531.91 719.17Z" fill="#6F7588"/>
<path d="M1528.23 725.545L1458.95 685.545L1456.8 689.266L1526.08 729.266L1528.23 725.545Z" fill="#6F7588"/>
<path d="M1524.55 731.921L1455.27 691.921L1452.32 697.02L1521.6 737.02L1524.55 731.921Z" fill="#6F7588"/>
<path d="M1520.14 739.564L1450.85 699.564L1450.12 700.841L1519.4 740.841L1520.14 739.564Z" fill="#6F7588"/>
<path d="M1517.19 744.67L1447.91 704.67L1447.41 705.521L1516.7 745.521L1517.19 744.67Z" fill="#6F7588"/>
<path d="M1515.84 747.007L1446.56 707.007L1446.07 707.858L1515.35 747.858L1515.84 747.007Z" fill="#6F7588"/>
<path d="M1513.51 751.045L1444.23 711.045L1443.49 712.321L1512.77 752.321L1513.51 751.045Z" fill="#6F7588"/>
<path d="M1510.44 756.354L1441.16 716.354L1438.46 721.028L1507.74 761.028L1510.44 756.354Z" fill="#6F7588"/>
<path d="M1505.66 764.641L1436.38 724.641L1435.39 726.342L1504.68 766.342L1505.66 764.641Z" fill="#6F7588"/>
<path d="M1502.47 770.164L1433.19 730.164L1431.16 733.669L1500.45 773.669L1502.47 770.164Z" fill="#6F7588"/>
<path d="M1498.42 777.181L1429.14 737.181L1428.4 738.457L1497.68 778.457L1498.42 777.181Z" fill="#6F7588"/>
<path d="M1495.11 782.915L1425.83 742.915L1425.09 744.191L1494.37 784.191L1495.11 782.915Z" fill="#6F7588"/>
<path d="M1491.43 789.29L1422.14 749.29L1421.78 749.925L1491.06 789.925L1491.43 789.29Z" fill="#6F7588"/>
<path d="M1490.59 790.744L1421.31 750.744L1420.94 751.379L1490.22 791.379L1490.59 790.744Z" fill="#6F7588"/>
<path d="M1489.75 792.197L1420.47 752.197L1420.1 752.832L1489.38 792.832L1489.75 792.197Z" fill="#6F7588"/>
<path d="M1487.75 795.665L1418.46 755.665L1416.99 758.218L1486.27 798.218L1487.75 795.665Z" fill="#6F7588"/>
<path d="M1484.49 801.297L1415.21 761.297L1412.88 765.335L1482.16 805.335L1484.49 801.297Z" fill="#6F7588"/>
<path d="M1480.38 808.415L1411.1 768.415L1409.63 770.968L1478.91 810.968L1480.38 808.415Z" fill="#6F7588"/>
<path d="M1476.7 814.789L1407.42 774.789L1406.69 776.065L1475.97 816.065L1476.7 814.789Z" fill="#6F7588"/>
<path d="M1475.17 817.45L1405.89 777.45L1405.15 778.726L1474.43 818.726L1475.17 817.45Z" fill="#6F7588"/>
<path d="M1473.02 821.165L1403.74 781.165L1403 782.441L1472.29 822.441L1473.02 821.165Z" fill="#6F7588"/>
<path d="M1469.89 826.588L1400.61 786.588L1398.03 791.052L1467.32 831.052L1469.89 826.588Z" fill="#6F7588"/>
<path d="M1464.93 835.191L1395.64 795.191L1394.91 796.468L1464.19 836.468L1464.93 835.191Z" fill="#6F7588"/>
<path d="M1462.66 839.122L1393.37 799.122L1390.55 804.011L1459.83 844.011L1462.66 839.122Z" fill="#6F7588"/>
<path d="M1458.3 846.666L1389.02 806.666L1386.99 810.171L1456.28 850.171L1458.3 846.666Z" fill="#6F7588"/>
<path d="M1454.07 854L1384.78 814L1383.86 815.594L1453.15 855.594L1454.07 854Z" fill="#6F7588"/>
<path d="M1450.02 861.01L1380.74 821.01L1380.18 821.969L1449.47 861.969L1450.02 861.01Z" fill="#6F7588"/>
<path d="M1448.09 864.355L1378.81 824.355L1375.68 829.772L1444.96 869.772L1448.09 864.355Z" fill="#6F7588"/>
<path d="M1443.58 872.165L1374.3 832.165L1373.71 833.175L1443 873.175L1443.58 872.165Z" fill="#6F7588"/>
<path d="M1439.9 878.541L1370.62 838.541L1369.88 839.817L1439.16 879.817L1439.9 878.541Z" fill="#6F7588"/>
<path d="M1437.08 883.43L1367.79 843.43L1365.59 847.252L1434.87 887.252L1437.08 883.43Z" fill="#6F7588"/>
<path d="M1389.22 1055.1C1387.62 1055.53 1386.67 1057.18 1387.1 1058.78L1394.09 1084.86C1394.52 1086.46 1396.16 1087.41 1397.76 1086.98C1399.36 1086.55 1400.31 1084.9 1399.89 1083.3L1393.67 1060.12L1416.86 1053.91C1418.46 1053.48 1419.41 1051.84 1418.98 1050.24C1418.55 1048.64 1416.9 1047.69 1415.3 1048.12L1389.22 1055.1ZM1805.69 1298L1807.19 1295.4L1391.5 1055.4L1390 1058L1388.5 1060.6L1804.19 1300.6L1805.69 1298Z" fill="url(#paint0_linear_2090_4328)"/>
</g>
<rect width="715" height="640" transform="translate(1205)" fill="white"/>
<path d="M1319.13 249.519V253.594H1314.1V271.522H1309.12V236.025H1314.1V249.519H1319.13ZM1287.18 262.834V239.436H1292.15V258.718C1296.7 258.635 1301.57 258.221 1306.71 257.185L1307.24 261.343C1301.27 262.53 1295.51 262.848 1290.26 262.834H1287.18ZM1332.93 238.414C1338.59 238.414 1342.77 242.047 1342.8 247.144C1342.77 252.254 1338.59 255.873 1332.93 255.873C1327.33 255.873 1323.05 252.254 1323.06 247.144C1323.05 242.047 1327.33 238.414 1332.93 238.414ZM1321.59 260.362C1327.93 260.362 1336.71 260.279 1344.32 259.215L1344.69 262.807C1336.82 264.34 1328.38 264.409 1322.15 264.409L1321.59 260.362ZM1328.01 247.144C1328.01 249.961 1330.14 251.564 1332.93 251.564C1335.77 251.564 1337.93 249.961 1337.94 247.144C1337.93 244.367 1335.78 242.724 1332.93 242.724C1330.12 242.724 1328.01 244.367 1328.01 247.144ZM1346.34 271.688V236.025H1351.3V271.688H1346.34ZM1396.1 239.119V242.489C1396.09 246.936 1396.09 251.936 1394.68 259.506L1389.65 258.981C1391.01 252.254 1391.08 247.254 1391.1 243.083H1370.17V239.119H1396.1ZM1366.82 267.24V263.193H1378.43V250.97H1383.37V263.193H1399.25V267.24H1366.82ZM1435 241.232V245.279H1430.4V248.912H1435V252.959H1430.4V258.622H1425.4V236.025H1430.4V241.232H1435ZM1402.18 243.331V239.436H1410.26V235.831H1415.23V239.436H1423.28V243.331H1402.18ZM1403.92 250.928C1403.91 247.13 1407.5 244.547 1412.75 244.533C1417.9 244.547 1421.49 247.13 1421.49 250.928C1421.49 254.754 1417.9 257.296 1412.75 257.296C1407.51 257.296 1403.91 254.754 1403.92 250.928ZM1406.74 265.293C1406.71 261.301 1411.31 258.953 1418.77 258.953C1426.1 258.953 1430.77 261.301 1430.78 265.293C1430.77 269.215 1426.1 271.605 1418.77 271.591C1411.31 271.605 1406.71 269.215 1406.74 265.293ZM1408.77 250.928C1408.77 252.682 1410.36 253.608 1412.75 253.594C1415.12 253.608 1416.75 252.682 1416.77 250.928C1416.75 249.146 1415.12 248.18 1412.75 248.166C1410.36 248.18 1408.77 249.146 1408.77 250.928ZM1411.67 265.293C1411.65 266.964 1414.13 267.876 1418.77 267.876C1423.33 267.876 1425.77 266.964 1425.77 265.293C1425.77 263.539 1423.33 262.738 1418.77 262.738C1414.13 262.738 1411.65 263.539 1411.67 265.293ZM1453.75 236.55C1461.94 236.55 1466.67 238.691 1466.68 242.599C1466.67 246.577 1461.94 248.704 1453.75 248.704C1445.55 248.704 1440.8 246.577 1440.81 242.599C1440.8 238.691 1445.55 236.55 1453.75 236.55ZM1437.56 254.34V250.39H1469.99V254.34H1437.56ZM1441.31 260.044V256.384H1466.03V265.459H1446.22V267.599H1466.96V271.356H1441.33V261.978H1461.11V260.044H1441.31ZM1446.03 242.599C1446 244.354 1448.54 245.03 1453.75 245.044C1459.03 245.03 1461.54 244.354 1461.54 242.599C1461.54 241.039 1459.03 240.182 1453.75 240.196C1448.54 240.182 1446 241.039 1446.03 242.599ZM1503.2 239.478V243.414H1496.05C1496.12 246.936 1498.67 250.514 1504.36 251.964L1502.17 255.762C1498.05 254.727 1495.22 252.517 1493.6 249.671C1492.03 252.807 1489.18 255.265 1485.02 256.425L1482.66 252.503C1488.35 251.011 1491.01 247.268 1491.07 243.414H1483.92V239.478H1491.07V235.901H1496.1V239.478H1503.2ZM1486.1 267.669C1492.34 266.895 1495.81 264.423 1496.72 261.743H1487.63V257.82H1511.59V261.743H1502.54C1503.45 264.367 1506.96 266.909 1513.15 267.71L1511.36 271.522C1505.66 270.762 1501.64 268.483 1499.6 265.417C1497.55 268.47 1493.56 270.693 1487.9 271.439L1486.1 267.669ZM1506.16 256.301V236.025H1511.16V244.022H1515.94V248.124H1511.16V256.301H1506.16ZM1527.88 238.539C1533.31 238.539 1537.23 243.456 1537.26 251.191C1537.23 259.008 1533.31 263.898 1527.88 263.898C1522.44 263.898 1518.47 259.008 1518.5 251.191C1518.47 243.456 1522.44 238.539 1527.88 238.539ZM1523.32 251.191C1523.31 256.508 1525.16 259.381 1527.88 259.381C1530.67 259.381 1532.47 256.508 1532.48 251.191C1532.47 245.928 1530.67 243.041 1527.88 243.041C1525.16 243.041 1523.31 245.928 1523.32 251.191ZM1541.38 271.605V236.025H1546.36V249.45H1551.61V253.608H1546.36V271.605H1541.38ZM1586.12 255.652V259.644H1572.27V271.605H1567.34V259.644H1553.69V255.652H1586.12ZM1555.28 249.685C1562.52 248.815 1566.47 245.293 1566.99 241.812H1556.62V237.917H1583.21V241.812H1572.85C1573.32 245.293 1577.26 248.815 1584.58 249.685L1582.77 253.594C1576.52 252.751 1572.06 250.086 1569.91 246.439C1567.75 250.086 1563.31 252.751 1557.12 253.594L1555.28 249.685ZM1617.93 245.749V249.657H1593.1V237.296H1598.06V245.749H1617.93ZM1589.02 257.365V253.456H1621.54V257.365H1589.02ZM1592.77 270.818V260.279H1597.75V266.812H1618.15V270.818H1592.77ZM1653.84 239.45C1653.82 250.376 1650.81 259.699 1637.39 266.287L1634.77 262.448C1640.63 259.547 1644.29 256.232 1646.43 252.254L1635.65 253.207L1635.05 248.967L1648.04 248.221C1648.46 246.715 1648.73 245.127 1648.89 243.442H1636.88V239.45H1653.84ZM1659.27 271.605V236.025H1664.31V271.605H1659.27ZM1686.01 237.876C1693.68 237.876 1699.41 241.757 1699.41 247.599C1699.41 252.972 1694.86 256.577 1688.47 257.296V263.373H1702.34V267.434H1669.82V263.373H1683.54V257.282C1677.18 256.564 1672.67 252.959 1672.68 247.599C1672.67 241.757 1678.39 237.876 1686.01 237.876ZM1677.59 247.599C1677.59 251.356 1681.05 253.456 1686.01 253.47C1691.02 253.456 1694.48 251.356 1694.49 247.599C1694.48 244.05 1691.02 241.854 1686.01 241.854C1681.05 241.854 1677.59 244.05 1677.59 247.599ZM1723.89 240.721C1723.88 245.942 1728.49 251.508 1736.55 252.876L1734.35 257.019C1728.15 255.79 1723.55 252.296 1721.26 247.738C1718.92 252.268 1714.31 255.776 1708.15 257.019L1706.01 252.876C1713.91 251.467 1718.55 245.887 1718.58 240.721V238.166H1723.89V240.721ZM1705.19 267.24V263.138H1737.71V267.24H1705.19ZM1769.65 239.16V243.331C1769.64 248.483 1769.64 253.414 1768.01 261.108L1763.05 260.666C1763.75 257.71 1764.17 255.099 1764.4 252.696L1743.8 253.691L1743.19 249.713L1764.67 248.953C1764.75 247.006 1764.76 245.169 1764.76 243.331V243.166H1744.27V239.16H1769.65ZM1740.56 267.323V263.262H1772.99V267.323H1740.56Z" fill="#56AFDF"/>
<path d="M1295.01 325.036C1295 330.05 1293.19 334.677 1286.91 337.743L1286.06 336.528C1289.31 334.96 1291.32 332.957 1292.42 330.609L1286.38 331.182L1286.13 329.815L1292.91 329.366C1293.23 328.399 1293.41 327.377 1293.49 326.307H1287V325.036H1295.01ZM1298.52 340.588V323.227H1300.06V340.588H1298.52ZM1311.29 324.359C1314.99 324.373 1317.64 326.169 1317.64 328.903C1317.64 331.486 1315.35 333.199 1312.05 333.42V337.066H1319.29V338.351H1303.39V337.066H1310.53V333.42C1307.26 333.192 1304.95 331.486 1304.95 328.903C1304.95 326.169 1307.62 324.373 1311.29 324.359ZM1306.43 328.903C1306.43 330.906 1308.49 332.204 1311.29 332.218C1314.11 332.204 1316.17 330.906 1316.17 328.903C1316.17 326.942 1314.11 325.616 1311.29 325.63C1308.49 325.616 1306.43 326.942 1306.43 328.903ZM1329.73 325.782C1329.73 328.751 1333.13 331.403 1336.16 331.97L1335.44 333.254C1332.82 332.646 1330.07 330.789 1328.94 328.233C1327.82 330.775 1325.07 332.64 1322.44 333.254L1321.74 331.97C1324.75 331.39 1328.12 328.765 1328.13 325.782V324.442H1329.73V325.782ZM1321.07 338.227V336.942H1336.97V338.227H1321.07ZM1352.61 324.994V327.149C1352.61 329.704 1352.61 332.066 1351.88 335.588L1350.35 335.45C1350.73 333.786 1350.92 332.336 1351.02 330.989L1340.42 331.555L1340.2 330.285L1351.08 329.836C1351.11 328.917 1351.11 328.04 1351.12 327.149V326.279H1340.67V324.994H1352.61ZM1338.76 338.144V336.859H1354.59V338.144H1338.76ZM1371.32 323.227V340.588H1369.84V323.227H1371.32ZM1356.67 330.713C1356.67 327.025 1358.13 324.691 1360.38 324.691C1362.49 324.691 1363.92 326.721 1364.12 329.994H1366.36V323.599H1367.84V339.704H1366.36V331.265H1364.12C1363.97 334.649 1362.53 336.762 1360.38 336.749C1358.13 336.762 1356.67 334.414 1356.67 330.713ZM1358.1 330.713C1358.09 333.53 1358.99 335.312 1360.38 335.298C1361.8 335.312 1362.7 333.53 1362.7 330.713C1362.7 327.895 1361.8 326.127 1360.38 326.127C1358.99 326.127 1358.09 327.895 1358.1 330.713ZM1380.24 327.895C1380.24 331.03 1382.25 334.193 1384.78 335.354L1383.85 336.597C1381.88 335.581 1380.25 333.503 1379.48 331.037C1378.71 333.634 1377.08 335.858 1375.1 336.914L1374.12 335.685C1376.66 334.428 1378.67 331.086 1378.69 327.895V324.732H1380.24V327.895ZM1382.89 330.409V329.152H1387V323.227H1388.52V340.616H1387V330.409H1382.89ZM1411.25 331.362V332.605H1405.9V337.108H1413.13V338.392H1397.23V337.108H1404.38V332.605H1399.27V324.635H1411.09V325.892H1400.8V331.362H1411.25ZM1421.09 327.895C1421.08 331.058 1423.23 334.249 1425.79 335.409L1424.85 336.624C1422.88 335.657 1421.17 333.599 1420.34 331.127C1419.54 333.744 1417.83 335.948 1415.79 336.97L1414.82 335.685C1417.41 334.497 1419.55 331.182 1419.56 327.895V324.732H1421.09V327.895ZM1427.7 340.616V323.227H1429.23V340.616H1427.7ZM1453.89 331.956V333.227H1438.02V331.956H1445.18V329.276H1446.68V331.956H1453.89ZM1438.98 328.972C1442.04 328.558 1445.15 326.624 1445.15 324.304V323.489H1446.7V324.304C1446.7 326.624 1449.82 328.558 1452.89 328.972L1452.27 330.202C1449.63 329.753 1447.02 328.358 1445.93 326.362C1444.84 328.372 1442.22 329.746 1439.56 330.202L1438.98 328.972ZM1439.78 336.155V334.925H1451.89V340.588H1450.35V336.155H1439.78ZM1470.59 323.227V340.588H1469.11V323.227H1470.59ZM1455.93 330.713C1455.93 327.025 1457.39 324.691 1459.65 324.691C1461.76 324.691 1463.19 326.721 1463.38 329.994H1465.63V323.599H1467.1V339.704H1465.63V331.265H1463.39C1463.24 334.649 1461.79 336.762 1459.65 336.749C1457.39 336.762 1455.93 334.414 1455.93 330.713ZM1457.37 330.713C1457.35 333.53 1458.25 335.312 1459.65 335.298C1461.07 335.312 1461.97 333.53 1461.97 330.713C1461.97 327.895 1461.07 326.127 1459.65 326.127C1458.25 326.127 1457.35 327.895 1457.37 330.713ZM1479.5 327.895C1479.5 331.03 1481.52 334.193 1484.04 335.354L1483.12 336.597C1481.14 335.581 1479.51 333.503 1478.74 331.037C1477.97 333.634 1476.34 335.858 1474.36 336.914L1473.38 335.685C1475.92 334.428 1477.94 331.086 1477.95 327.895V324.732H1479.5V327.895ZM1482.15 330.409V329.152H1486.27V323.227H1487.79V340.616H1486.27V330.409H1482.15ZM1511.03 334.069V335.395H1506.08C1506.23 337.315 1508.85 338.903 1511.73 339.331L1511.17 340.506C1508.6 340.091 1506.26 338.862 1505.27 337.101C1504.28 338.848 1501.98 340.091 1499.44 340.506L1498.88 339.331C1501.75 338.903 1504.31 337.315 1504.49 335.395H1499.58V334.069H1511.03ZM1496.9 328.282C1496.9 325.892 1498.82 324.249 1501.46 324.249C1504.1 324.249 1506 325.892 1506 328.282C1506 330.657 1504.1 332.301 1501.46 332.301C1498.82 332.301 1496.9 330.657 1496.9 328.282ZM1498.41 328.282C1498.39 329.912 1499.68 331.017 1501.46 331.03C1503.23 331.017 1504.51 329.912 1504.51 328.282C1504.51 326.666 1503.23 325.547 1501.46 325.561C1499.68 325.547 1498.39 326.666 1498.41 328.282ZM1509.3 333.185V323.24H1510.84V333.185H1509.3ZM1524.45 326.017V327.287H1514.18V326.017H1518.58V323.42H1520.14V326.017H1524.45ZM1515.32 332.715C1515.3 330.367 1517 328.724 1519.36 328.724C1521.7 328.724 1523.41 330.367 1523.43 332.715C1523.41 335.05 1521.7 336.693 1519.36 336.693C1517 336.693 1515.3 335.05 1515.32 332.715ZM1516.7 332.715C1516.68 334.276 1517.82 335.381 1519.36 335.367C1520.9 335.381 1522.03 334.276 1522.03 332.715C1522.03 331.169 1520.9 330.05 1519.36 330.036C1517.82 330.05 1516.68 331.169 1516.7 332.715ZM1524.12 330.271V329H1527.06V323.227H1528.58V340.588H1527.06V334.58H1524.13V333.323H1527.06V330.271H1524.12ZM1538.13 326.942C1538.13 329.29 1539.98 331.403 1542.57 332.232L1541.79 333.448C1539.77 332.764 1538.16 331.334 1537.38 329.504C1536.61 331.486 1534.99 333.047 1532.92 333.807L1532.12 332.577C1534.73 331.666 1536.57 329.414 1536.58 326.942V325.934H1532.52V324.677H1542.12V325.934H1538.13V326.942ZM1534.99 340.202V334.76H1536.52V338.931H1546.75V340.202H1534.99ZM1544.67 335.975V323.24H1546.21V335.975H1544.67ZM1569.37 323.227V333.572H1567.83V329.028H1564.33V327.757H1567.83V323.227H1569.37ZM1555.04 332.191C1557.63 331.251 1559.46 328.903 1559.46 326.417V325.768H1555.54V324.497H1564.89V325.768H1561.01V326.403C1561.01 328.669 1562.75 330.823 1565.29 331.693L1564.49 332.923C1562.54 332.218 1561.02 330.761 1560.27 328.972C1559.53 331.003 1557.92 332.626 1555.84 333.406L1555.04 332.191ZM1557.79 337.343C1557.78 335.298 1559.99 334.11 1563.61 334.11C1567.21 334.11 1569.42 335.298 1569.42 337.343C1569.42 339.387 1567.21 340.561 1563.61 340.575C1559.99 340.561 1557.78 339.387 1557.79 337.343ZM1559.31 337.343C1559.3 338.599 1560.94 339.359 1563.61 339.345C1566.26 339.359 1567.9 338.599 1567.9 337.343C1567.9 336.072 1566.26 335.312 1563.61 335.312C1560.94 335.312 1559.3 336.072 1559.31 337.343ZM1578.76 327.895C1578.76 331.03 1580.78 334.193 1583.31 335.354L1582.38 336.597C1580.41 335.581 1578.78 333.503 1578.01 331.037C1577.24 333.634 1575.61 335.858 1573.63 336.914L1572.65 335.685C1575.19 334.428 1577.2 331.086 1577.22 327.895V324.732H1578.76V327.895ZM1581.42 330.409V329.152H1585.53V323.227H1587.05V340.616H1585.53V330.409H1581.42ZM1596.38 326.431C1596.38 328.682 1598.12 330.837 1600.66 331.721L1599.86 332.923C1597.9 332.225 1596.39 330.775 1595.64 328.986C1594.89 330.982 1593.28 332.577 1591.22 333.337L1590.41 332.122C1592.98 331.21 1594.83 328.89 1594.83 326.445V325.685H1590.91V324.428H1600.26V325.685H1596.38V326.431ZM1593.05 335.809V334.552H1604.74V340.588H1603.2V335.809H1593.05ZM1599.71 329.055V327.771H1603.2V323.227H1604.74V333.627H1603.2V329.055H1599.71ZM1627.37 324.981V326.707C1627.36 328.848 1627.36 331.224 1626.72 334.718L1625.18 334.539C1625.83 331.224 1625.83 328.793 1625.84 326.707V326.251H1615.13V324.981H1627.37ZM1613.45 338.13V336.845H1619.65V330.644H1621.17V336.845H1629.28V338.13H1613.45ZM1647.28 326.265V327.536H1644.71V329.939H1647.28V331.224H1644.71V334.428H1643.18V323.227H1644.71V326.265H1647.28ZM1631.18 326.431V325.202H1635.6V323.088H1637.12V325.202H1641.52V326.431H1631.18ZM1632.17 330.395C1632.16 328.53 1633.83 327.329 1636.36 327.329C1638.84 327.329 1640.51 328.53 1640.53 330.395C1640.51 332.26 1638.84 333.461 1636.36 333.448C1633.83 333.461 1632.16 332.26 1632.17 330.395ZM1633.54 337.564C1633.52 335.657 1635.68 334.552 1639.23 334.552C1642.75 334.552 1644.91 335.657 1644.91 337.564C1644.91 339.442 1642.75 340.547 1639.23 340.547C1635.68 340.547 1633.52 339.442 1633.54 337.564ZM1633.63 330.395C1633.62 331.528 1634.71 332.26 1636.36 332.26C1637.97 332.26 1639.06 331.528 1639.08 330.395C1639.06 329.249 1637.97 328.489 1636.36 328.475C1634.71 328.489 1633.62 329.249 1633.63 330.395ZM1635.06 337.564C1635.04 338.682 1636.62 339.359 1639.23 339.345C1641.81 339.359 1643.39 338.682 1643.39 337.564C1643.39 336.403 1641.81 335.754 1639.23 335.754C1636.62 335.754 1635.04 336.403 1635.06 337.564ZM1656.72 323.53C1660.59 323.53 1662.85 324.594 1662.85 326.528C1662.85 328.489 1660.59 329.552 1656.72 329.566C1652.85 329.552 1650.57 328.489 1650.57 326.528C1650.57 324.594 1652.85 323.53 1656.72 323.53ZM1648.82 331.983V330.74H1664.65V331.983H1648.82ZM1650.74 334.663V333.489H1662.6V337.37H1652.29V339.18H1663.13V340.395H1650.78V336.238H1661.1V334.663H1650.74ZM1652.18 326.528C1652.16 327.729 1653.85 328.392 1656.72 328.392C1659.61 328.392 1661.29 327.729 1661.29 326.528C1661.29 325.381 1659.61 324.691 1656.72 324.691C1653.85 324.691 1652.16 325.381 1652.18 326.528ZM1677.85 326.845C1677.85 328.931 1679.59 330.837 1682.16 331.597L1681.44 332.771C1679.43 332.17 1677.88 330.878 1677.11 329.221C1676.35 331.044 1674.74 332.446 1672.68 333.116L1671.92 331.901C1674.51 331.127 1676.33 329.138 1676.33 326.845V326.514H1672.41V325.257H1676.33V323.144H1677.88V325.257H1681.76V326.514H1677.85V326.845ZM1673.68 339.331C1676.47 338.883 1679 337.356 1679.27 335.506H1674.36V334.249H1685.81V335.506H1680.9C1681.14 337.322 1683.69 338.89 1686.48 339.331L1685.9 340.533C1683.37 340.098 1681.06 338.841 1680.07 337.101C1679.08 338.834 1676.79 340.07 1674.26 340.506L1673.68 339.331ZM1683.97 333.323V323.227H1685.5V327.522H1688.11V328.807H1685.5V333.323H1683.97ZM1693.15 333.641V335.671H1701.82V333.641H1703.37V340.354H1691.63V333.641H1693.15ZM1689.61 332.425V331.141H1705.44V332.425H1689.61ZM1690.51 328.696C1693.6 328.268 1696.74 326.445 1696.74 324.235V323.42H1698.31V324.235C1698.31 326.376 1701.47 328.296 1704.53 328.696L1703.96 329.912C1701.27 329.511 1698.63 328.137 1697.53 326.203C1696.43 328.157 1693.77 329.511 1691.09 329.912L1690.51 328.696ZM1693.15 339.11H1701.82V336.887H1693.15V339.11ZM1721.6 323.227V340.588H1720.09V323.227H1721.6ZM1708.43 336.113V324.939H1709.93V334.773C1712.59 334.767 1715.31 334.559 1718.23 333.945L1718.44 335.257C1715.36 335.892 1712.61 336.113 1709.84 336.113H1708.43ZM1738.42 323.227V330.091H1741.32V331.376H1738.42V340.616H1736.89V323.227H1738.42ZM1725.74 336.265V324.925H1733.85V326.182H1727.27V334.967C1730.42 334.96 1732.64 334.836 1735.22 334.359L1735.41 335.685C1732.69 336.169 1730.41 336.265 1727.11 336.265H1725.74ZM1744.5 339.11C1743.81 339.11 1743.23 338.544 1743.25 337.854C1743.23 337.163 1743.81 336.597 1744.5 336.597C1745.19 336.597 1745.76 337.163 1745.76 337.854C1745.76 338.544 1745.19 339.11 1744.5 339.11ZM1295.33 358.566V359.492C1295.32 360.624 1295.32 362.351 1294.88 364.63L1293.34 364.506C1293.76 362.42 1293.81 360.949 1293.82 359.851H1286.67V358.566H1295.33ZM1285.61 366.246C1286.73 366.239 1288 366.232 1289.34 366.198V362.42H1290.86V366.149C1292.78 366.066 1294.77 365.928 1296.57 365.68L1296.67 366.812C1293.04 367.434 1288.85 367.503 1285.76 367.517L1285.61 366.246ZM1288.29 374.202V369.105H1289.82V372.931H1299.88V374.202H1288.29ZM1297.76 370.293V357.227H1299.31V362.876H1301.85V364.188H1299.31V370.293H1297.76ZM1316.97 357.24V361.688H1319.59V363H1316.97V367.586H1315.43V357.24H1316.97ZM1304.12 359.436V358.18H1311.99V362.917H1305.68V365.376C1308.76 365.39 1310.99 365.3 1313.71 364.851L1313.86 366.094C1311.07 366.577 1308.75 366.674 1305.52 366.674H1304.16V361.729H1310.49V359.436H1304.12ZM1305.97 374.354V368.442H1316.97V374.354H1305.97ZM1307.46 373.097H1315.48V369.644H1307.46V373.097ZM1335.81 357.24V367.475H1334.36V362.89H1331.99V367.365H1330.52V357.572H1331.99V361.605H1334.36V357.24H1335.81ZM1321.17 366.508C1324.78 365.044 1326.82 362.696 1327.12 359.782H1321.88V358.511H1328.69C1328.69 362.655 1326.34 365.79 1321.93 367.669L1321.17 366.508ZM1324.1 369.533V368.276H1335.81V374.588H1334.31V369.533H1324.1ZM1344.44 358.497C1347.17 358.497 1349.11 360.155 1349.12 362.572C1349.11 364.989 1347.17 366.646 1344.44 366.646C1341.7 366.646 1339.74 364.989 1339.75 362.572C1339.74 360.155 1341.7 358.497 1344.44 358.497ZM1338.86 369.478C1342.06 369.492 1346.48 369.464 1350.32 368.898L1350.44 370.03C1346.47 370.776 1342.2 370.79 1339.06 370.79L1338.86 369.478ZM1341.26 362.572C1341.25 364.188 1342.59 365.307 1344.44 365.307C1346.27 365.307 1347.61 364.188 1347.61 362.572C1347.61 360.956 1346.27 359.837 1344.44 359.837C1342.59 359.837 1341.25 360.956 1341.26 362.572ZM1351.47 374.616V357.227H1353V374.616H1351.47ZM1375.44 357.227V361.301H1378.05V362.599H1375.44V366.481H1373.91V357.227H1375.44ZM1362.69 365.887V358.373H1370.37V359.644H1364.21V364.602C1367.69 364.602 1369.68 364.499 1372 364.008L1372.2 365.279C1369.75 365.776 1367.68 365.887 1364.03 365.887H1362.69ZM1364.45 374.298V367.42H1365.97V369.575H1373.91V367.42H1375.44V374.298H1364.45ZM1365.97 373.028H1373.91V370.818H1365.97V373.028ZM1393.94 357.24V370.086H1392.41V365.431H1388.31V367.116H1380.42V358.387H1381.95V361.481H1386.79V358.387H1388.31V360.431H1392.41V357.24H1393.94ZM1381.95 365.859H1386.79V362.682H1381.95V365.859ZM1382.71 374.202V368.829H1384.26V372.931H1394.34V374.202H1382.71ZM1388.31 364.16H1392.41V361.702H1388.31V364.16ZM1405.14 357.53C1409 357.53 1411.27 358.594 1411.27 360.528C1411.27 362.489 1409 363.552 1405.14 363.566C1401.27 363.552 1398.99 362.489 1398.99 360.528C1398.99 358.594 1401.27 357.53 1405.14 357.53ZM1397.23 365.983V364.74H1413.06V365.983H1397.23ZM1399.15 368.663V367.489H1411.02V371.37H1400.7V373.18H1411.54V374.395H1399.2V370.238H1409.51V368.663H1399.15ZM1400.59 360.528C1400.58 361.729 1402.26 362.392 1405.14 362.392C1408.02 362.392 1409.71 361.729 1409.71 360.528C1409.71 359.381 1408.02 358.691 1405.14 358.691C1402.26 358.691 1400.58 359.381 1400.59 360.528ZM1433.78 357.227V364.064H1436.68V365.39H1433.78V374.588H1432.25V357.227H1433.78ZM1421.06 370.417V358.704H1422.58V363.29H1427.66V358.704H1429.18V370.417H1421.06ZM1422.58 369.133H1427.66V364.519H1422.58V369.133ZM1451.6 357.227V361.743H1454.21V363.014H1451.6V367.903H1450.07V357.227H1451.6ZM1438.84 366.715V358.456H1446.82V359.699H1440.37V361.923H1446.51V363.152H1440.37V365.459C1443.76 365.465 1445.68 365.383 1447.97 364.989L1448.15 366.232C1445.75 366.66 1443.74 366.729 1440.15 366.715H1438.84ZM1440.3 371.453C1440.29 369.478 1442.49 368.345 1446.06 368.345C1449.63 368.345 1451.8 369.478 1451.8 371.453C1451.8 373.428 1449.63 374.547 1446.06 374.547C1442.49 374.547 1440.29 373.428 1440.3 371.453ZM1441.82 371.453C1441.82 372.641 1443.41 373.359 1446.06 373.345C1448.67 373.359 1450.28 372.641 1450.28 371.453C1450.28 370.265 1448.67 369.561 1446.06 369.561C1443.41 369.561 1441.82 370.265 1441.82 371.453ZM1463.61 358.345C1467.24 358.359 1469.96 360.251 1469.96 363.124C1469.96 366.011 1467.24 367.903 1463.61 367.89C1459.99 367.903 1457.27 366.011 1457.27 363.124C1457.27 360.251 1459.99 358.359 1463.61 358.345ZM1455.71 372.268V370.983H1471.61V372.268H1455.71ZM1458.73 363.124C1458.72 365.224 1460.82 366.633 1463.61 366.633C1466.4 366.633 1468.49 365.224 1468.49 363.124C1468.49 361.039 1466.4 359.588 1463.61 359.602C1460.82 359.588 1458.72 361.039 1458.73 363.124ZM1489.29 371.135V372.434H1473.4V371.135H1480.54V367.862H1475.38V362.503H1485.77V359.782H1475.34V358.511H1487.29V363.76H1476.9V366.591H1487.69V367.862H1482.06V371.135H1489.29ZM1497.99 373H1496.14L1501.32 358.856H1503.17L1508.35 373H1506.5L1505.09 369.022H1499.4L1497.99 373ZM1499.95 367.475H1504.55L1502.3 361.135H1502.19L1499.95 367.475ZM1512.42 358.856V373H1510.67V358.856H1512.42ZM1528.53 357.227V364.285H1531.35V365.583H1528.53V374.575H1527V357.227H1528.53ZM1515.2 370.072C1519.69 367.841 1522.14 364.499 1522.48 360.376H1516.02V359.091H1524.04C1524.03 364.008 1521.72 368.483 1516.06 371.273L1515.2 370.072ZM1551.77 357.227V361.633H1554.39V362.945H1551.77V367.42H1550.24V357.227H1551.77ZM1538.17 366.025C1542.44 364.872 1545.06 362.544 1545.37 359.602H1538.96V358.331H1547.01C1547 362.724 1543.93 365.859 1538.81 367.213L1538.17 366.025ZM1540.41 369.464V368.207H1551.77V374.588H1550.24V369.464H1540.41ZM1561.75 362.558C1561.74 365.334 1563.76 368.401 1566.27 369.602L1565.39 370.818C1563.44 369.858 1561.79 367.814 1561.01 365.465C1560.21 368.007 1558.47 370.251 1556.52 371.246L1555.59 370.03C1558.09 368.815 1560.23 365.514 1560.25 362.558V360.293H1556.21V359.008H1565.66V360.293H1561.75V362.558ZM1567.79 374.588V357.227H1569.32V364.243H1572.22V365.555H1569.32V374.588H1567.79ZM1579.24 358.497C1581.98 358.497 1583.91 360.155 1583.93 362.572C1583.91 364.989 1581.98 366.646 1579.24 366.646C1576.51 366.646 1574.55 364.989 1574.56 362.572C1574.55 360.155 1576.51 358.497 1579.24 358.497ZM1573.66 369.478C1576.87 369.492 1581.29 369.464 1585.13 368.898L1585.25 370.03C1581.27 370.776 1577.01 370.79 1573.87 370.79L1573.66 369.478ZM1576.07 362.572C1576.05 364.188 1577.39 365.307 1579.24 365.307C1581.08 365.307 1582.42 364.188 1582.42 362.572C1582.42 360.956 1581.08 359.837 1579.24 359.837C1577.39 359.837 1576.05 360.956 1576.07 362.572ZM1586.27 374.616V357.227H1587.81V374.616H1586.27ZM1610.6 358.981V360.707C1610.58 362.848 1610.58 365.224 1609.95 368.718L1608.4 368.539C1609.05 365.224 1609.05 362.793 1609.06 360.707V360.251H1598.36V358.981H1610.6ZM1596.67 372.13V370.845H1602.87V364.644H1604.39V370.845H1612.5V372.13H1596.67ZM1630.5 360.265V361.536H1627.93V363.939H1630.5V365.224H1627.93V368.428H1626.4V357.227H1627.93V360.265H1630.5ZM1614.4 360.431V359.202H1618.82V357.088H1620.34V359.202H1624.74V360.431H1614.4ZM1615.39 364.395C1615.38 362.53 1617.05 361.329 1619.58 361.329C1622.06 361.329 1623.74 362.53 1623.75 364.395C1623.74 366.26 1622.06 367.461 1619.58 367.448C1617.05 367.461 1615.38 366.26 1615.39 364.395ZM1616.76 371.564C1616.75 369.657 1618.9 368.552 1622.45 368.552C1625.97 368.552 1628.13 369.657 1628.13 371.564C1628.13 373.442 1625.97 374.547 1622.45 374.547C1618.9 374.547 1616.75 373.442 1616.76 371.564ZM1616.86 364.395C1616.84 365.528 1617.93 366.26 1619.58 366.26C1621.19 366.26 1622.29 365.528 1622.3 364.395C1622.29 363.249 1621.19 362.489 1619.58 362.475C1617.93 362.489 1616.84 363.249 1616.86 364.395ZM1618.28 371.564C1618.27 372.682 1619.84 373.359 1622.45 373.345C1625.03 373.359 1626.61 372.682 1626.61 371.564C1626.61 370.403 1625.03 369.754 1622.45 369.754C1619.84 369.754 1618.27 370.403 1618.28 371.564ZM1651.77 357.227V374.616H1650.24V357.227H1651.77ZM1638.11 364.616C1638.11 360.928 1639.95 358.58 1642.55 358.566C1645.11 358.58 1646.98 360.928 1646.98 364.616C1646.98 368.318 1645.11 370.666 1642.55 370.666C1639.95 370.666 1638.11 368.318 1638.11 364.616ZM1639.59 364.616C1639.59 367.448 1640.8 369.298 1642.55 369.298C1644.29 369.298 1645.49 367.448 1645.49 364.616C1645.49 361.798 1644.29 359.948 1642.55 359.934C1640.8 359.948 1639.59 361.798 1639.59 364.616ZM1664.18 358.939V370.224H1656.16V358.939H1664.18ZM1657.68 368.967H1662.69V360.169H1657.68V368.967ZM1667.92 374.616V357.227H1669.46V374.616H1667.92ZM1679.05 362.558C1679.05 365.5 1681.19 368.497 1683.74 369.602L1682.89 370.818C1680.86 369.892 1679.11 367.896 1678.3 365.5C1677.48 368.041 1675.73 370.251 1673.74 371.246L1672.83 370.03C1675.32 368.843 1677.49 365.555 1677.5 362.558V360.293H1673.4V359.008H1683.18V360.293H1679.05V362.558ZM1685.61 374.588V357.227H1687.14V374.588H1685.61ZM1706.39 365.293V366.494H1690.49V365.293H1706.39ZM1692.41 369.036V367.89H1704.4V371.577H1693.97V373.235H1704.97V374.354H1692.44V370.514H1702.88V369.036H1692.41ZM1692.51 358.856V357.751H1704.34V361.343H1694.08V362.862H1704.65V363.981H1692.56V360.293H1702.81V358.856H1692.51ZM1718.8 360.68C1718.8 362.599 1720.14 364.547 1722.38 365.376L1721.56 366.564C1719.89 365.921 1718.7 364.664 1718.07 363.166C1717.43 364.83 1716.19 366.301 1714.48 367.047L1713.64 365.859C1715.93 364.851 1717.32 362.613 1717.32 360.68V358.318H1718.8V360.68ZM1716.8 371.453C1716.79 369.492 1719.01 368.345 1722.63 368.345C1726.22 368.345 1728.46 369.492 1728.46 371.453C1728.46 373.401 1726.22 374.547 1722.63 374.547C1719.01 374.547 1716.79 373.401 1716.8 371.453ZM1718.32 371.453C1718.3 372.641 1719.96 373.359 1722.63 373.345C1725.27 373.359 1726.92 372.641 1726.94 371.453C1726.92 370.251 1725.27 369.533 1722.63 369.533C1719.96 369.533 1718.3 370.251 1718.32 371.453ZM1723.15 367.406V357.572H1724.59V361.909H1726.91V357.24H1728.36V367.959H1726.91V363.18H1724.59V367.406H1723.15ZM1737.27 359.961C1737.26 362.434 1739.03 364.616 1741.58 365.472L1740.73 366.674C1738.81 365.956 1737.3 364.547 1736.55 362.717C1735.81 364.796 1734.22 366.412 1732.12 367.199L1731.29 365.956C1733.96 365.017 1735.74 362.71 1735.76 360.017V358.221H1737.27V359.961ZM1734.13 371.301C1734.11 369.215 1736.32 368.014 1739.94 368.014C1743.55 368.014 1745.76 369.215 1745.76 371.301C1745.76 373.373 1743.55 374.547 1739.94 374.547C1736.32 374.547 1734.11 373.373 1734.13 371.301ZM1735.64 371.301C1735.63 372.558 1737.27 373.318 1739.94 373.318C1742.59 373.318 1744.24 372.558 1744.24 371.301C1744.24 370.003 1742.59 369.229 1739.94 369.229C1737.27 369.229 1735.63 370.003 1735.64 371.301ZM1740.3 362.213V360.942H1744.17V357.227H1745.7V367.517H1744.17V362.213H1740.3ZM1762.43 357.227V364.381H1765.33V365.666H1762.43V374.588H1760.91V357.227H1762.43ZM1748.9 361.287V360.017H1753.36V357.434H1754.89V360.017H1759.23V361.287H1748.9ZM1749.89 366.715C1749.88 364.367 1751.67 362.724 1754.14 362.724C1756.6 362.724 1758.38 364.367 1758.4 366.715C1758.38 369.064 1756.6 370.693 1754.14 370.693C1751.67 370.693 1749.88 369.064 1749.89 366.715ZM1751.35 366.715C1751.34 368.29 1752.53 369.409 1754.14 369.395C1755.75 369.409 1756.92 368.29 1756.93 366.715C1756.92 365.141 1755.75 364.008 1754.14 364.008C1752.53 364.008 1751.34 365.141 1751.35 366.715ZM1780.6 358.981V360.707C1780.59 362.848 1780.59 365.224 1779.95 368.718L1778.4 368.539C1779.05 365.224 1779.05 362.793 1779.07 360.707V360.251H1768.36V358.981H1780.6ZM1766.68 372.13V370.845H1772.88V364.644H1774.4V370.845H1782.51V372.13H1766.68ZM1787.21 371.674L1785.7 376.992H1784.25L1785.33 371.674H1787.21ZM1299.39 393.077V394.818C1299.39 397 1299.39 399.472 1298.74 403.243L1297.18 403.091C1297.89 399.541 1297.89 396.945 1297.89 394.818V394.348H1287.43V393.077H1299.39ZM1285.7 406.033V404.749H1301.53V406.033H1285.7ZM1323.2 391.227V408.616H1321.68V398.961H1317.51V404.224H1309.51V392.58H1311.06V397.11H1316.02V392.58H1317.51V397.691H1321.68V391.227H1323.2ZM1311.06 402.953H1316.02V398.34H1311.06V402.953ZM1330.13 391.53V393.202H1338.72V391.53H1340.25V397.262H1328.59V391.53H1330.13ZM1326.49 399.983V398.754H1342.32V399.983H1326.49ZM1328.41 402.76V401.586H1340.28V405.439H1329.96V407.18H1340.8V408.395H1328.46V404.307H1338.77V402.76H1328.41ZM1330.13 396.075H1338.72V394.376H1330.13V396.075ZM1360.02 398.519V399.762H1344.18V398.519H1360.02ZM1346.1 402.511V401.309H1357.96V405.343H1347.65V407.138H1358.49V408.381H1346.14V404.182H1356.46V402.511H1346.1ZM1346.29 397.097V391.82H1357.95V393.064H1347.83V395.84H1358.13V397.097H1346.29ZM1377.69 400.384V401.627H1361.86V400.384H1377.69ZM1363.62 395.273C1363.62 393.105 1366.01 391.82 1369.77 391.834C1373.51 391.82 1375.9 393.105 1375.9 395.273C1375.9 397.442 1373.51 398.74 1369.77 398.74C1366.01 398.74 1363.62 397.442 1363.62 395.273ZM1363.91 408.202V403.16H1365.46V406.931H1375.93V408.202H1363.91ZM1365.21 395.273C1365.19 396.655 1366.98 397.483 1369.77 397.483C1372.56 397.483 1374.34 396.655 1374.34 395.273C1374.34 393.92 1372.56 393.077 1369.77 393.077C1366.98 393.077 1365.19 393.92 1365.21 395.273ZM1399.36 391.24V403.975H1397.83V397.304H1394.25V396.047H1397.83V391.24H1399.36ZM1385.04 400.494C1387.61 399.597 1389.46 397.304 1389.46 394.818V393.92H1385.54V392.649H1394.89V393.92H1391.01V394.818C1391.01 397.055 1392.75 399.238 1395.29 400.108L1394.49 401.337C1392.52 400.633 1391.01 399.175 1390.26 397.38C1389.51 399.383 1387.9 400.978 1385.84 401.751L1385.04 400.494ZM1388.22 408.202V402.829H1389.75V406.931H1399.84V408.202H1388.22ZM1408.83 395.895C1408.81 399.058 1410.97 402.249 1413.52 403.409L1412.59 404.624C1410.61 403.657 1408.9 401.599 1408.08 399.127C1407.27 401.744 1405.56 403.948 1403.52 404.97L1402.56 403.685C1405.14 402.497 1407.28 399.182 1407.3 395.895V392.732H1408.83V395.895ZM1415.43 408.616V391.227H1416.96V408.616H1415.43ZM1433.6 402.193C1437.33 402.193 1439.7 403.367 1439.71 405.384C1439.7 407.373 1437.33 408.547 1433.6 408.547C1429.89 408.547 1427.53 407.373 1427.53 405.384C1427.53 403.367 1429.89 402.193 1433.6 402.193ZM1425.77 400.577V399.32H1432.32V395.964H1433.83V399.32H1441.57V400.577H1425.77ZM1427.65 393.367V392.11H1439.56V393.588C1439.56 394.983 1439.56 396.392 1439.07 398.188L1437.57 398.022C1438.04 396.227 1438.04 394.942 1438.04 393.588V393.367H1427.65ZM1429.06 405.384C1429.05 406.586 1430.84 407.331 1433.6 407.331C1436.38 407.331 1438.16 406.586 1438.18 405.384C1438.16 404.141 1436.38 403.381 1433.6 403.367C1430.84 403.381 1429.05 404.141 1429.06 405.384ZM1457.02 391.227V396.503H1459.63V397.801H1457.02V403.934H1455.47V391.227H1457.02ZM1443.47 400.688C1447.64 399.39 1450.34 396.924 1450.66 393.851H1444.19V392.566H1452.33C1452.33 397.041 1449.13 400.356 1444.13 401.917L1443.47 400.688ZM1446.14 408.202V402.635H1447.67V406.931H1457.81V408.202H1446.14ZM1482.42 399.956V401.227H1466.55V399.956H1473.7V397.276H1475.21V399.956H1482.42ZM1467.5 396.972C1470.57 396.558 1473.68 394.624 1473.68 392.304V391.489H1475.22V392.304C1475.22 394.624 1478.34 396.558 1481.41 396.972L1480.79 398.202C1478.16 397.753 1475.55 396.358 1474.46 394.362C1473.37 396.372 1470.75 397.746 1468.08 398.202L1467.5 396.972ZM1468.3 404.155V402.925H1480.42V408.588H1478.87V404.155H1468.3ZM1499.11 391.227V408.588H1497.63V391.227H1499.11ZM1484.46 398.713C1484.46 395.025 1485.92 392.691 1488.17 392.691C1490.28 392.691 1491.71 394.721 1491.91 397.994H1494.15V391.599H1495.63V407.704H1494.15V399.265H1491.91C1491.76 402.649 1490.32 404.762 1488.17 404.749C1485.92 404.762 1484.46 402.414 1484.46 398.713ZM1485.89 398.713C1485.88 401.53 1486.78 403.312 1488.17 403.298C1489.59 403.312 1490.49 401.53 1490.49 398.713C1490.49 395.895 1489.59 394.127 1488.17 394.127C1486.78 394.127 1485.88 395.895 1485.89 398.713ZM1508.02 395.895C1508.02 399.03 1510.04 402.193 1512.57 403.354L1511.64 404.597C1509.67 403.581 1508.04 401.503 1507.26 399.037C1506.5 401.634 1504.87 403.858 1502.89 404.914L1501.91 403.685C1504.45 402.428 1506.46 399.086 1506.48 395.895V392.732H1508.02V395.895ZM1510.68 398.409V397.152H1514.79V391.227H1516.31V408.616H1514.79V398.409H1510.68ZM1538.6 391.227V395.84H1541.21V397.166H1538.6V401.682H1537.07V391.227H1538.6ZM1525.07 394.334V393.077H1529.49V391.088H1531V393.077H1535.41V394.334H1525.07ZM1526.06 398.298C1526.05 396.434 1527.72 395.204 1530.24 395.204C1532.73 395.204 1534.4 396.434 1534.42 398.298C1534.4 400.177 1532.73 401.392 1530.24 401.392C1527.72 401.392 1526.05 400.177 1526.06 398.298ZM1527.52 398.298C1527.51 399.472 1528.6 400.204 1530.24 400.218C1531.86 400.204 1532.95 399.472 1532.97 398.298C1532.95 397.152 1531.86 396.392 1530.24 396.392C1528.6 396.392 1527.51 397.152 1527.52 398.298ZM1527.63 408.354V402.677H1538.6V408.354H1527.63ZM1529.14 407.097H1537.08V403.906H1529.14V407.097ZM1547.02 393.326C1547 396.972 1546.49 401.075 1543.97 404.445L1542.75 403.74C1544.92 401.019 1545.56 397.801 1545.69 394.597H1543.1V393.326H1547.02ZM1546.65 404.873C1549.04 401.807 1549.46 397.849 1549.53 394.597H1547.57V393.326H1550.87C1550.87 394.742 1550.83 396.365 1550.62 398.05H1552.93V391.696H1554.39V407.704H1552.93V399.32H1550.42C1550.02 401.489 1549.26 403.685 1547.85 405.591L1546.65 404.873ZM1556.16 408.588V391.227H1557.64V408.588H1556.16ZM1570.48 392.566C1572.84 392.58 1574.55 394.61 1574.79 397.856H1578.69V391.227H1580.21V408.616H1578.69V399.127H1574.81C1574.64 402.532 1572.91 404.666 1570.48 404.666C1567.91 404.666 1566.12 402.318 1566.13 398.616C1566.12 394.928 1567.91 392.58 1570.48 392.566ZM1567.6 398.616C1567.6 401.448 1568.77 403.298 1570.48 403.298C1572.18 403.298 1573.37 401.448 1573.37 398.616C1573.37 395.798 1572.18 393.948 1570.48 393.934C1568.77 393.948 1567.6 395.798 1567.6 398.616ZM1599.37 401.171V402.47H1592.13V408.588H1590.63V402.47H1583.47V401.171H1599.37ZM1585.28 395.743C1585.28 393.395 1587.74 391.931 1591.39 391.917C1595.03 391.931 1597.5 393.395 1597.5 395.743C1597.5 398.064 1595.03 399.528 1591.39 399.528C1587.74 399.528 1585.28 398.064 1585.28 395.743ZM1586.86 395.743C1586.84 397.29 1588.68 398.285 1591.39 398.285C1594.09 398.285 1595.93 397.29 1595.93 395.743C1595.93 394.182 1594.09 393.174 1591.39 393.174C1588.68 393.174 1586.84 394.182 1586.86 395.743ZM1615.56 391.227V408.616H1614.04V399.182H1610.66V397.898H1614.04V391.227H1615.56ZM1601.79 394.113V392.843H1609.61V398.906H1603.37V403.133C1606.36 403.126 1608.53 403.043 1611.06 402.566L1611.18 403.851C1608.57 404.32 1606.32 404.431 1603.17 404.445H1601.85V397.635H1608.12V394.113H1601.79ZM1625.13 394.086C1625.13 396.351 1627 398.367 1629.59 399.155L1628.81 400.356C1626.78 399.714 1625.15 398.319 1624.36 396.523C1623.6 398.443 1621.96 399.949 1619.88 400.66L1619.09 399.445C1621.7 398.616 1623.57 396.475 1623.58 394.086V393.644H1619.52V392.387H1629.12V393.644H1625.13V394.086ZM1621.96 408.354V401.475H1623.47V403.575H1631.69V401.475H1633.21V408.354H1621.96ZM1623.47 407.097H1631.69V404.804H1623.47V407.097ZM1631.67 400.619V391.227H1633.21V400.619H1631.67ZM1650.86 391.227V408.588H1649.34V391.227H1650.86ZM1637.69 404.113V392.939H1639.19V402.773C1641.84 402.767 1644.57 402.559 1647.49 401.945L1647.7 403.257C1644.62 403.892 1641.87 404.113 1639.1 404.113H1637.69ZM1667.68 391.227V398.091H1670.58V399.376H1667.68V408.616H1666.15V391.227H1667.68ZM1655 404.265V392.925H1663.11V394.182H1656.53V402.967C1659.67 402.96 1661.9 402.836 1664.47 402.359L1664.67 403.685C1661.95 404.169 1659.67 404.265 1656.37 404.265H1655ZM1673.76 407.11C1673.07 407.11 1672.49 406.544 1672.5 405.854C1672.49 405.163 1673.07 404.597 1673.76 404.597C1674.45 404.597 1675.02 405.163 1675.02 405.854C1675.02 406.544 1674.45 407.11 1673.76 407.11Z" fill="#40424D"/>
<g clip-path="url(#clip1_2090_4328)">
<rect x="-8" width="1213" height="1280" fill="#EBF0F4"/>
<path d="M-0.09375 383V100.188H58.5V225.578H62.4062L165.141 100.188H235.844L130.375 226.75L237.016 383H166.703L88.1875 266.203L58.5 302.141V383H-0.09375ZM339.734 100.188V383H281.141V100.188H339.734ZM662.375 241.594C662.375 333.781 604.953 386.906 530.344 386.906C454.953 386.906 397.922 333.391 397.922 241.594C397.922 149.406 454.953 96.2812 530.344 96.2812C604.953 96.2812 662.375 149.406 662.375 241.594ZM602.609 241.594C602.609 181.047 574.094 148.234 530.344 148.234C486.594 148.234 457.688 181.047 457.688 241.594C457.688 302.141 486.594 334.953 530.344 334.953C574.094 334.953 602.609 302.141 602.609 241.594ZM874.078 181.047C871.734 158.781 853.766 145.5 825.25 145.5C795.562 145.5 779.156 159.172 778.766 177.922C778.375 198.234 799.859 207.609 824.078 213.078L849.469 219.328C897.906 230.266 934.234 254.875 934.234 302.141C934.234 354.094 893.609 386.906 824.859 386.906C756.5 386.906 712.75 355.266 711.188 294.719H768.219C770.172 323.234 792.828 337.688 824.078 337.688C854.938 337.688 874.859 323.234 874.859 302.141C874.859 283 857.281 274.016 826.422 266.203L795.562 258.781C747.906 247.062 718.609 223.234 718.609 181.828C718.609 130.266 763.922 96.2812 825.641 96.2812C888.141 96.2812 929.547 131.047 930.328 181.047H874.078ZM988.516 383V100.188H1047.11V225.578H1051.02L1153.75 100.188H1224.45L1118.98 226.75L1225.62 383H1155.31L1076.8 266.203L1047.11 302.141V383H988.516Z" fill="#56AFDF"/>
</g>
</g>
<defs>
<linearGradient id="paint0_linear_2090_4328" x1="1389.75" y1="1058.43" x2="1805.44" y2="1298.43" gradientUnits="userSpaceOnUse">
<stop stop-color="white"/>
<stop offset="1" stop-color="white" stop-opacity="0"/>
</linearGradient>
<clipPath id="clip0_2090_4328">
<rect width="1920" height="1280" fill="white"/>
</clipPath>
<clipPath id="clip1_2090_4328">
<rect width="1205" height="1280" fill="white"/>
</clipPath>
</defs>
</svg>
