<svg width="456" height="225" viewBox="0 0 456 225" fill="none" xmlns="http://www.w3.org/2000/svg">
<path d="M444.667 20C444.667 22.9455 447.054 25.3333 450 25.3333C452.946 25.3333 455.333 22.9455 455.333 20C455.333 17.0545 452.946 14.6667 450 14.6667C447.054 14.6667 444.667 17.0545 444.667 20ZM0 20L0 21H0.020751V20V19H0L0 20ZM0.020751 20V21H450V20V19H0.020751V20Z" fill="url(#paint0_linear_2681_4207)"/>
<path d="M449.07 106.486V119.41H434.858V156.6C434.858 163.458 438.311 164.908 442.562 164.908C444.554 164.908 447.875 164.777 450 164.645V178.36C448.008 178.756 444.687 179.02 440.437 179.02C427.685 179.02 417.856 172.821 417.989 159.369V119.41H407.628V106.486H417.989V89.3414H434.858V106.486H449.07Z" fill="#525666"/>
<path d="M366.654 179.547C345.136 179.547 332.119 164.249 332.119 142.621C332.119 120.729 345.535 105.563 366.654 105.563C384.187 105.563 396.407 115.718 397.603 131.147H381.398C380.069 124.29 375.022 119.015 366.787 119.015C356.294 119.015 349.254 127.851 349.254 142.225C349.254 156.996 356.161 165.832 366.787 165.832C374.358 165.832 379.937 161.48 381.398 153.699H397.603C396.274 168.865 384.718 179.547 366.654 179.547Z" fill="#525666"/>
<path d="M287.293 179.547C265.509 179.547 252.227 165.172 252.227 142.753C252.227 120.597 265.775 105.563 286.363 105.563C304.029 105.563 319.304 116.509 319.304 141.698V146.973H268.963C269.162 159.172 276.401 166.359 287.426 166.359C294.864 166.359 299.911 163.194 302.036 158.974H318.64C315.585 171.371 304.029 179.547 287.293 179.547ZM269.096 135.5H303.099C302.966 125.74 296.458 118.619 286.629 118.619C276.401 118.619 269.627 126.334 269.096 135.5Z" fill="#525666"/>
<path d="M219.355 106.486H236.357V182.185C236.357 197.615 227.192 205 211.253 205C210.19 205 209.128 205 207.799 204.868V191.153C208.729 191.284 209.526 191.284 210.323 191.284C216.832 191.284 219.355 187.987 219.355 182.053V106.486ZM227.856 96.3311C222.543 96.3311 218.027 92.2429 218.027 87.0996C218.027 82.0881 222.543 77.9999 227.856 77.9999C233.302 77.9999 237.685 82.0881 237.685 87.0996C237.685 92.2429 233.302 96.3311 227.856 96.3311Z" fill="#525666"/>
<path d="M168.95 179.547C147.963 179.547 134.415 164.777 134.415 142.621C134.415 120.333 147.963 105.563 168.95 105.563C190.069 105.563 203.485 120.333 203.485 142.621C203.485 164.777 190.069 179.547 168.95 179.547ZM169.083 166.096C180.639 166.096 186.35 155.677 186.35 142.489C186.35 129.433 180.639 118.883 169.083 118.883C157.261 118.883 151.55 129.433 151.55 142.489C151.55 155.677 157.261 166.096 169.083 166.096Z" fill="#525666"/>
<path d="M85.8691 178.097V106.486H102.34V118.355H103.137C105.66 110.179 112.7 105.431 120.935 105.431C122.795 105.431 125.451 105.563 127.045 105.827V121.388C125.584 120.861 121.998 120.333 119.209 120.333C109.778 120.333 102.871 126.796 102.871 135.895V178.097H85.8691Z" fill="#525666"/>
<path d="M0 178.096V82.6156H36.1288C58.178 82.6156 69.9995 95.9354 69.9995 114.267C69.9995 132.598 58.0452 145.786 35.8631 145.786H17.2674V178.096H0ZM17.2674 131.675H33.4723C46.4893 131.675 52.3336 124.421 52.3336 114.267C52.3336 103.98 46.4893 96.9905 33.4723 96.9905H17.2674V131.675Z" fill="#525666"/>
<defs>
<linearGradient id="paint0_linear_2681_4207" x1="0" y1="20.5" x2="450" y2="20.5" gradientUnits="userSpaceOnUse">
<stop stop-color="#525666" stop-opacity="0"/>
<stop offset="1" stop-color="#525666"/>
</linearGradient>
</defs>
</svg>
