<svg width="118" height="118" viewBox="0 0 118 118" fill="none" xmlns="http://www.w3.org/2000/svg">
<g filter="url(#filter0_d_2088_3304)">
<rect x="11" y="7" width="96" height="96" rx="23.6743" fill="white" shape-rendering="crispEdges"/>
<path d="M87.3516 61.8263C87.3516 69.9786 80.7298 76.5873 72.5614 76.5873C64.393 76.5873 57.7712 69.9786 57.7712 61.8263C57.7712 53.674 64.393 47.0652 72.5614 47.0652C80.7298 47.0652 87.3516 53.674 87.3516 61.8263Z" fill="#57CC99"/>
<path d="M79.9565 53.2365C79.9565 61.3888 73.3347 67.9975 65.1663 67.9975C56.9979 67.9975 50.3761 61.3888 50.3761 53.2365C50.3761 45.0842 56.9979 38.4754 65.1663 38.4754C73.3347 38.4754 79.9565 45.0842 79.9565 53.2365Z" fill="#57CC99"/>
<path fill-rule="evenodd" clip-rule="evenodd" d="M42.7748 34.2994C44.3529 33.1172 46.5235 33.1171 48.1017 34.2992L73.2449 53.1316C74.3615 53.968 75.0186 55.2801 75.0186 56.6734V72.159C75.0186 74.6047 73.0321 76.5874 70.5815 76.5874H35.085C32.6345 76.5874 30.648 74.6047 30.6479 72.159V45.5968C30.648 44.2036 31.3049 42.8915 32.4214 42.0552L42.7748 34.2994ZM44.4482 64.0828C41.9977 64.0828 40.0111 66.0655 40.0111 68.5112V76.5873H49.1357V68.5112C49.1357 66.0655 47.1492 64.0828 44.6987 64.0828H44.4482Z" fill="#4586FF"/>
</g>
<defs>
<filter id="filter0_d_2088_3304" x="0" y="0" width="118" height="118" filterUnits="userSpaceOnUse" color-interpolation-filters="sRGB">
<feFlood flood-opacity="0" result="BackgroundImageFix"/>
<feColorMatrix in="SourceAlpha" type="matrix" values="0 0 0 0 0 0 0 0 0 0 0 0 0 0 0 0 0 0 127 0" result="hardAlpha"/>
<feMorphology radius="3" operator="dilate" in="SourceAlpha" result="effect1_dropShadow_2088_3304"/>
<feOffset dy="4"/>
<feGaussianBlur stdDeviation="4"/>
<feComposite in2="hardAlpha" operator="out"/>
<feColorMatrix type="matrix" values="0 0 0 0 0 0 0 0 0 0 0 0 0 0 0 0 0 0 0.05 0"/>
<feBlend mode="normal" in2="BackgroundImageFix" result="effect1_dropShadow_2088_3304"/>
<feBlend mode="normal" in="SourceGraphic" in2="effect1_dropShadow_2088_3304" result="shape"/>
</filter>
</defs>
</svg>
