<svg width="100" height="34" viewBox="0 0 100 34" fill="none" xmlns="http://www.w3.org/2000/svg">
<rect width="100" height="34" rx="17" fill="#56AFDF"/>
<path d="M22.0125 24V9.85938H23.7703V16.1484H31.2508V9.85938H33.0281V24H31.2508V17.6914H23.7703V24H22.0125ZM40.6547 24.2148C37.7641 24.2148 35.8109 22.0469 35.8109 18.7461C35.8109 15.4453 37.7641 13.2578 40.6547 13.2578C43.5258 13.2578 45.4594 15.4453 45.4594 18.7461C45.4594 22.0469 43.5258 24.2148 40.6547 24.2148ZM40.6547 22.7305C42.7836 22.7305 43.7797 20.8555 43.7797 18.7461C43.7797 16.6367 42.7836 14.7422 40.6547 14.7422C38.4867 14.7422 37.4906 16.6367 37.4906 18.7461C37.4906 20.8555 38.4867 22.7305 40.6547 22.7305ZM54.7656 19.6445V13.3945H56.4258V24H54.7656V22.2031H54.6484C54.1406 23.2773 53.1055 24.1367 51.5039 24.1367C49.4922 24.1367 48.0664 22.8281 48.0664 20.1328V13.3945H49.7461V20.0156C49.7461 21.5391 50.7031 22.5156 52.0508 22.5156C53.2422 22.5156 54.7656 21.6172 54.7656 19.6445ZM65.4195 16.1484C65.1852 15.2695 64.5211 14.6836 63.2711 14.6836C61.9625 14.6836 61.025 15.3867 61.025 16.2852C61.025 16.9883 61.5914 17.4766 62.8414 17.7695L64.4234 18.1602C66.318 18.6094 67.2555 19.5469 67.2555 21.0312C67.2555 22.8672 65.7516 24.2148 63.0953 24.2148C60.7125 24.2148 59.2867 23.1602 59.0133 21.2266H60.7711C60.9664 22.2617 61.7281 22.75 63.0563 22.75C64.5602 22.75 65.5172 22.125 65.5172 21.1289C65.5172 20.3867 64.9898 19.8789 63.7789 19.6055L62.1773 19.2344C60.3219 18.8047 59.3453 17.7891 59.3453 16.3828C59.3453 14.5664 60.9273 13.2578 63.2711 13.2578C65.4586 13.2578 66.8453 14.4297 67.0602 16.1484H65.4195ZM74.2961 24.2148C71.2297 24.2148 69.3352 22.0469 69.3352 18.7852C69.3352 15.5234 71.2492 13.2578 74.1398 13.2578C76.3664 13.2578 78.7102 14.625 78.7102 18.5508V19.2539H71.0148C71.093 21.5 72.4016 22.7305 74.2961 22.7305C75.5656 22.7305 76.3664 22.1836 76.757 21.5195H78.5539C78.0461 23.1211 76.4836 24.2148 74.2961 24.2148ZM71.0344 17.8281H77.0109C77.0109 16.0508 75.8781 14.7422 74.1398 14.7422C72.3039 14.7422 71.132 16.1875 71.0344 17.8281Z" fill="white"/>
</svg>
